M48
;GenerationSoftware,Autodesk,EAGLE,9.3.1*%
;CreationDate,2019-03-29T10:59:15Z*%
FMAT,2
ICI,OFF
METRIC,TZ,000.000
T14C0.350
T13C0.406
T12C0.457
T11C0.508
T10C0.635
T9C0.813
T8C0.920
T7C1.016
T6C1.200
T5C1.250
T4C1.300
T3C1.397
T2C2.300
T1C3.302
%
G90
M71
T1
X60379Y89662
X35379Y89662
T2
X21920Y11430
X33960Y11430
T3
X78740Y88900
X15240Y88900
X5080Y88900
X10160Y88900
X101600Y88900
X91440Y88900
X86360Y11430
X91440Y11430
X101600Y11430
X86360Y88900
X119380Y88900
X96520Y11430
X20320Y88900
X73660Y11430
X78740Y11430
X96520Y88900
X68580Y11430
X63500Y11430
X119380Y11430
X124460Y11430
X114300Y11430
X109220Y11430
X114300Y88900
X109220Y88900
X124460Y88900
X73660Y88900
T4
X104990Y43180
X124990Y43180
T5
X5260Y5640
X13260Y5640
T6
X101600Y20320
X96520Y20320
X99060Y20320
T7
X53340Y39370
X53340Y41910
X55880Y39370
X55880Y41910
X58420Y39370
X58420Y41910
X52029Y91082
X46499Y91082
X43729Y91082
X50649Y88242
X47879Y88242
X45109Y88242
X42339Y88242
X5080Y71120
X49259Y91082
X5080Y76200
X53419Y88242
T8
X29190Y14140
X26690Y16140
X29190Y16140
X26690Y14140
T9
X65151Y41656
X70231Y41656
X46355Y83947
X46355Y76327
T10
X33020Y22860
X38100Y40640
X45720Y20320
X33020Y35179
X33020Y39751
X24130Y54610
X24130Y48260
T11
X85852Y39751
X77597Y23749
T12
X17780Y27051
X14478Y27051
T13
X70203Y29680
X70866Y34671
X55880Y62230
X52070Y63500
X25019Y80899
X17780Y80010
X10922Y35687
X15301Y38704
X67310Y49530
X63754Y54864
X65024Y57150
X43815Y48006
X57189Y55880
X40894Y81280
X44831Y81026
X78232Y82169
X76200Y82423
X8763Y80391
X19558Y68834
X25019Y78994
X40259Y29718
X40259Y24130
X78105Y38608
X34290Y80960
X13462Y41910
X112649Y68326
X118745Y74930
X124333Y74930
X113030Y75184
X109347Y74930
X118745Y80010
X125222Y80010
X108712Y80010
X115189Y80010
X46355Y31115
X38481Y38100
X23031Y43898
X22733Y35560
X56515Y23749
X55753Y27813
T14
X15240Y21590
X8001Y19431
X91440Y17653
X76200Y3937
X71502Y3956
X70593Y3956
X66040Y3810
X122047Y70485
X122047Y81153
X17780Y50800
X123190Y69850
X11049Y30353
X115316Y72898
X111887Y81153
X16558Y48260
X14859Y33655
X122682Y93980
X112522Y93980
X65024Y53594
X82423Y68326
X73279Y68199
X82423Y66929
X73152Y66929
X82423Y65659
X73152Y65659
X59944Y58801
X58674Y59436
X49530Y19050
X58420Y54610
X58420Y18923
X58420Y53594
X35560Y26035
X43180Y21590
X74930Y49530
X71490Y27686
X80264Y56388
X82550Y57150
X76962Y27686
X74030Y27686
X81534Y56642
X68950Y27559
X79375Y55626
X72255Y51935
X68580Y78740
X72898Y52578
X69850Y78740
X82423Y64389
X73152Y64389
X4191Y22225
X58674Y60579
X52197Y50292
X59690Y50293
X59690Y46990
X57150Y44450
X34290Y57150
X76962Y43688
X58420Y57150
X25400Y19050
X30480Y19050
X60198Y29210
X61468Y32131
X63881Y50038
X7239Y18034
X11430Y19050
X74422Y70231
X76835Y69469
X114300Y62230
X96472Y54610
X71628Y49657
X95504Y57912
X72667Y49657
X29210Y33020
X40767Y41148
X42164Y36195
X20320Y48260
X13589Y19939
X60198Y37719
X20320Y49530
X17780Y48260
X16891Y33655
M30