G04 EAGLE Gerber RS-274X export*
G75*
%MOMM*%
%FSLAX34Y34*%
%LPD*%
%INSilkscreen Bottom*%
%IPPOS*%
%AMOC8*
5,1,8,0,0,1.08239X$1,22.5*%
G01*
%ADD10C,0.203200*%
%ADD11C,0.254000*%
%ADD12C,0.101600*%
%ADD13C,0.127000*%
%ADD14C,0.200000*%
%ADD15R,2.450331X0.675281*%


D10*
X1094600Y929800D02*
X1094600Y925300D01*
X1140600Y925300D01*
X1140600Y929800D01*
X1140600Y949800D02*
X1140600Y954300D01*
X1094600Y954300D01*
X1094600Y949800D01*
X1149350Y949800D02*
X1149350Y929800D01*
D11*
X1137758Y958850D02*
X1137758Y969010D01*
X1134936Y969010D01*
X1134830Y969008D01*
X1134725Y969002D01*
X1134620Y968992D01*
X1134515Y968978D01*
X1134411Y968961D01*
X1134308Y968939D01*
X1134206Y968914D01*
X1134104Y968885D01*
X1134004Y968852D01*
X1133905Y968815D01*
X1133808Y968775D01*
X1133712Y968731D01*
X1133617Y968683D01*
X1133525Y968632D01*
X1133435Y968577D01*
X1133346Y968520D01*
X1133260Y968459D01*
X1133177Y968394D01*
X1133095Y968327D01*
X1133017Y968257D01*
X1132941Y968183D01*
X1132867Y968107D01*
X1132797Y968029D01*
X1132730Y967947D01*
X1132665Y967864D01*
X1132604Y967778D01*
X1132547Y967689D01*
X1132492Y967599D01*
X1132441Y967507D01*
X1132393Y967412D01*
X1132349Y967316D01*
X1132309Y967219D01*
X1132272Y967120D01*
X1132239Y967020D01*
X1132210Y966918D01*
X1132185Y966816D01*
X1132163Y966713D01*
X1132146Y966609D01*
X1132132Y966504D01*
X1132122Y966399D01*
X1132116Y966294D01*
X1132114Y966188D01*
X1132113Y966188D02*
X1132113Y961672D01*
X1132114Y961672D02*
X1132116Y961566D01*
X1132122Y961461D01*
X1132132Y961356D01*
X1132146Y961251D01*
X1132163Y961147D01*
X1132185Y961044D01*
X1132210Y960942D01*
X1132239Y960840D01*
X1132272Y960740D01*
X1132309Y960641D01*
X1132349Y960544D01*
X1132393Y960448D01*
X1132441Y960353D01*
X1132492Y960261D01*
X1132547Y960171D01*
X1132604Y960082D01*
X1132665Y959996D01*
X1132730Y959913D01*
X1132797Y959831D01*
X1132867Y959753D01*
X1132941Y959677D01*
X1133017Y959603D01*
X1133095Y959533D01*
X1133177Y959466D01*
X1133260Y959401D01*
X1133346Y959340D01*
X1133435Y959283D01*
X1133525Y959228D01*
X1133617Y959177D01*
X1133712Y959129D01*
X1133808Y959085D01*
X1133905Y959045D01*
X1134004Y959008D01*
X1134104Y958975D01*
X1134206Y958946D01*
X1134308Y958921D01*
X1134411Y958899D01*
X1134515Y958882D01*
X1134620Y958868D01*
X1134725Y958858D01*
X1134830Y958852D01*
X1134936Y958850D01*
X1137758Y958850D01*
X1125947Y966752D02*
X1123125Y969010D01*
X1123125Y958850D01*
X1125947Y958850D02*
X1120302Y958850D01*
X1114517Y963930D02*
X1114515Y964130D01*
X1114507Y964330D01*
X1114496Y964529D01*
X1114479Y964728D01*
X1114457Y964927D01*
X1114431Y965125D01*
X1114400Y965323D01*
X1114365Y965519D01*
X1114324Y965715D01*
X1114280Y965910D01*
X1114230Y966104D01*
X1114176Y966296D01*
X1114117Y966487D01*
X1114054Y966677D01*
X1113986Y966865D01*
X1113914Y967051D01*
X1113837Y967236D01*
X1113756Y967418D01*
X1113670Y967599D01*
X1113639Y967683D01*
X1113605Y967765D01*
X1113567Y967846D01*
X1113526Y967926D01*
X1113481Y968003D01*
X1113434Y968078D01*
X1113383Y968152D01*
X1113328Y968223D01*
X1113271Y968291D01*
X1113211Y968358D01*
X1113148Y968421D01*
X1113083Y968482D01*
X1113015Y968540D01*
X1112945Y968595D01*
X1112872Y968647D01*
X1112797Y968695D01*
X1112720Y968741D01*
X1112642Y968783D01*
X1112561Y968822D01*
X1112479Y968857D01*
X1112396Y968889D01*
X1112311Y968917D01*
X1112225Y968942D01*
X1112138Y968962D01*
X1112051Y968980D01*
X1111962Y968993D01*
X1111873Y969002D01*
X1111784Y969008D01*
X1111695Y969010D01*
X1111606Y969008D01*
X1111517Y969002D01*
X1111428Y968993D01*
X1111339Y968980D01*
X1111252Y968962D01*
X1111165Y968942D01*
X1111079Y968917D01*
X1110994Y968889D01*
X1110911Y968857D01*
X1110829Y968822D01*
X1110748Y968783D01*
X1110670Y968741D01*
X1110593Y968695D01*
X1110518Y968647D01*
X1110445Y968595D01*
X1110375Y968540D01*
X1110307Y968482D01*
X1110242Y968421D01*
X1110179Y968358D01*
X1110119Y968291D01*
X1110062Y968223D01*
X1110007Y968152D01*
X1109956Y968078D01*
X1109909Y968003D01*
X1109864Y967926D01*
X1109823Y967846D01*
X1109785Y967765D01*
X1109751Y967683D01*
X1109720Y967599D01*
X1109634Y967418D01*
X1109553Y967235D01*
X1109476Y967051D01*
X1109404Y966864D01*
X1109336Y966676D01*
X1109273Y966487D01*
X1109214Y966296D01*
X1109160Y966103D01*
X1109110Y965910D01*
X1109066Y965715D01*
X1109025Y965519D01*
X1108990Y965323D01*
X1108959Y965125D01*
X1108933Y964927D01*
X1108911Y964728D01*
X1108894Y964529D01*
X1108883Y964330D01*
X1108875Y964130D01*
X1108873Y963930D01*
X1114517Y963930D02*
X1114515Y963730D01*
X1114507Y963530D01*
X1114496Y963331D01*
X1114479Y963132D01*
X1114457Y962933D01*
X1114431Y962735D01*
X1114400Y962537D01*
X1114365Y962341D01*
X1114324Y962145D01*
X1114280Y961950D01*
X1114230Y961756D01*
X1114176Y961564D01*
X1114117Y961373D01*
X1114054Y961183D01*
X1113986Y960995D01*
X1113914Y960809D01*
X1113837Y960624D01*
X1113756Y960442D01*
X1113670Y960261D01*
X1113639Y960177D01*
X1113605Y960095D01*
X1113567Y960014D01*
X1113526Y959934D01*
X1113481Y959857D01*
X1113434Y959782D01*
X1113382Y959708D01*
X1113328Y959637D01*
X1113271Y959569D01*
X1113211Y959502D01*
X1113148Y959439D01*
X1113083Y959378D01*
X1113015Y959320D01*
X1112945Y959265D01*
X1112872Y959213D01*
X1112797Y959165D01*
X1112720Y959119D01*
X1112642Y959077D01*
X1112561Y959038D01*
X1112479Y959003D01*
X1112396Y958971D01*
X1112311Y958943D01*
X1112225Y958918D01*
X1112138Y958898D01*
X1112051Y958880D01*
X1111962Y958867D01*
X1111873Y958858D01*
X1111784Y958852D01*
X1111695Y958850D01*
X1109719Y960261D02*
X1109633Y960442D01*
X1109552Y960624D01*
X1109475Y960809D01*
X1109403Y960995D01*
X1109335Y961183D01*
X1109272Y961373D01*
X1109213Y961564D01*
X1109159Y961756D01*
X1109109Y961950D01*
X1109065Y962145D01*
X1109024Y962341D01*
X1108989Y962537D01*
X1108958Y962735D01*
X1108932Y962933D01*
X1108910Y963132D01*
X1108893Y963331D01*
X1108882Y963530D01*
X1108874Y963730D01*
X1108872Y963930D01*
X1109720Y960261D02*
X1109751Y960177D01*
X1109785Y960095D01*
X1109823Y960014D01*
X1109864Y959934D01*
X1109909Y959857D01*
X1109956Y959782D01*
X1110008Y959708D01*
X1110062Y959637D01*
X1110119Y959569D01*
X1110179Y959502D01*
X1110242Y959439D01*
X1110307Y959378D01*
X1110375Y959320D01*
X1110445Y959265D01*
X1110518Y959213D01*
X1110593Y959165D01*
X1110670Y959119D01*
X1110748Y959077D01*
X1110829Y959038D01*
X1110911Y959003D01*
X1110994Y958971D01*
X1111079Y958943D01*
X1111165Y958918D01*
X1111252Y958898D01*
X1111339Y958880D01*
X1111428Y958867D01*
X1111517Y958858D01*
X1111606Y958852D01*
X1111695Y958850D01*
X1113952Y961108D02*
X1109437Y966752D01*
X1103087Y961672D02*
X1103085Y961778D01*
X1103079Y961883D01*
X1103069Y961988D01*
X1103055Y962093D01*
X1103038Y962197D01*
X1103016Y962300D01*
X1102991Y962402D01*
X1102962Y962504D01*
X1102929Y962604D01*
X1102892Y962703D01*
X1102852Y962800D01*
X1102808Y962896D01*
X1102760Y962991D01*
X1102709Y963083D01*
X1102654Y963173D01*
X1102597Y963262D01*
X1102536Y963348D01*
X1102471Y963431D01*
X1102404Y963513D01*
X1102334Y963591D01*
X1102260Y963667D01*
X1102184Y963741D01*
X1102106Y963811D01*
X1102024Y963878D01*
X1101941Y963943D01*
X1101855Y964004D01*
X1101766Y964061D01*
X1101676Y964116D01*
X1101584Y964167D01*
X1101489Y964215D01*
X1101393Y964259D01*
X1101296Y964299D01*
X1101197Y964336D01*
X1101097Y964369D01*
X1100995Y964398D01*
X1100893Y964423D01*
X1100790Y964445D01*
X1100686Y964462D01*
X1100581Y964476D01*
X1100476Y964486D01*
X1100371Y964492D01*
X1100265Y964494D01*
X1100159Y964492D01*
X1100054Y964486D01*
X1099949Y964476D01*
X1099844Y964462D01*
X1099740Y964445D01*
X1099637Y964423D01*
X1099535Y964398D01*
X1099433Y964369D01*
X1099333Y964336D01*
X1099234Y964299D01*
X1099137Y964259D01*
X1099041Y964215D01*
X1098946Y964167D01*
X1098854Y964116D01*
X1098764Y964061D01*
X1098675Y964004D01*
X1098589Y963943D01*
X1098506Y963878D01*
X1098424Y963811D01*
X1098346Y963741D01*
X1098270Y963667D01*
X1098196Y963591D01*
X1098126Y963513D01*
X1098059Y963431D01*
X1097994Y963348D01*
X1097933Y963262D01*
X1097876Y963173D01*
X1097821Y963083D01*
X1097770Y962991D01*
X1097722Y962896D01*
X1097678Y962800D01*
X1097638Y962703D01*
X1097601Y962604D01*
X1097568Y962504D01*
X1097539Y962402D01*
X1097514Y962300D01*
X1097492Y962197D01*
X1097475Y962093D01*
X1097461Y961988D01*
X1097451Y961883D01*
X1097445Y961778D01*
X1097443Y961672D01*
X1097445Y961566D01*
X1097451Y961461D01*
X1097461Y961356D01*
X1097475Y961251D01*
X1097492Y961147D01*
X1097514Y961044D01*
X1097539Y960942D01*
X1097568Y960840D01*
X1097601Y960740D01*
X1097638Y960641D01*
X1097678Y960544D01*
X1097722Y960448D01*
X1097770Y960353D01*
X1097821Y960261D01*
X1097876Y960171D01*
X1097933Y960082D01*
X1097994Y959996D01*
X1098059Y959913D01*
X1098126Y959831D01*
X1098196Y959753D01*
X1098270Y959677D01*
X1098346Y959603D01*
X1098424Y959533D01*
X1098506Y959466D01*
X1098589Y959401D01*
X1098675Y959340D01*
X1098764Y959283D01*
X1098854Y959228D01*
X1098946Y959177D01*
X1099041Y959129D01*
X1099137Y959085D01*
X1099234Y959045D01*
X1099333Y959008D01*
X1099433Y958975D01*
X1099535Y958946D01*
X1099637Y958921D01*
X1099740Y958899D01*
X1099844Y958882D01*
X1099949Y958868D01*
X1100054Y958858D01*
X1100159Y958852D01*
X1100265Y958850D01*
X1100371Y958852D01*
X1100476Y958858D01*
X1100581Y958868D01*
X1100686Y958882D01*
X1100790Y958899D01*
X1100893Y958921D01*
X1100995Y958946D01*
X1101097Y958975D01*
X1101197Y959008D01*
X1101296Y959045D01*
X1101393Y959085D01*
X1101489Y959129D01*
X1101584Y959177D01*
X1101676Y959228D01*
X1101766Y959283D01*
X1101855Y959340D01*
X1101941Y959401D01*
X1102024Y959466D01*
X1102106Y959533D01*
X1102184Y959603D01*
X1102260Y959677D01*
X1102334Y959753D01*
X1102404Y959831D01*
X1102471Y959913D01*
X1102536Y959996D01*
X1102597Y960082D01*
X1102654Y960171D01*
X1102709Y960261D01*
X1102760Y960353D01*
X1102808Y960448D01*
X1102852Y960544D01*
X1102892Y960641D01*
X1102929Y960740D01*
X1102962Y960840D01*
X1102991Y960942D01*
X1103016Y961044D01*
X1103038Y961147D01*
X1103055Y961251D01*
X1103069Y961356D01*
X1103079Y961461D01*
X1103085Y961566D01*
X1103087Y961672D01*
X1102523Y966752D02*
X1102521Y966845D01*
X1102515Y966938D01*
X1102506Y967031D01*
X1102492Y967124D01*
X1102475Y967215D01*
X1102454Y967306D01*
X1102429Y967396D01*
X1102401Y967485D01*
X1102369Y967573D01*
X1102333Y967659D01*
X1102294Y967744D01*
X1102251Y967827D01*
X1102205Y967908D01*
X1102155Y967987D01*
X1102103Y968064D01*
X1102047Y968139D01*
X1101988Y968211D01*
X1101926Y968281D01*
X1101862Y968349D01*
X1101794Y968413D01*
X1101724Y968475D01*
X1101652Y968534D01*
X1101577Y968590D01*
X1101500Y968642D01*
X1101421Y968692D01*
X1101340Y968738D01*
X1101257Y968781D01*
X1101172Y968820D01*
X1101086Y968856D01*
X1100998Y968888D01*
X1100909Y968916D01*
X1100819Y968941D01*
X1100728Y968962D01*
X1100637Y968979D01*
X1100544Y968993D01*
X1100451Y969002D01*
X1100358Y969008D01*
X1100265Y969010D01*
X1100172Y969008D01*
X1100079Y969002D01*
X1099986Y968993D01*
X1099893Y968979D01*
X1099802Y968962D01*
X1099711Y968941D01*
X1099621Y968916D01*
X1099532Y968888D01*
X1099444Y968856D01*
X1099358Y968820D01*
X1099273Y968781D01*
X1099190Y968738D01*
X1099109Y968692D01*
X1099030Y968642D01*
X1098953Y968590D01*
X1098878Y968534D01*
X1098806Y968475D01*
X1098736Y968413D01*
X1098668Y968349D01*
X1098604Y968281D01*
X1098542Y968211D01*
X1098483Y968139D01*
X1098427Y968064D01*
X1098375Y967987D01*
X1098325Y967908D01*
X1098279Y967827D01*
X1098236Y967744D01*
X1098197Y967659D01*
X1098161Y967573D01*
X1098129Y967485D01*
X1098101Y967396D01*
X1098076Y967306D01*
X1098055Y967215D01*
X1098038Y967124D01*
X1098024Y967031D01*
X1098015Y966938D01*
X1098009Y966845D01*
X1098007Y966752D01*
X1098009Y966659D01*
X1098015Y966566D01*
X1098024Y966473D01*
X1098038Y966380D01*
X1098055Y966289D01*
X1098076Y966198D01*
X1098101Y966108D01*
X1098129Y966019D01*
X1098161Y965931D01*
X1098197Y965845D01*
X1098236Y965760D01*
X1098279Y965677D01*
X1098325Y965596D01*
X1098375Y965517D01*
X1098427Y965440D01*
X1098483Y965365D01*
X1098542Y965293D01*
X1098604Y965223D01*
X1098668Y965155D01*
X1098736Y965091D01*
X1098806Y965029D01*
X1098878Y964970D01*
X1098953Y964914D01*
X1099030Y964862D01*
X1099109Y964812D01*
X1099190Y964766D01*
X1099273Y964723D01*
X1099358Y964684D01*
X1099444Y964648D01*
X1099532Y964616D01*
X1099621Y964588D01*
X1099711Y964563D01*
X1099802Y964542D01*
X1099893Y964525D01*
X1099986Y964511D01*
X1100079Y964502D01*
X1100172Y964496D01*
X1100265Y964494D01*
X1100358Y964496D01*
X1100451Y964502D01*
X1100544Y964511D01*
X1100637Y964525D01*
X1100728Y964542D01*
X1100819Y964563D01*
X1100909Y964588D01*
X1100998Y964616D01*
X1101086Y964648D01*
X1101172Y964684D01*
X1101257Y964723D01*
X1101340Y964766D01*
X1101421Y964812D01*
X1101500Y964862D01*
X1101577Y964914D01*
X1101652Y964970D01*
X1101724Y965029D01*
X1101794Y965091D01*
X1101862Y965155D01*
X1101926Y965223D01*
X1101988Y965293D01*
X1102047Y965365D01*
X1102103Y965440D01*
X1102155Y965517D01*
X1102205Y965596D01*
X1102251Y965677D01*
X1102294Y965760D01*
X1102333Y965845D01*
X1102369Y965931D01*
X1102401Y966019D01*
X1102429Y966108D01*
X1102454Y966198D01*
X1102475Y966289D01*
X1102492Y966380D01*
X1102506Y966473D01*
X1102515Y966566D01*
X1102521Y966659D01*
X1102523Y966752D01*
D10*
X777400Y86500D02*
X772900Y86500D01*
X772900Y40500D01*
X777400Y40500D01*
X797400Y40500D02*
X801900Y40500D01*
X801900Y86500D01*
X797400Y86500D01*
X797400Y31750D02*
X777400Y31750D01*
D11*
X769620Y43342D02*
X759460Y43342D01*
X769620Y43342D02*
X769620Y46165D01*
X769618Y46271D01*
X769612Y46376D01*
X769602Y46481D01*
X769588Y46586D01*
X769571Y46690D01*
X769549Y46793D01*
X769524Y46895D01*
X769495Y46997D01*
X769462Y47097D01*
X769425Y47196D01*
X769385Y47294D01*
X769341Y47389D01*
X769293Y47484D01*
X769242Y47576D01*
X769187Y47666D01*
X769130Y47755D01*
X769069Y47841D01*
X769004Y47924D01*
X768937Y48006D01*
X768867Y48084D01*
X768793Y48160D01*
X768717Y48234D01*
X768639Y48304D01*
X768557Y48371D01*
X768474Y48436D01*
X768388Y48497D01*
X768299Y48554D01*
X768209Y48609D01*
X768117Y48660D01*
X768022Y48708D01*
X767926Y48752D01*
X767829Y48792D01*
X767730Y48829D01*
X767630Y48862D01*
X767528Y48891D01*
X767426Y48916D01*
X767323Y48938D01*
X767219Y48955D01*
X767114Y48969D01*
X767009Y48979D01*
X766903Y48985D01*
X766798Y48987D01*
X762282Y48987D01*
X762282Y48986D02*
X762176Y48984D01*
X762071Y48978D01*
X761966Y48968D01*
X761861Y48954D01*
X761757Y48937D01*
X761654Y48915D01*
X761552Y48890D01*
X761450Y48861D01*
X761350Y48828D01*
X761251Y48791D01*
X761154Y48751D01*
X761058Y48707D01*
X760963Y48659D01*
X760871Y48608D01*
X760781Y48553D01*
X760692Y48496D01*
X760606Y48435D01*
X760523Y48370D01*
X760441Y48303D01*
X760363Y48233D01*
X760287Y48159D01*
X760213Y48083D01*
X760143Y48005D01*
X760076Y47924D01*
X760011Y47840D01*
X759950Y47754D01*
X759893Y47665D01*
X759838Y47575D01*
X759787Y47483D01*
X759739Y47388D01*
X759695Y47293D01*
X759655Y47195D01*
X759618Y47096D01*
X759585Y46996D01*
X759556Y46894D01*
X759531Y46792D01*
X759509Y46689D01*
X759492Y46585D01*
X759478Y46480D01*
X759468Y46375D01*
X759462Y46270D01*
X759460Y46164D01*
X759460Y46165D02*
X759460Y43342D01*
X767362Y55153D02*
X769620Y57976D01*
X759460Y57976D01*
X759460Y60798D02*
X759460Y55153D01*
X764540Y66583D02*
X764740Y66585D01*
X764940Y66593D01*
X765139Y66604D01*
X765338Y66621D01*
X765537Y66643D01*
X765735Y66669D01*
X765933Y66700D01*
X766129Y66735D01*
X766325Y66776D01*
X766520Y66820D01*
X766714Y66870D01*
X766906Y66924D01*
X767097Y66983D01*
X767287Y67046D01*
X767475Y67114D01*
X767661Y67186D01*
X767846Y67263D01*
X768028Y67344D01*
X768209Y67430D01*
X768209Y67431D02*
X768293Y67462D01*
X768375Y67496D01*
X768456Y67534D01*
X768536Y67575D01*
X768613Y67620D01*
X768688Y67667D01*
X768762Y67718D01*
X768833Y67773D01*
X768901Y67830D01*
X768968Y67890D01*
X769031Y67953D01*
X769092Y68018D01*
X769150Y68086D01*
X769205Y68156D01*
X769257Y68229D01*
X769305Y68304D01*
X769351Y68381D01*
X769393Y68459D01*
X769432Y68540D01*
X769467Y68622D01*
X769499Y68705D01*
X769527Y68790D01*
X769552Y68876D01*
X769572Y68963D01*
X769590Y69050D01*
X769603Y69139D01*
X769612Y69228D01*
X769618Y69317D01*
X769620Y69406D01*
X769618Y69495D01*
X769612Y69584D01*
X769603Y69673D01*
X769590Y69762D01*
X769572Y69849D01*
X769552Y69936D01*
X769527Y70022D01*
X769499Y70107D01*
X769467Y70190D01*
X769432Y70272D01*
X769393Y70353D01*
X769351Y70431D01*
X769305Y70508D01*
X769257Y70583D01*
X769205Y70656D01*
X769150Y70726D01*
X769092Y70794D01*
X769031Y70860D01*
X768967Y70922D01*
X768901Y70982D01*
X768833Y71039D01*
X768762Y71094D01*
X768688Y71145D01*
X768613Y71192D01*
X768536Y71237D01*
X768456Y71278D01*
X768375Y71316D01*
X768293Y71350D01*
X768209Y71381D01*
X768209Y71380D02*
X768028Y71466D01*
X767845Y71547D01*
X767661Y71624D01*
X767474Y71696D01*
X767286Y71764D01*
X767097Y71827D01*
X766906Y71886D01*
X766713Y71940D01*
X766520Y71990D01*
X766325Y72034D01*
X766129Y72075D01*
X765933Y72110D01*
X765735Y72141D01*
X765537Y72167D01*
X765338Y72189D01*
X765139Y72206D01*
X764940Y72217D01*
X764740Y72225D01*
X764540Y72227D01*
X764540Y66583D02*
X764340Y66585D01*
X764140Y66593D01*
X763941Y66604D01*
X763742Y66621D01*
X763543Y66643D01*
X763345Y66669D01*
X763147Y66700D01*
X762951Y66735D01*
X762755Y66776D01*
X762560Y66820D01*
X762366Y66870D01*
X762174Y66924D01*
X761983Y66983D01*
X761793Y67046D01*
X761605Y67114D01*
X761419Y67186D01*
X761234Y67263D01*
X761052Y67344D01*
X760871Y67430D01*
X760871Y67431D02*
X760787Y67462D01*
X760705Y67496D01*
X760624Y67534D01*
X760544Y67575D01*
X760467Y67620D01*
X760392Y67667D01*
X760318Y67719D01*
X760247Y67773D01*
X760179Y67830D01*
X760112Y67890D01*
X760049Y67953D01*
X759988Y68018D01*
X759930Y68086D01*
X759875Y68156D01*
X759823Y68229D01*
X759775Y68304D01*
X759729Y68381D01*
X759687Y68459D01*
X759648Y68540D01*
X759613Y68622D01*
X759581Y68705D01*
X759553Y68790D01*
X759528Y68876D01*
X759508Y68963D01*
X759490Y69050D01*
X759477Y69139D01*
X759468Y69228D01*
X759462Y69317D01*
X759460Y69406D01*
X760871Y71381D02*
X761052Y71467D01*
X761234Y71548D01*
X761419Y71625D01*
X761605Y71697D01*
X761793Y71765D01*
X761983Y71828D01*
X762174Y71887D01*
X762366Y71941D01*
X762560Y71991D01*
X762755Y72035D01*
X762951Y72076D01*
X763147Y72111D01*
X763345Y72142D01*
X763543Y72168D01*
X763742Y72190D01*
X763941Y72207D01*
X764140Y72218D01*
X764340Y72226D01*
X764540Y72228D01*
X760871Y71381D02*
X760787Y71350D01*
X760705Y71316D01*
X760624Y71278D01*
X760544Y71237D01*
X760467Y71192D01*
X760392Y71145D01*
X760318Y71094D01*
X760247Y71039D01*
X760179Y70982D01*
X760112Y70922D01*
X760049Y70859D01*
X759988Y70794D01*
X759930Y70726D01*
X759875Y70656D01*
X759823Y70583D01*
X759775Y70508D01*
X759729Y70431D01*
X759687Y70353D01*
X759648Y70272D01*
X759613Y70190D01*
X759581Y70107D01*
X759553Y70022D01*
X759528Y69936D01*
X759508Y69849D01*
X759490Y69762D01*
X759477Y69673D01*
X759468Y69584D01*
X759462Y69495D01*
X759460Y69406D01*
X761718Y67148D02*
X767362Y71663D01*
X759460Y78013D02*
X759460Y80836D01*
X759462Y80942D01*
X759468Y81047D01*
X759478Y81152D01*
X759492Y81257D01*
X759509Y81361D01*
X759531Y81464D01*
X759556Y81566D01*
X759585Y81668D01*
X759618Y81768D01*
X759655Y81867D01*
X759695Y81964D01*
X759739Y82060D01*
X759787Y82155D01*
X759838Y82247D01*
X759893Y82337D01*
X759950Y82426D01*
X760011Y82512D01*
X760076Y82595D01*
X760143Y82677D01*
X760213Y82755D01*
X760287Y82831D01*
X760363Y82905D01*
X760441Y82975D01*
X760523Y83042D01*
X760606Y83107D01*
X760692Y83168D01*
X760781Y83225D01*
X760871Y83280D01*
X760963Y83331D01*
X761058Y83379D01*
X761154Y83423D01*
X761251Y83463D01*
X761350Y83500D01*
X761450Y83533D01*
X761552Y83562D01*
X761654Y83587D01*
X761757Y83609D01*
X761861Y83626D01*
X761966Y83640D01*
X762071Y83650D01*
X762176Y83656D01*
X762282Y83658D01*
X762388Y83656D01*
X762493Y83650D01*
X762598Y83640D01*
X762703Y83626D01*
X762807Y83609D01*
X762910Y83587D01*
X763012Y83562D01*
X763114Y83533D01*
X763214Y83500D01*
X763313Y83463D01*
X763410Y83423D01*
X763506Y83379D01*
X763601Y83331D01*
X763693Y83280D01*
X763783Y83225D01*
X763872Y83168D01*
X763958Y83107D01*
X764041Y83042D01*
X764123Y82975D01*
X764201Y82905D01*
X764277Y82831D01*
X764351Y82755D01*
X764421Y82677D01*
X764488Y82595D01*
X764553Y82512D01*
X764614Y82426D01*
X764671Y82337D01*
X764726Y82247D01*
X764777Y82155D01*
X764825Y82060D01*
X764869Y81964D01*
X764909Y81867D01*
X764946Y81768D01*
X764979Y81668D01*
X765008Y81566D01*
X765033Y81464D01*
X765055Y81361D01*
X765072Y81257D01*
X765086Y81152D01*
X765096Y81047D01*
X765102Y80942D01*
X765104Y80836D01*
X769620Y81400D02*
X769620Y78013D01*
X769620Y81400D02*
X769618Y81493D01*
X769612Y81586D01*
X769603Y81679D01*
X769589Y81772D01*
X769572Y81863D01*
X769551Y81954D01*
X769526Y82044D01*
X769498Y82133D01*
X769466Y82221D01*
X769430Y82307D01*
X769391Y82392D01*
X769348Y82475D01*
X769302Y82556D01*
X769252Y82635D01*
X769200Y82712D01*
X769144Y82787D01*
X769085Y82859D01*
X769023Y82929D01*
X768959Y82997D01*
X768891Y83061D01*
X768821Y83123D01*
X768749Y83182D01*
X768674Y83238D01*
X768597Y83290D01*
X768518Y83340D01*
X768437Y83386D01*
X768354Y83429D01*
X768269Y83468D01*
X768183Y83504D01*
X768095Y83536D01*
X768006Y83564D01*
X767916Y83589D01*
X767825Y83610D01*
X767734Y83627D01*
X767641Y83641D01*
X767548Y83650D01*
X767455Y83656D01*
X767362Y83658D01*
X767269Y83656D01*
X767176Y83650D01*
X767083Y83641D01*
X766990Y83627D01*
X766899Y83610D01*
X766808Y83589D01*
X766718Y83564D01*
X766629Y83536D01*
X766541Y83504D01*
X766455Y83468D01*
X766370Y83429D01*
X766287Y83386D01*
X766206Y83340D01*
X766127Y83290D01*
X766050Y83238D01*
X765975Y83182D01*
X765903Y83123D01*
X765833Y83061D01*
X765765Y82997D01*
X765701Y82929D01*
X765639Y82859D01*
X765580Y82787D01*
X765524Y82712D01*
X765472Y82635D01*
X765422Y82556D01*
X765376Y82475D01*
X765333Y82392D01*
X765294Y82307D01*
X765258Y82221D01*
X765226Y82133D01*
X765198Y82044D01*
X765173Y81954D01*
X765152Y81863D01*
X765135Y81772D01*
X765121Y81679D01*
X765112Y81586D01*
X765106Y81493D01*
X765104Y81400D01*
X765104Y79142D01*
D10*
X726600Y86500D02*
X722100Y86500D01*
X722100Y40500D01*
X726600Y40500D01*
X746600Y40500D02*
X751100Y40500D01*
X751100Y86500D01*
X746600Y86500D01*
X746600Y31750D02*
X726600Y31750D01*
D11*
X718820Y43342D02*
X708660Y43342D01*
X718820Y43342D02*
X718820Y46165D01*
X718818Y46271D01*
X718812Y46376D01*
X718802Y46481D01*
X718788Y46586D01*
X718771Y46690D01*
X718749Y46793D01*
X718724Y46895D01*
X718695Y46997D01*
X718662Y47097D01*
X718625Y47196D01*
X718585Y47294D01*
X718541Y47389D01*
X718493Y47484D01*
X718442Y47576D01*
X718387Y47666D01*
X718330Y47755D01*
X718269Y47841D01*
X718204Y47924D01*
X718137Y48006D01*
X718067Y48084D01*
X717993Y48160D01*
X717917Y48234D01*
X717839Y48304D01*
X717757Y48371D01*
X717674Y48436D01*
X717588Y48497D01*
X717499Y48554D01*
X717409Y48609D01*
X717317Y48660D01*
X717222Y48708D01*
X717126Y48752D01*
X717029Y48792D01*
X716930Y48829D01*
X716830Y48862D01*
X716728Y48891D01*
X716626Y48916D01*
X716523Y48938D01*
X716419Y48955D01*
X716314Y48969D01*
X716209Y48979D01*
X716103Y48985D01*
X715998Y48987D01*
X711482Y48987D01*
X711482Y48986D02*
X711376Y48984D01*
X711271Y48978D01*
X711166Y48968D01*
X711061Y48954D01*
X710957Y48937D01*
X710854Y48915D01*
X710752Y48890D01*
X710650Y48861D01*
X710550Y48828D01*
X710451Y48791D01*
X710354Y48751D01*
X710258Y48707D01*
X710163Y48659D01*
X710071Y48608D01*
X709981Y48553D01*
X709892Y48496D01*
X709806Y48435D01*
X709723Y48370D01*
X709641Y48303D01*
X709563Y48233D01*
X709487Y48159D01*
X709413Y48083D01*
X709343Y48005D01*
X709276Y47924D01*
X709211Y47840D01*
X709150Y47754D01*
X709093Y47665D01*
X709038Y47575D01*
X708987Y47483D01*
X708939Y47388D01*
X708895Y47293D01*
X708855Y47195D01*
X708818Y47096D01*
X708785Y46996D01*
X708756Y46894D01*
X708731Y46792D01*
X708709Y46689D01*
X708692Y46585D01*
X708678Y46480D01*
X708668Y46375D01*
X708662Y46270D01*
X708660Y46164D01*
X708660Y46165D02*
X708660Y43342D01*
X716562Y55153D02*
X718820Y57976D01*
X708660Y57976D01*
X708660Y60798D02*
X708660Y55153D01*
X713740Y66583D02*
X713940Y66585D01*
X714140Y66593D01*
X714339Y66604D01*
X714538Y66621D01*
X714737Y66643D01*
X714935Y66669D01*
X715133Y66700D01*
X715329Y66735D01*
X715525Y66776D01*
X715720Y66820D01*
X715914Y66870D01*
X716106Y66924D01*
X716297Y66983D01*
X716487Y67046D01*
X716675Y67114D01*
X716861Y67186D01*
X717046Y67263D01*
X717228Y67344D01*
X717409Y67430D01*
X717409Y67431D02*
X717493Y67462D01*
X717575Y67496D01*
X717656Y67534D01*
X717736Y67575D01*
X717813Y67620D01*
X717888Y67667D01*
X717962Y67718D01*
X718033Y67773D01*
X718101Y67830D01*
X718168Y67890D01*
X718231Y67953D01*
X718292Y68018D01*
X718350Y68086D01*
X718405Y68156D01*
X718457Y68229D01*
X718505Y68304D01*
X718551Y68381D01*
X718593Y68459D01*
X718632Y68540D01*
X718667Y68622D01*
X718699Y68705D01*
X718727Y68790D01*
X718752Y68876D01*
X718772Y68963D01*
X718790Y69050D01*
X718803Y69139D01*
X718812Y69228D01*
X718818Y69317D01*
X718820Y69406D01*
X718818Y69495D01*
X718812Y69584D01*
X718803Y69673D01*
X718790Y69762D01*
X718772Y69849D01*
X718752Y69936D01*
X718727Y70022D01*
X718699Y70107D01*
X718667Y70190D01*
X718632Y70272D01*
X718593Y70353D01*
X718551Y70431D01*
X718505Y70508D01*
X718457Y70583D01*
X718405Y70656D01*
X718350Y70726D01*
X718292Y70794D01*
X718231Y70860D01*
X718167Y70922D01*
X718101Y70982D01*
X718033Y71039D01*
X717962Y71094D01*
X717888Y71145D01*
X717813Y71192D01*
X717736Y71237D01*
X717656Y71278D01*
X717575Y71316D01*
X717493Y71350D01*
X717409Y71381D01*
X717409Y71380D02*
X717228Y71466D01*
X717045Y71547D01*
X716861Y71624D01*
X716674Y71696D01*
X716486Y71764D01*
X716297Y71827D01*
X716106Y71886D01*
X715913Y71940D01*
X715720Y71990D01*
X715525Y72034D01*
X715329Y72075D01*
X715133Y72110D01*
X714935Y72141D01*
X714737Y72167D01*
X714538Y72189D01*
X714339Y72206D01*
X714140Y72217D01*
X713940Y72225D01*
X713740Y72227D01*
X713740Y66583D02*
X713540Y66585D01*
X713340Y66593D01*
X713141Y66604D01*
X712942Y66621D01*
X712743Y66643D01*
X712545Y66669D01*
X712347Y66700D01*
X712151Y66735D01*
X711955Y66776D01*
X711760Y66820D01*
X711566Y66870D01*
X711374Y66924D01*
X711183Y66983D01*
X710993Y67046D01*
X710805Y67114D01*
X710619Y67186D01*
X710434Y67263D01*
X710252Y67344D01*
X710071Y67430D01*
X710071Y67431D02*
X709987Y67462D01*
X709905Y67496D01*
X709824Y67534D01*
X709744Y67575D01*
X709667Y67620D01*
X709592Y67667D01*
X709518Y67719D01*
X709447Y67773D01*
X709379Y67830D01*
X709312Y67890D01*
X709249Y67953D01*
X709188Y68018D01*
X709130Y68086D01*
X709075Y68156D01*
X709023Y68229D01*
X708975Y68304D01*
X708929Y68381D01*
X708887Y68459D01*
X708848Y68540D01*
X708813Y68622D01*
X708781Y68705D01*
X708753Y68790D01*
X708728Y68876D01*
X708708Y68963D01*
X708690Y69050D01*
X708677Y69139D01*
X708668Y69228D01*
X708662Y69317D01*
X708660Y69406D01*
X710071Y71381D02*
X710252Y71467D01*
X710434Y71548D01*
X710619Y71625D01*
X710805Y71697D01*
X710993Y71765D01*
X711183Y71828D01*
X711374Y71887D01*
X711566Y71941D01*
X711760Y71991D01*
X711955Y72035D01*
X712151Y72076D01*
X712347Y72111D01*
X712545Y72142D01*
X712743Y72168D01*
X712942Y72190D01*
X713141Y72207D01*
X713340Y72218D01*
X713540Y72226D01*
X713740Y72228D01*
X710071Y71381D02*
X709987Y71350D01*
X709905Y71316D01*
X709824Y71278D01*
X709744Y71237D01*
X709667Y71192D01*
X709592Y71145D01*
X709518Y71094D01*
X709447Y71039D01*
X709379Y70982D01*
X709312Y70922D01*
X709249Y70859D01*
X709188Y70794D01*
X709130Y70726D01*
X709075Y70656D01*
X709023Y70583D01*
X708975Y70508D01*
X708929Y70431D01*
X708887Y70353D01*
X708848Y70272D01*
X708813Y70190D01*
X708781Y70107D01*
X708753Y70022D01*
X708728Y69936D01*
X708708Y69849D01*
X708690Y69762D01*
X708677Y69673D01*
X708668Y69584D01*
X708662Y69495D01*
X708660Y69406D01*
X710918Y67148D02*
X716562Y71663D01*
X710918Y78013D02*
X718820Y80271D01*
X710918Y78013D02*
X710918Y83658D01*
X713176Y81964D02*
X708660Y81964D01*
D10*
X675800Y86500D02*
X671300Y86500D01*
X671300Y40500D01*
X675800Y40500D01*
X695800Y40500D02*
X700300Y40500D01*
X700300Y86500D01*
X695800Y86500D01*
X695800Y31750D02*
X675800Y31750D01*
D11*
X668020Y43342D02*
X657860Y43342D01*
X668020Y43342D02*
X668020Y46165D01*
X668018Y46271D01*
X668012Y46376D01*
X668002Y46481D01*
X667988Y46586D01*
X667971Y46690D01*
X667949Y46793D01*
X667924Y46895D01*
X667895Y46997D01*
X667862Y47097D01*
X667825Y47196D01*
X667785Y47294D01*
X667741Y47389D01*
X667693Y47484D01*
X667642Y47576D01*
X667587Y47666D01*
X667530Y47755D01*
X667469Y47841D01*
X667404Y47924D01*
X667337Y48006D01*
X667267Y48084D01*
X667193Y48160D01*
X667117Y48234D01*
X667039Y48304D01*
X666957Y48371D01*
X666874Y48436D01*
X666788Y48497D01*
X666699Y48554D01*
X666609Y48609D01*
X666517Y48660D01*
X666422Y48708D01*
X666326Y48752D01*
X666229Y48792D01*
X666130Y48829D01*
X666030Y48862D01*
X665928Y48891D01*
X665826Y48916D01*
X665723Y48938D01*
X665619Y48955D01*
X665514Y48969D01*
X665409Y48979D01*
X665303Y48985D01*
X665198Y48987D01*
X660682Y48987D01*
X660682Y48986D02*
X660576Y48984D01*
X660471Y48978D01*
X660366Y48968D01*
X660261Y48954D01*
X660157Y48937D01*
X660054Y48915D01*
X659952Y48890D01*
X659850Y48861D01*
X659750Y48828D01*
X659651Y48791D01*
X659554Y48751D01*
X659458Y48707D01*
X659363Y48659D01*
X659271Y48608D01*
X659181Y48553D01*
X659092Y48496D01*
X659006Y48435D01*
X658923Y48370D01*
X658841Y48303D01*
X658763Y48233D01*
X658687Y48159D01*
X658613Y48083D01*
X658543Y48005D01*
X658476Y47924D01*
X658411Y47840D01*
X658350Y47754D01*
X658293Y47665D01*
X658238Y47575D01*
X658187Y47483D01*
X658139Y47388D01*
X658095Y47293D01*
X658055Y47195D01*
X658018Y47096D01*
X657985Y46996D01*
X657956Y46894D01*
X657931Y46792D01*
X657909Y46689D01*
X657892Y46585D01*
X657878Y46480D01*
X657868Y46375D01*
X657862Y46270D01*
X657860Y46164D01*
X657860Y46165D02*
X657860Y43342D01*
X665762Y55153D02*
X668020Y57976D01*
X657860Y57976D01*
X657860Y60798D02*
X657860Y55153D01*
X662940Y66583D02*
X663140Y66585D01*
X663340Y66593D01*
X663539Y66604D01*
X663738Y66621D01*
X663937Y66643D01*
X664135Y66669D01*
X664333Y66700D01*
X664529Y66735D01*
X664725Y66776D01*
X664920Y66820D01*
X665114Y66870D01*
X665306Y66924D01*
X665497Y66983D01*
X665687Y67046D01*
X665875Y67114D01*
X666061Y67186D01*
X666246Y67263D01*
X666428Y67344D01*
X666609Y67430D01*
X666609Y67431D02*
X666693Y67462D01*
X666775Y67496D01*
X666856Y67534D01*
X666936Y67575D01*
X667013Y67620D01*
X667088Y67667D01*
X667162Y67718D01*
X667233Y67773D01*
X667301Y67830D01*
X667368Y67890D01*
X667431Y67953D01*
X667492Y68018D01*
X667550Y68086D01*
X667605Y68156D01*
X667657Y68229D01*
X667705Y68304D01*
X667751Y68381D01*
X667793Y68459D01*
X667832Y68540D01*
X667867Y68622D01*
X667899Y68705D01*
X667927Y68790D01*
X667952Y68876D01*
X667972Y68963D01*
X667990Y69050D01*
X668003Y69139D01*
X668012Y69228D01*
X668018Y69317D01*
X668020Y69406D01*
X668018Y69495D01*
X668012Y69584D01*
X668003Y69673D01*
X667990Y69762D01*
X667972Y69849D01*
X667952Y69936D01*
X667927Y70022D01*
X667899Y70107D01*
X667867Y70190D01*
X667832Y70272D01*
X667793Y70353D01*
X667751Y70431D01*
X667705Y70508D01*
X667657Y70583D01*
X667605Y70656D01*
X667550Y70726D01*
X667492Y70794D01*
X667431Y70860D01*
X667367Y70922D01*
X667301Y70982D01*
X667233Y71039D01*
X667162Y71094D01*
X667088Y71145D01*
X667013Y71192D01*
X666936Y71237D01*
X666856Y71278D01*
X666775Y71316D01*
X666693Y71350D01*
X666609Y71381D01*
X666609Y71380D02*
X666428Y71466D01*
X666245Y71547D01*
X666061Y71624D01*
X665874Y71696D01*
X665686Y71764D01*
X665497Y71827D01*
X665306Y71886D01*
X665113Y71940D01*
X664920Y71990D01*
X664725Y72034D01*
X664529Y72075D01*
X664333Y72110D01*
X664135Y72141D01*
X663937Y72167D01*
X663738Y72189D01*
X663539Y72206D01*
X663340Y72217D01*
X663140Y72225D01*
X662940Y72227D01*
X662940Y66583D02*
X662740Y66585D01*
X662540Y66593D01*
X662341Y66604D01*
X662142Y66621D01*
X661943Y66643D01*
X661745Y66669D01*
X661547Y66700D01*
X661351Y66735D01*
X661155Y66776D01*
X660960Y66820D01*
X660766Y66870D01*
X660574Y66924D01*
X660383Y66983D01*
X660193Y67046D01*
X660005Y67114D01*
X659819Y67186D01*
X659634Y67263D01*
X659452Y67344D01*
X659271Y67430D01*
X659271Y67431D02*
X659187Y67462D01*
X659105Y67496D01*
X659024Y67534D01*
X658944Y67575D01*
X658867Y67620D01*
X658792Y67667D01*
X658718Y67719D01*
X658647Y67773D01*
X658579Y67830D01*
X658512Y67890D01*
X658449Y67953D01*
X658388Y68018D01*
X658330Y68086D01*
X658275Y68156D01*
X658223Y68229D01*
X658175Y68304D01*
X658129Y68381D01*
X658087Y68459D01*
X658048Y68540D01*
X658013Y68622D01*
X657981Y68705D01*
X657953Y68790D01*
X657928Y68876D01*
X657908Y68963D01*
X657890Y69050D01*
X657877Y69139D01*
X657868Y69228D01*
X657862Y69317D01*
X657860Y69406D01*
X659271Y71381D02*
X659452Y71467D01*
X659634Y71548D01*
X659819Y71625D01*
X660005Y71697D01*
X660193Y71765D01*
X660383Y71828D01*
X660574Y71887D01*
X660766Y71941D01*
X660960Y71991D01*
X661155Y72035D01*
X661351Y72076D01*
X661547Y72111D01*
X661745Y72142D01*
X661943Y72168D01*
X662142Y72190D01*
X662341Y72207D01*
X662540Y72218D01*
X662740Y72226D01*
X662940Y72228D01*
X659271Y71381D02*
X659187Y71350D01*
X659105Y71316D01*
X659024Y71278D01*
X658944Y71237D01*
X658867Y71192D01*
X658792Y71145D01*
X658718Y71094D01*
X658647Y71039D01*
X658579Y70982D01*
X658512Y70922D01*
X658449Y70859D01*
X658388Y70794D01*
X658330Y70726D01*
X658275Y70656D01*
X658223Y70583D01*
X658175Y70508D01*
X658129Y70431D01*
X658087Y70353D01*
X658048Y70272D01*
X658013Y70190D01*
X657981Y70107D01*
X657953Y70022D01*
X657928Y69936D01*
X657908Y69849D01*
X657890Y69762D01*
X657877Y69673D01*
X657868Y69584D01*
X657862Y69495D01*
X657860Y69406D01*
X660118Y67148D02*
X665762Y71663D01*
X657860Y78013D02*
X657860Y81400D01*
X657862Y81493D01*
X657868Y81586D01*
X657877Y81679D01*
X657891Y81772D01*
X657908Y81863D01*
X657929Y81954D01*
X657954Y82044D01*
X657982Y82133D01*
X658014Y82221D01*
X658050Y82307D01*
X658089Y82392D01*
X658132Y82475D01*
X658178Y82556D01*
X658228Y82635D01*
X658280Y82712D01*
X658336Y82787D01*
X658395Y82859D01*
X658457Y82929D01*
X658521Y82997D01*
X658589Y83061D01*
X658659Y83123D01*
X658731Y83182D01*
X658806Y83238D01*
X658883Y83290D01*
X658962Y83340D01*
X659043Y83386D01*
X659126Y83429D01*
X659211Y83468D01*
X659297Y83504D01*
X659385Y83536D01*
X659474Y83564D01*
X659564Y83589D01*
X659655Y83610D01*
X659746Y83627D01*
X659839Y83641D01*
X659932Y83650D01*
X660025Y83656D01*
X660118Y83658D01*
X661247Y83658D01*
X661340Y83656D01*
X661433Y83650D01*
X661526Y83641D01*
X661619Y83627D01*
X661710Y83610D01*
X661801Y83589D01*
X661891Y83564D01*
X661980Y83536D01*
X662068Y83504D01*
X662154Y83468D01*
X662239Y83429D01*
X662322Y83386D01*
X662403Y83340D01*
X662482Y83290D01*
X662559Y83238D01*
X662634Y83182D01*
X662706Y83123D01*
X662776Y83061D01*
X662844Y82997D01*
X662908Y82929D01*
X662970Y82859D01*
X663029Y82787D01*
X663085Y82712D01*
X663137Y82635D01*
X663187Y82556D01*
X663233Y82475D01*
X663276Y82392D01*
X663315Y82307D01*
X663351Y82221D01*
X663383Y82133D01*
X663411Y82044D01*
X663436Y81954D01*
X663457Y81863D01*
X663474Y81772D01*
X663488Y81679D01*
X663497Y81586D01*
X663503Y81493D01*
X663505Y81400D01*
X663504Y81400D02*
X663504Y78013D01*
X668020Y78013D01*
X668020Y83658D01*
D10*
X625000Y86500D02*
X620500Y86500D01*
X620500Y40500D01*
X625000Y40500D01*
X645000Y40500D02*
X649500Y40500D01*
X649500Y86500D01*
X645000Y86500D01*
X645000Y31750D02*
X625000Y31750D01*
D11*
X617220Y43342D02*
X607060Y43342D01*
X617220Y43342D02*
X617220Y46165D01*
X617218Y46271D01*
X617212Y46376D01*
X617202Y46481D01*
X617188Y46586D01*
X617171Y46690D01*
X617149Y46793D01*
X617124Y46895D01*
X617095Y46997D01*
X617062Y47097D01*
X617025Y47196D01*
X616985Y47294D01*
X616941Y47389D01*
X616893Y47484D01*
X616842Y47576D01*
X616787Y47666D01*
X616730Y47755D01*
X616669Y47841D01*
X616604Y47924D01*
X616537Y48006D01*
X616467Y48084D01*
X616393Y48160D01*
X616317Y48234D01*
X616239Y48304D01*
X616157Y48371D01*
X616074Y48436D01*
X615988Y48497D01*
X615899Y48554D01*
X615809Y48609D01*
X615717Y48660D01*
X615622Y48708D01*
X615526Y48752D01*
X615429Y48792D01*
X615330Y48829D01*
X615230Y48862D01*
X615128Y48891D01*
X615026Y48916D01*
X614923Y48938D01*
X614819Y48955D01*
X614714Y48969D01*
X614609Y48979D01*
X614503Y48985D01*
X614398Y48987D01*
X609882Y48987D01*
X609882Y48986D02*
X609776Y48984D01*
X609671Y48978D01*
X609566Y48968D01*
X609461Y48954D01*
X609357Y48937D01*
X609254Y48915D01*
X609152Y48890D01*
X609050Y48861D01*
X608950Y48828D01*
X608851Y48791D01*
X608754Y48751D01*
X608658Y48707D01*
X608563Y48659D01*
X608471Y48608D01*
X608381Y48553D01*
X608292Y48496D01*
X608206Y48435D01*
X608123Y48370D01*
X608041Y48303D01*
X607963Y48233D01*
X607887Y48159D01*
X607813Y48083D01*
X607743Y48005D01*
X607676Y47924D01*
X607611Y47840D01*
X607550Y47754D01*
X607493Y47665D01*
X607438Y47575D01*
X607387Y47483D01*
X607339Y47388D01*
X607295Y47293D01*
X607255Y47195D01*
X607218Y47096D01*
X607185Y46996D01*
X607156Y46894D01*
X607131Y46792D01*
X607109Y46689D01*
X607092Y46585D01*
X607078Y46480D01*
X607068Y46375D01*
X607062Y46270D01*
X607060Y46164D01*
X607060Y46165D02*
X607060Y43342D01*
X614962Y55153D02*
X617220Y57976D01*
X607060Y57976D01*
X607060Y60798D02*
X607060Y55153D01*
X612140Y66583D02*
X612340Y66585D01*
X612540Y66593D01*
X612739Y66604D01*
X612938Y66621D01*
X613137Y66643D01*
X613335Y66669D01*
X613533Y66700D01*
X613729Y66735D01*
X613925Y66776D01*
X614120Y66820D01*
X614314Y66870D01*
X614506Y66924D01*
X614697Y66983D01*
X614887Y67046D01*
X615075Y67114D01*
X615261Y67186D01*
X615446Y67263D01*
X615628Y67344D01*
X615809Y67430D01*
X615809Y67431D02*
X615893Y67462D01*
X615975Y67496D01*
X616056Y67534D01*
X616136Y67575D01*
X616213Y67620D01*
X616288Y67667D01*
X616362Y67718D01*
X616433Y67773D01*
X616501Y67830D01*
X616568Y67890D01*
X616631Y67953D01*
X616692Y68018D01*
X616750Y68086D01*
X616805Y68156D01*
X616857Y68229D01*
X616905Y68304D01*
X616951Y68381D01*
X616993Y68459D01*
X617032Y68540D01*
X617067Y68622D01*
X617099Y68705D01*
X617127Y68790D01*
X617152Y68876D01*
X617172Y68963D01*
X617190Y69050D01*
X617203Y69139D01*
X617212Y69228D01*
X617218Y69317D01*
X617220Y69406D01*
X617218Y69495D01*
X617212Y69584D01*
X617203Y69673D01*
X617190Y69762D01*
X617172Y69849D01*
X617152Y69936D01*
X617127Y70022D01*
X617099Y70107D01*
X617067Y70190D01*
X617032Y70272D01*
X616993Y70353D01*
X616951Y70431D01*
X616905Y70508D01*
X616857Y70583D01*
X616805Y70656D01*
X616750Y70726D01*
X616692Y70794D01*
X616631Y70860D01*
X616567Y70922D01*
X616501Y70982D01*
X616433Y71039D01*
X616362Y71094D01*
X616288Y71145D01*
X616213Y71192D01*
X616136Y71237D01*
X616056Y71278D01*
X615975Y71316D01*
X615893Y71350D01*
X615809Y71381D01*
X615809Y71380D02*
X615628Y71466D01*
X615445Y71547D01*
X615261Y71624D01*
X615074Y71696D01*
X614886Y71764D01*
X614697Y71827D01*
X614506Y71886D01*
X614313Y71940D01*
X614120Y71990D01*
X613925Y72034D01*
X613729Y72075D01*
X613533Y72110D01*
X613335Y72141D01*
X613137Y72167D01*
X612938Y72189D01*
X612739Y72206D01*
X612540Y72217D01*
X612340Y72225D01*
X612140Y72227D01*
X612140Y66583D02*
X611940Y66585D01*
X611740Y66593D01*
X611541Y66604D01*
X611342Y66621D01*
X611143Y66643D01*
X610945Y66669D01*
X610747Y66700D01*
X610551Y66735D01*
X610355Y66776D01*
X610160Y66820D01*
X609966Y66870D01*
X609774Y66924D01*
X609583Y66983D01*
X609393Y67046D01*
X609205Y67114D01*
X609019Y67186D01*
X608834Y67263D01*
X608652Y67344D01*
X608471Y67430D01*
X608471Y67431D02*
X608387Y67462D01*
X608305Y67496D01*
X608224Y67534D01*
X608144Y67575D01*
X608067Y67620D01*
X607992Y67667D01*
X607918Y67719D01*
X607847Y67773D01*
X607779Y67830D01*
X607712Y67890D01*
X607649Y67953D01*
X607588Y68018D01*
X607530Y68086D01*
X607475Y68156D01*
X607423Y68229D01*
X607375Y68304D01*
X607329Y68381D01*
X607287Y68459D01*
X607248Y68540D01*
X607213Y68622D01*
X607181Y68705D01*
X607153Y68790D01*
X607128Y68876D01*
X607108Y68963D01*
X607090Y69050D01*
X607077Y69139D01*
X607068Y69228D01*
X607062Y69317D01*
X607060Y69406D01*
X608471Y71381D02*
X608652Y71467D01*
X608834Y71548D01*
X609019Y71625D01*
X609205Y71697D01*
X609393Y71765D01*
X609583Y71828D01*
X609774Y71887D01*
X609966Y71941D01*
X610160Y71991D01*
X610355Y72035D01*
X610551Y72076D01*
X610747Y72111D01*
X610945Y72142D01*
X611143Y72168D01*
X611342Y72190D01*
X611541Y72207D01*
X611740Y72218D01*
X611940Y72226D01*
X612140Y72228D01*
X608471Y71381D02*
X608387Y71350D01*
X608305Y71316D01*
X608224Y71278D01*
X608144Y71237D01*
X608067Y71192D01*
X607992Y71145D01*
X607918Y71094D01*
X607847Y71039D01*
X607779Y70982D01*
X607712Y70922D01*
X607649Y70859D01*
X607588Y70794D01*
X607530Y70726D01*
X607475Y70656D01*
X607423Y70583D01*
X607375Y70508D01*
X607329Y70431D01*
X607287Y70353D01*
X607248Y70272D01*
X607213Y70190D01*
X607181Y70107D01*
X607153Y70022D01*
X607128Y69936D01*
X607108Y69849D01*
X607090Y69762D01*
X607077Y69673D01*
X607068Y69584D01*
X607062Y69495D01*
X607060Y69406D01*
X609318Y67148D02*
X614962Y71663D01*
X612704Y78013D02*
X612704Y81400D01*
X612705Y81400D02*
X612703Y81493D01*
X612697Y81586D01*
X612688Y81679D01*
X612674Y81772D01*
X612657Y81863D01*
X612636Y81954D01*
X612611Y82044D01*
X612583Y82133D01*
X612551Y82221D01*
X612515Y82307D01*
X612476Y82392D01*
X612433Y82475D01*
X612387Y82556D01*
X612337Y82635D01*
X612285Y82712D01*
X612229Y82787D01*
X612170Y82859D01*
X612108Y82929D01*
X612044Y82997D01*
X611976Y83061D01*
X611906Y83123D01*
X611834Y83182D01*
X611759Y83238D01*
X611682Y83290D01*
X611603Y83340D01*
X611522Y83386D01*
X611439Y83429D01*
X611354Y83468D01*
X611268Y83504D01*
X611180Y83536D01*
X611091Y83564D01*
X611001Y83589D01*
X610910Y83610D01*
X610819Y83627D01*
X610726Y83641D01*
X610633Y83650D01*
X610540Y83656D01*
X610447Y83658D01*
X609882Y83658D01*
X609776Y83656D01*
X609671Y83650D01*
X609566Y83640D01*
X609461Y83626D01*
X609357Y83609D01*
X609254Y83587D01*
X609152Y83562D01*
X609050Y83533D01*
X608950Y83500D01*
X608851Y83463D01*
X608754Y83423D01*
X608658Y83379D01*
X608563Y83331D01*
X608471Y83280D01*
X608381Y83225D01*
X608292Y83168D01*
X608206Y83107D01*
X608123Y83042D01*
X608041Y82975D01*
X607963Y82905D01*
X607887Y82831D01*
X607813Y82755D01*
X607743Y82677D01*
X607676Y82595D01*
X607611Y82512D01*
X607550Y82426D01*
X607493Y82337D01*
X607438Y82247D01*
X607387Y82155D01*
X607339Y82060D01*
X607295Y81964D01*
X607255Y81867D01*
X607218Y81768D01*
X607185Y81668D01*
X607156Y81566D01*
X607131Y81464D01*
X607109Y81361D01*
X607092Y81257D01*
X607078Y81152D01*
X607068Y81047D01*
X607062Y80942D01*
X607060Y80836D01*
X607062Y80730D01*
X607068Y80625D01*
X607078Y80520D01*
X607092Y80415D01*
X607109Y80311D01*
X607131Y80208D01*
X607156Y80106D01*
X607185Y80004D01*
X607218Y79904D01*
X607255Y79805D01*
X607295Y79708D01*
X607339Y79612D01*
X607387Y79517D01*
X607438Y79425D01*
X607493Y79335D01*
X607550Y79246D01*
X607611Y79160D01*
X607676Y79077D01*
X607743Y78995D01*
X607813Y78917D01*
X607887Y78841D01*
X607963Y78767D01*
X608041Y78697D01*
X608123Y78630D01*
X608206Y78565D01*
X608292Y78504D01*
X608381Y78447D01*
X608471Y78392D01*
X608563Y78341D01*
X608658Y78293D01*
X608754Y78249D01*
X608851Y78209D01*
X608950Y78172D01*
X609050Y78139D01*
X609152Y78110D01*
X609254Y78085D01*
X609357Y78063D01*
X609461Y78046D01*
X609566Y78032D01*
X609671Y78022D01*
X609776Y78016D01*
X609882Y78014D01*
X609882Y78013D02*
X612704Y78013D01*
X612838Y78015D01*
X612972Y78021D01*
X613105Y78031D01*
X613238Y78045D01*
X613371Y78062D01*
X613503Y78084D01*
X613634Y78110D01*
X613765Y78139D01*
X613894Y78173D01*
X614023Y78210D01*
X614150Y78251D01*
X614276Y78296D01*
X614401Y78344D01*
X614524Y78396D01*
X614646Y78452D01*
X614766Y78511D01*
X614884Y78574D01*
X615001Y78641D01*
X615115Y78710D01*
X615227Y78783D01*
X615337Y78860D01*
X615444Y78939D01*
X615549Y79022D01*
X615652Y79108D01*
X615752Y79197D01*
X615850Y79289D01*
X615944Y79383D01*
X616036Y79481D01*
X616125Y79581D01*
X616211Y79684D01*
X616294Y79789D01*
X616373Y79896D01*
X616450Y80006D01*
X616523Y80118D01*
X616592Y80232D01*
X616659Y80349D01*
X616722Y80467D01*
X616781Y80587D01*
X616837Y80708D01*
X616889Y80832D01*
X616937Y80956D01*
X616982Y81083D01*
X617023Y81210D01*
X617060Y81339D01*
X617094Y81468D01*
X617123Y81599D01*
X617149Y81730D01*
X617171Y81862D01*
X617188Y81995D01*
X617202Y82128D01*
X617212Y82261D01*
X617218Y82395D01*
X617220Y82529D01*
D12*
X149400Y920600D02*
X104600Y920600D01*
X104600Y959000D02*
X149400Y959000D01*
X137922Y961898D02*
X137922Y973582D01*
X134676Y973582D01*
X134563Y973580D01*
X134450Y973574D01*
X134337Y973564D01*
X134224Y973550D01*
X134112Y973533D01*
X134001Y973511D01*
X133891Y973486D01*
X133781Y973456D01*
X133673Y973423D01*
X133566Y973386D01*
X133460Y973346D01*
X133356Y973301D01*
X133253Y973253D01*
X133152Y973202D01*
X133053Y973147D01*
X132956Y973089D01*
X132861Y973027D01*
X132768Y972962D01*
X132678Y972894D01*
X132590Y972823D01*
X132504Y972748D01*
X132421Y972671D01*
X132341Y972591D01*
X132264Y972508D01*
X132189Y972422D01*
X132118Y972334D01*
X132050Y972244D01*
X131985Y972151D01*
X131923Y972056D01*
X131865Y971959D01*
X131810Y971860D01*
X131759Y971759D01*
X131711Y971656D01*
X131666Y971552D01*
X131626Y971446D01*
X131589Y971339D01*
X131556Y971231D01*
X131526Y971121D01*
X131501Y971011D01*
X131479Y970900D01*
X131462Y970788D01*
X131448Y970675D01*
X131438Y970562D01*
X131432Y970449D01*
X131430Y970336D01*
X131431Y970336D02*
X131431Y965144D01*
X131430Y965144D02*
X131432Y965031D01*
X131438Y964918D01*
X131448Y964805D01*
X131462Y964692D01*
X131479Y964580D01*
X131501Y964469D01*
X131526Y964359D01*
X131556Y964249D01*
X131589Y964141D01*
X131626Y964034D01*
X131666Y963928D01*
X131711Y963824D01*
X131759Y963721D01*
X131810Y963620D01*
X131865Y963521D01*
X131923Y963424D01*
X131985Y963329D01*
X132050Y963236D01*
X132118Y963146D01*
X132189Y963058D01*
X132264Y962972D01*
X132341Y962889D01*
X132421Y962809D01*
X132504Y962732D01*
X132590Y962657D01*
X132678Y962586D01*
X132768Y962518D01*
X132861Y962453D01*
X132956Y962391D01*
X133053Y962333D01*
X133152Y962278D01*
X133253Y962227D01*
X133356Y962179D01*
X133460Y962134D01*
X133566Y962094D01*
X133673Y962057D01*
X133781Y962024D01*
X133891Y961994D01*
X134001Y961969D01*
X134112Y961947D01*
X134224Y961930D01*
X134337Y961916D01*
X134450Y961906D01*
X134563Y961900D01*
X134676Y961898D01*
X137922Y961898D01*
X126111Y970986D02*
X122866Y973582D01*
X122866Y961898D01*
X126111Y961898D02*
X119620Y961898D01*
X114682Y967740D02*
X114679Y967970D01*
X114671Y968200D01*
X114657Y968429D01*
X114638Y968658D01*
X114613Y968887D01*
X114583Y969115D01*
X114548Y969342D01*
X114507Y969568D01*
X114461Y969793D01*
X114409Y970017D01*
X114352Y970240D01*
X114290Y970461D01*
X114222Y970681D01*
X114149Y970899D01*
X114071Y971115D01*
X113988Y971329D01*
X113900Y971542D01*
X113807Y971752D01*
X113708Y971959D01*
X113675Y972049D01*
X113639Y972138D01*
X113599Y972226D01*
X113555Y972311D01*
X113508Y972395D01*
X113458Y972477D01*
X113404Y972557D01*
X113348Y972634D01*
X113288Y972710D01*
X113225Y972783D01*
X113160Y972853D01*
X113091Y972921D01*
X113020Y972985D01*
X112947Y973047D01*
X112871Y973106D01*
X112793Y973162D01*
X112712Y973215D01*
X112630Y973264D01*
X112546Y973310D01*
X112459Y973353D01*
X112372Y973392D01*
X112282Y973428D01*
X112192Y973460D01*
X112100Y973488D01*
X112007Y973513D01*
X111913Y973534D01*
X111819Y973551D01*
X111724Y973565D01*
X111628Y973574D01*
X111532Y973580D01*
X111436Y973582D01*
X111340Y973580D01*
X111244Y973574D01*
X111148Y973565D01*
X111053Y973551D01*
X110959Y973534D01*
X110865Y973513D01*
X110772Y973488D01*
X110680Y973460D01*
X110590Y973428D01*
X110500Y973392D01*
X110413Y973353D01*
X110326Y973310D01*
X110242Y973264D01*
X110160Y973215D01*
X110079Y973162D01*
X110001Y973106D01*
X109925Y973047D01*
X109852Y972985D01*
X109781Y972921D01*
X109712Y972853D01*
X109647Y972783D01*
X109584Y972710D01*
X109524Y972635D01*
X109468Y972557D01*
X109414Y972477D01*
X109364Y972395D01*
X109317Y972311D01*
X109274Y972226D01*
X109233Y972138D01*
X109197Y972049D01*
X109164Y971959D01*
X109065Y971751D01*
X108972Y971541D01*
X108884Y971329D01*
X108801Y971115D01*
X108723Y970898D01*
X108650Y970680D01*
X108582Y970461D01*
X108520Y970239D01*
X108463Y970017D01*
X108411Y969793D01*
X108365Y969568D01*
X108324Y969342D01*
X108289Y969114D01*
X108259Y968887D01*
X108234Y968658D01*
X108215Y968429D01*
X108201Y968200D01*
X108193Y967970D01*
X108190Y967740D01*
X114681Y967740D02*
X114678Y967510D01*
X114670Y967280D01*
X114656Y967051D01*
X114637Y966822D01*
X114612Y966593D01*
X114582Y966365D01*
X114547Y966138D01*
X114506Y965912D01*
X114460Y965687D01*
X114408Y965463D01*
X114351Y965240D01*
X114289Y965019D01*
X114221Y964799D01*
X114148Y964581D01*
X114070Y964365D01*
X113987Y964151D01*
X113899Y963939D01*
X113806Y963728D01*
X113707Y963521D01*
X113708Y963521D02*
X113675Y963431D01*
X113639Y963342D01*
X113598Y963254D01*
X113555Y963169D01*
X113508Y963085D01*
X113458Y963003D01*
X113404Y962923D01*
X113348Y962846D01*
X113288Y962770D01*
X113225Y962697D01*
X113160Y962627D01*
X113091Y962559D01*
X113020Y962495D01*
X112947Y962433D01*
X112871Y962374D01*
X112793Y962318D01*
X112712Y962265D01*
X112630Y962216D01*
X112546Y962170D01*
X112459Y962127D01*
X112372Y962088D01*
X112282Y962052D01*
X112192Y962020D01*
X112100Y961992D01*
X112007Y961967D01*
X111913Y961946D01*
X111819Y961929D01*
X111724Y961915D01*
X111628Y961906D01*
X111532Y961900D01*
X111436Y961898D01*
X109164Y963521D02*
X109065Y963728D01*
X108972Y963939D01*
X108884Y964151D01*
X108801Y964365D01*
X108723Y964581D01*
X108650Y964799D01*
X108582Y965019D01*
X108520Y965240D01*
X108463Y965463D01*
X108411Y965687D01*
X108365Y965912D01*
X108324Y966138D01*
X108289Y966365D01*
X108259Y966593D01*
X108234Y966822D01*
X108215Y967051D01*
X108201Y967280D01*
X108193Y967510D01*
X108190Y967740D01*
X109164Y963521D02*
X109197Y963431D01*
X109233Y963342D01*
X109274Y963254D01*
X109317Y963169D01*
X109364Y963085D01*
X109414Y963003D01*
X109468Y962923D01*
X109524Y962845D01*
X109584Y962770D01*
X109647Y962697D01*
X109712Y962627D01*
X109781Y962559D01*
X109852Y962495D01*
X109925Y962433D01*
X110001Y962374D01*
X110079Y962318D01*
X110160Y962265D01*
X110242Y962216D01*
X110326Y962170D01*
X110413Y962127D01*
X110500Y962088D01*
X110590Y962052D01*
X110680Y962020D01*
X110772Y961992D01*
X110865Y961967D01*
X110959Y961946D01*
X111053Y961929D01*
X111148Y961915D01*
X111244Y961906D01*
X111340Y961900D01*
X111436Y961898D01*
X114032Y964494D02*
X108839Y970986D01*
X100655Y967091D02*
X96760Y967091D01*
X100655Y967091D02*
X100754Y967093D01*
X100854Y967099D01*
X100953Y967108D01*
X101051Y967121D01*
X101149Y967138D01*
X101247Y967159D01*
X101343Y967184D01*
X101438Y967212D01*
X101532Y967244D01*
X101625Y967279D01*
X101717Y967318D01*
X101807Y967361D01*
X101895Y967406D01*
X101982Y967456D01*
X102066Y967508D01*
X102149Y967564D01*
X102229Y967622D01*
X102307Y967684D01*
X102382Y967749D01*
X102455Y967817D01*
X102525Y967887D01*
X102593Y967960D01*
X102658Y968035D01*
X102720Y968113D01*
X102778Y968193D01*
X102834Y968276D01*
X102886Y968360D01*
X102936Y968447D01*
X102981Y968535D01*
X103024Y968625D01*
X103063Y968717D01*
X103098Y968810D01*
X103130Y968904D01*
X103158Y968999D01*
X103183Y969095D01*
X103204Y969193D01*
X103221Y969291D01*
X103234Y969389D01*
X103243Y969488D01*
X103249Y969588D01*
X103251Y969687D01*
X103251Y970336D01*
X103252Y970336D02*
X103250Y970449D01*
X103244Y970562D01*
X103234Y970675D01*
X103220Y970788D01*
X103203Y970900D01*
X103181Y971011D01*
X103156Y971121D01*
X103126Y971231D01*
X103093Y971339D01*
X103056Y971446D01*
X103016Y971552D01*
X102971Y971656D01*
X102923Y971759D01*
X102872Y971860D01*
X102817Y971959D01*
X102759Y972056D01*
X102697Y972151D01*
X102632Y972244D01*
X102564Y972334D01*
X102493Y972422D01*
X102418Y972508D01*
X102341Y972591D01*
X102261Y972671D01*
X102178Y972748D01*
X102092Y972823D01*
X102004Y972894D01*
X101914Y972962D01*
X101821Y973027D01*
X101726Y973089D01*
X101629Y973147D01*
X101530Y973202D01*
X101429Y973253D01*
X101326Y973301D01*
X101222Y973346D01*
X101116Y973386D01*
X101009Y973423D01*
X100901Y973456D01*
X100791Y973486D01*
X100681Y973511D01*
X100570Y973533D01*
X100458Y973550D01*
X100345Y973564D01*
X100232Y973574D01*
X100119Y973580D01*
X100006Y973582D01*
X99893Y973580D01*
X99780Y973574D01*
X99667Y973564D01*
X99554Y973550D01*
X99442Y973533D01*
X99331Y973511D01*
X99221Y973486D01*
X99111Y973456D01*
X99003Y973423D01*
X98896Y973386D01*
X98790Y973346D01*
X98686Y973301D01*
X98583Y973253D01*
X98482Y973202D01*
X98383Y973147D01*
X98286Y973089D01*
X98191Y973027D01*
X98098Y972962D01*
X98008Y972894D01*
X97920Y972823D01*
X97834Y972748D01*
X97751Y972671D01*
X97671Y972591D01*
X97594Y972508D01*
X97519Y972422D01*
X97448Y972334D01*
X97380Y972244D01*
X97315Y972151D01*
X97253Y972056D01*
X97195Y971959D01*
X97140Y971860D01*
X97089Y971759D01*
X97041Y971656D01*
X96996Y971552D01*
X96956Y971446D01*
X96919Y971339D01*
X96886Y971231D01*
X96856Y971121D01*
X96831Y971011D01*
X96809Y970900D01*
X96792Y970788D01*
X96778Y970675D01*
X96768Y970562D01*
X96762Y970449D01*
X96760Y970336D01*
X96760Y967091D01*
X96762Y966948D01*
X96768Y966805D01*
X96778Y966662D01*
X96792Y966520D01*
X96809Y966378D01*
X96831Y966236D01*
X96856Y966095D01*
X96886Y965955D01*
X96919Y965816D01*
X96956Y965678D01*
X96997Y965541D01*
X97041Y965405D01*
X97090Y965270D01*
X97142Y965137D01*
X97197Y965005D01*
X97257Y964875D01*
X97320Y964746D01*
X97386Y964619D01*
X97456Y964495D01*
X97529Y964372D01*
X97606Y964251D01*
X97686Y964132D01*
X97769Y964016D01*
X97855Y963901D01*
X97944Y963790D01*
X98037Y963680D01*
X98132Y963574D01*
X98231Y963470D01*
X98332Y963369D01*
X98436Y963270D01*
X98542Y963175D01*
X98652Y963082D01*
X98763Y962993D01*
X98878Y962907D01*
X98994Y962824D01*
X99113Y962744D01*
X99234Y962667D01*
X99356Y962594D01*
X99481Y962524D01*
X99608Y962458D01*
X99737Y962395D01*
X99867Y962335D01*
X99999Y962280D01*
X100132Y962228D01*
X100267Y962179D01*
X100403Y962135D01*
X100540Y962094D01*
X100678Y962057D01*
X100817Y962024D01*
X100957Y961994D01*
X101098Y961969D01*
X101240Y961947D01*
X101382Y961930D01*
X101524Y961916D01*
X101667Y961906D01*
X101810Y961900D01*
X101953Y961898D01*
D13*
X964100Y52500D02*
X964100Y49000D01*
X1017100Y49000D01*
X1017100Y52500D01*
X964100Y74500D02*
X964100Y78000D01*
X1017100Y78000D01*
X1017100Y74500D01*
D14*
X952140Y63500D02*
X952142Y63563D01*
X952148Y63625D01*
X952158Y63687D01*
X952171Y63749D01*
X952189Y63809D01*
X952210Y63868D01*
X952235Y63926D01*
X952264Y63982D01*
X952296Y64036D01*
X952331Y64088D01*
X952369Y64137D01*
X952411Y64185D01*
X952455Y64229D01*
X952503Y64271D01*
X952552Y64309D01*
X952604Y64344D01*
X952658Y64376D01*
X952714Y64405D01*
X952772Y64430D01*
X952831Y64451D01*
X952891Y64469D01*
X952953Y64482D01*
X953015Y64492D01*
X953077Y64498D01*
X953140Y64500D01*
X953203Y64498D01*
X953265Y64492D01*
X953327Y64482D01*
X953389Y64469D01*
X953449Y64451D01*
X953508Y64430D01*
X953566Y64405D01*
X953622Y64376D01*
X953676Y64344D01*
X953728Y64309D01*
X953777Y64271D01*
X953825Y64229D01*
X953869Y64185D01*
X953911Y64137D01*
X953949Y64088D01*
X953984Y64036D01*
X954016Y63982D01*
X954045Y63926D01*
X954070Y63868D01*
X954091Y63809D01*
X954109Y63749D01*
X954122Y63687D01*
X954132Y63625D01*
X954138Y63563D01*
X954140Y63500D01*
X954138Y63437D01*
X954132Y63375D01*
X954122Y63313D01*
X954109Y63251D01*
X954091Y63191D01*
X954070Y63132D01*
X954045Y63074D01*
X954016Y63018D01*
X953984Y62964D01*
X953949Y62912D01*
X953911Y62863D01*
X953869Y62815D01*
X953825Y62771D01*
X953777Y62729D01*
X953728Y62691D01*
X953676Y62656D01*
X953622Y62624D01*
X953566Y62595D01*
X953508Y62570D01*
X953449Y62549D01*
X953389Y62531D01*
X953327Y62518D01*
X953265Y62508D01*
X953203Y62502D01*
X953140Y62500D01*
X953077Y62502D01*
X953015Y62508D01*
X952953Y62518D01*
X952891Y62531D01*
X952831Y62549D01*
X952772Y62570D01*
X952714Y62595D01*
X952658Y62624D01*
X952604Y62656D01*
X952552Y62691D01*
X952503Y62729D01*
X952455Y62771D01*
X952411Y62815D01*
X952369Y62863D01*
X952331Y62912D01*
X952296Y62964D01*
X952264Y63018D01*
X952235Y63074D01*
X952210Y63132D01*
X952189Y63191D01*
X952171Y63251D01*
X952158Y63313D01*
X952148Y63375D01*
X952142Y63437D01*
X952140Y63500D01*
D12*
X1024665Y42636D02*
X1024665Y30930D01*
X1024665Y42636D02*
X1021414Y42636D01*
X1021414Y42637D02*
X1021303Y42635D01*
X1021192Y42629D01*
X1021081Y42620D01*
X1020971Y42607D01*
X1020861Y42590D01*
X1020752Y42569D01*
X1020644Y42545D01*
X1020537Y42516D01*
X1020430Y42485D01*
X1020325Y42449D01*
X1020221Y42410D01*
X1020118Y42368D01*
X1020017Y42322D01*
X1019918Y42272D01*
X1019820Y42220D01*
X1019724Y42164D01*
X1019630Y42104D01*
X1019539Y42042D01*
X1019449Y41976D01*
X1019362Y41908D01*
X1019277Y41836D01*
X1019194Y41762D01*
X1019114Y41685D01*
X1019037Y41605D01*
X1018963Y41522D01*
X1018891Y41437D01*
X1018823Y41350D01*
X1018757Y41260D01*
X1018695Y41169D01*
X1018635Y41075D01*
X1018579Y40979D01*
X1018527Y40881D01*
X1018477Y40782D01*
X1018431Y40681D01*
X1018389Y40578D01*
X1018350Y40474D01*
X1018314Y40369D01*
X1018283Y40262D01*
X1018254Y40155D01*
X1018230Y40047D01*
X1018209Y39938D01*
X1018192Y39828D01*
X1018179Y39718D01*
X1018170Y39607D01*
X1018164Y39496D01*
X1018162Y39385D01*
X1018162Y34182D01*
X1018164Y34071D01*
X1018170Y33960D01*
X1018179Y33849D01*
X1018192Y33739D01*
X1018209Y33629D01*
X1018230Y33520D01*
X1018254Y33412D01*
X1018283Y33305D01*
X1018314Y33198D01*
X1018350Y33093D01*
X1018389Y32989D01*
X1018431Y32886D01*
X1018477Y32785D01*
X1018527Y32686D01*
X1018579Y32588D01*
X1018635Y32492D01*
X1018695Y32398D01*
X1018757Y32307D01*
X1018823Y32217D01*
X1018891Y32130D01*
X1018963Y32045D01*
X1019037Y31962D01*
X1019114Y31882D01*
X1019194Y31805D01*
X1019277Y31731D01*
X1019362Y31659D01*
X1019449Y31591D01*
X1019539Y31525D01*
X1019630Y31463D01*
X1019724Y31403D01*
X1019820Y31347D01*
X1019918Y31295D01*
X1020017Y31245D01*
X1020118Y31199D01*
X1020221Y31157D01*
X1020325Y31118D01*
X1020430Y31082D01*
X1020537Y31051D01*
X1020644Y31022D01*
X1020752Y30998D01*
X1020861Y30977D01*
X1020971Y30960D01*
X1021081Y30947D01*
X1021192Y30938D01*
X1021303Y30932D01*
X1021414Y30930D01*
X1024665Y30930D01*
X1012834Y40035D02*
X1009582Y42636D01*
X1009582Y30930D01*
X1012834Y30930D02*
X1006330Y30930D01*
X1001384Y36783D02*
X1001381Y37013D01*
X1001373Y37243D01*
X1001359Y37473D01*
X1001340Y37703D01*
X1001315Y37932D01*
X1001285Y38160D01*
X1001250Y38388D01*
X1001209Y38614D01*
X1001162Y38840D01*
X1001110Y39064D01*
X1001053Y39287D01*
X1000991Y39509D01*
X1000923Y39729D01*
X1000850Y39948D01*
X1000772Y40164D01*
X1000689Y40379D01*
X1000600Y40592D01*
X1000507Y40802D01*
X1000408Y41010D01*
X1000375Y41101D01*
X1000338Y41190D01*
X1000298Y41277D01*
X1000254Y41363D01*
X1000207Y41447D01*
X1000157Y41529D01*
X1000104Y41609D01*
X1000047Y41687D01*
X999987Y41762D01*
X999924Y41835D01*
X999858Y41906D01*
X999790Y41973D01*
X999719Y42038D01*
X999645Y42100D01*
X999569Y42159D01*
X999491Y42215D01*
X999410Y42268D01*
X999328Y42318D01*
X999243Y42364D01*
X999157Y42407D01*
X999069Y42446D01*
X998980Y42482D01*
X998889Y42514D01*
X998797Y42542D01*
X998704Y42567D01*
X998610Y42588D01*
X998515Y42605D01*
X998420Y42619D01*
X998324Y42628D01*
X998228Y42634D01*
X998132Y42636D01*
X998036Y42634D01*
X997940Y42628D01*
X997844Y42619D01*
X997749Y42605D01*
X997654Y42588D01*
X997560Y42567D01*
X997467Y42542D01*
X997375Y42514D01*
X997284Y42482D01*
X997195Y42446D01*
X997107Y42407D01*
X997021Y42364D01*
X996936Y42318D01*
X996854Y42268D01*
X996773Y42215D01*
X996695Y42159D01*
X996619Y42100D01*
X996545Y42038D01*
X996474Y41973D01*
X996405Y41906D01*
X996340Y41835D01*
X996277Y41762D01*
X996217Y41687D01*
X996160Y41609D01*
X996107Y41529D01*
X996057Y41447D01*
X996010Y41363D01*
X995966Y41277D01*
X995926Y41190D01*
X995889Y41101D01*
X995856Y41010D01*
X995757Y40802D01*
X995664Y40592D01*
X995575Y40379D01*
X995492Y40164D01*
X995414Y39948D01*
X995341Y39729D01*
X995273Y39509D01*
X995211Y39287D01*
X995154Y39064D01*
X995102Y38840D01*
X995055Y38614D01*
X995014Y38388D01*
X994979Y38160D01*
X994949Y37932D01*
X994924Y37703D01*
X994905Y37473D01*
X994891Y37243D01*
X994883Y37013D01*
X994880Y36783D01*
X1001383Y36783D02*
X1001380Y36553D01*
X1001372Y36323D01*
X1001358Y36093D01*
X1001339Y35863D01*
X1001314Y35634D01*
X1001284Y35406D01*
X1001249Y35178D01*
X1001208Y34952D01*
X1001161Y34726D01*
X1001109Y34502D01*
X1001052Y34279D01*
X1000990Y34057D01*
X1000922Y33837D01*
X1000849Y33618D01*
X1000771Y33402D01*
X1000688Y33187D01*
X1000599Y32974D01*
X1000506Y32764D01*
X1000408Y32556D01*
X1000375Y32465D01*
X1000338Y32376D01*
X1000298Y32289D01*
X1000254Y32203D01*
X1000207Y32119D01*
X1000157Y32037D01*
X1000103Y31957D01*
X1000047Y31879D01*
X999987Y31804D01*
X999924Y31731D01*
X999858Y31660D01*
X999790Y31593D01*
X999719Y31528D01*
X999645Y31466D01*
X999569Y31407D01*
X999491Y31351D01*
X999410Y31298D01*
X999328Y31248D01*
X999243Y31202D01*
X999157Y31159D01*
X999069Y31120D01*
X998980Y31084D01*
X998889Y31052D01*
X998797Y31024D01*
X998704Y30999D01*
X998610Y30978D01*
X998515Y30961D01*
X998420Y30947D01*
X998324Y30938D01*
X998228Y30932D01*
X998132Y30930D01*
X995856Y32556D02*
X995757Y32764D01*
X995664Y32974D01*
X995575Y33187D01*
X995492Y33402D01*
X995414Y33618D01*
X995341Y33837D01*
X995273Y34057D01*
X995211Y34279D01*
X995154Y34502D01*
X995102Y34726D01*
X995055Y34952D01*
X995014Y35178D01*
X994979Y35406D01*
X994949Y35634D01*
X994924Y35863D01*
X994905Y36093D01*
X994891Y36323D01*
X994883Y36553D01*
X994880Y36783D01*
X995856Y32556D02*
X995889Y32465D01*
X995926Y32376D01*
X995966Y32289D01*
X996010Y32203D01*
X996057Y32119D01*
X996107Y32037D01*
X996161Y31957D01*
X996217Y31879D01*
X996277Y31804D01*
X996340Y31731D01*
X996406Y31660D01*
X996474Y31593D01*
X996545Y31528D01*
X996619Y31466D01*
X996695Y31407D01*
X996773Y31351D01*
X996854Y31298D01*
X996936Y31248D01*
X997021Y31202D01*
X997107Y31159D01*
X997195Y31120D01*
X997284Y31084D01*
X997375Y31052D01*
X997467Y31024D01*
X997560Y30999D01*
X997654Y30978D01*
X997749Y30961D01*
X997844Y30947D01*
X997940Y30938D01*
X998036Y30932D01*
X998132Y30930D01*
X1000733Y33531D02*
X995530Y40035D01*
X986356Y42637D02*
X986249Y42635D01*
X986142Y42629D01*
X986036Y42619D01*
X985930Y42606D01*
X985824Y42588D01*
X985720Y42567D01*
X985616Y42542D01*
X985513Y42513D01*
X985411Y42480D01*
X985310Y42444D01*
X985211Y42404D01*
X985114Y42360D01*
X985018Y42313D01*
X984923Y42262D01*
X984831Y42208D01*
X984741Y42151D01*
X984653Y42091D01*
X984567Y42027D01*
X984484Y41960D01*
X984403Y41890D01*
X984324Y41817D01*
X984249Y41742D01*
X984176Y41663D01*
X984106Y41582D01*
X984039Y41499D01*
X983976Y41413D01*
X983915Y41325D01*
X983858Y41235D01*
X983804Y41143D01*
X983753Y41048D01*
X983706Y40952D01*
X983662Y40855D01*
X983622Y40756D01*
X983586Y40655D01*
X983553Y40553D01*
X983524Y40450D01*
X983499Y40346D01*
X983478Y40242D01*
X983460Y40136D01*
X983447Y40030D01*
X983437Y39924D01*
X983431Y39817D01*
X983429Y39710D01*
X986356Y42636D02*
X986477Y42634D01*
X986598Y42628D01*
X986719Y42618D01*
X986840Y42605D01*
X986960Y42587D01*
X987079Y42566D01*
X987198Y42541D01*
X987315Y42512D01*
X987432Y42479D01*
X987548Y42442D01*
X987662Y42402D01*
X987775Y42358D01*
X987886Y42310D01*
X987996Y42259D01*
X988105Y42205D01*
X988211Y42147D01*
X988315Y42085D01*
X988418Y42020D01*
X988518Y41952D01*
X988616Y41881D01*
X988712Y41806D01*
X988805Y41729D01*
X988896Y41648D01*
X988984Y41565D01*
X989069Y41479D01*
X989152Y41390D01*
X989231Y41299D01*
X989308Y41205D01*
X989382Y41108D01*
X989452Y41010D01*
X989519Y40909D01*
X989583Y40806D01*
X989644Y40701D01*
X989701Y40594D01*
X989754Y40485D01*
X989804Y40375D01*
X989851Y40263D01*
X989894Y40149D01*
X989933Y40034D01*
X984405Y37434D02*
X984327Y37512D01*
X984251Y37592D01*
X984178Y37675D01*
X984107Y37761D01*
X984040Y37849D01*
X983976Y37939D01*
X983916Y38032D01*
X983858Y38126D01*
X983804Y38223D01*
X983754Y38321D01*
X983706Y38421D01*
X983663Y38523D01*
X983623Y38626D01*
X983586Y38731D01*
X983554Y38836D01*
X983525Y38943D01*
X983500Y39051D01*
X983479Y39160D01*
X983461Y39269D01*
X983448Y39379D01*
X983438Y39489D01*
X983432Y39599D01*
X983430Y39710D01*
X984405Y37434D02*
X989933Y30930D01*
X983430Y30930D01*
D10*
X1094600Y49000D02*
X1094600Y53500D01*
X1094600Y49000D02*
X1140600Y49000D01*
X1140600Y53500D01*
X1140600Y73500D02*
X1140600Y78000D01*
X1094600Y78000D01*
X1094600Y73500D01*
X1149350Y73500D02*
X1149350Y53500D01*
D11*
X1137758Y45720D02*
X1137758Y35560D01*
X1137758Y45720D02*
X1134936Y45720D01*
X1134830Y45718D01*
X1134725Y45712D01*
X1134620Y45702D01*
X1134515Y45688D01*
X1134411Y45671D01*
X1134308Y45649D01*
X1134206Y45624D01*
X1134104Y45595D01*
X1134004Y45562D01*
X1133905Y45525D01*
X1133808Y45485D01*
X1133712Y45441D01*
X1133617Y45393D01*
X1133525Y45342D01*
X1133435Y45287D01*
X1133346Y45230D01*
X1133260Y45169D01*
X1133177Y45104D01*
X1133095Y45037D01*
X1133017Y44967D01*
X1132941Y44893D01*
X1132867Y44817D01*
X1132797Y44739D01*
X1132730Y44657D01*
X1132665Y44574D01*
X1132604Y44488D01*
X1132547Y44399D01*
X1132492Y44309D01*
X1132441Y44217D01*
X1132393Y44122D01*
X1132349Y44026D01*
X1132309Y43929D01*
X1132272Y43830D01*
X1132239Y43730D01*
X1132210Y43628D01*
X1132185Y43526D01*
X1132163Y43423D01*
X1132146Y43319D01*
X1132132Y43214D01*
X1132122Y43109D01*
X1132116Y43004D01*
X1132114Y42898D01*
X1132113Y42898D02*
X1132113Y38382D01*
X1132114Y38382D02*
X1132116Y38276D01*
X1132122Y38171D01*
X1132132Y38066D01*
X1132146Y37961D01*
X1132163Y37857D01*
X1132185Y37754D01*
X1132210Y37652D01*
X1132239Y37550D01*
X1132272Y37450D01*
X1132309Y37351D01*
X1132349Y37254D01*
X1132393Y37158D01*
X1132441Y37063D01*
X1132492Y36971D01*
X1132547Y36881D01*
X1132604Y36792D01*
X1132665Y36706D01*
X1132730Y36623D01*
X1132797Y36541D01*
X1132867Y36463D01*
X1132941Y36387D01*
X1133017Y36313D01*
X1133095Y36243D01*
X1133177Y36176D01*
X1133260Y36111D01*
X1133346Y36050D01*
X1133435Y35993D01*
X1133525Y35938D01*
X1133617Y35887D01*
X1133712Y35839D01*
X1133808Y35795D01*
X1133905Y35755D01*
X1134004Y35718D01*
X1134104Y35685D01*
X1134206Y35656D01*
X1134308Y35631D01*
X1134411Y35609D01*
X1134515Y35592D01*
X1134620Y35578D01*
X1134725Y35568D01*
X1134830Y35562D01*
X1134936Y35560D01*
X1137758Y35560D01*
X1125947Y43462D02*
X1123125Y45720D01*
X1123125Y35560D01*
X1125947Y35560D02*
X1120302Y35560D01*
X1114517Y40640D02*
X1114515Y40840D01*
X1114507Y41040D01*
X1114496Y41239D01*
X1114479Y41438D01*
X1114457Y41637D01*
X1114431Y41835D01*
X1114400Y42033D01*
X1114365Y42229D01*
X1114324Y42425D01*
X1114280Y42620D01*
X1114230Y42814D01*
X1114176Y43006D01*
X1114117Y43197D01*
X1114054Y43387D01*
X1113986Y43575D01*
X1113914Y43761D01*
X1113837Y43946D01*
X1113756Y44128D01*
X1113670Y44309D01*
X1113639Y44393D01*
X1113605Y44475D01*
X1113567Y44556D01*
X1113526Y44636D01*
X1113481Y44713D01*
X1113434Y44788D01*
X1113383Y44862D01*
X1113328Y44933D01*
X1113271Y45001D01*
X1113211Y45068D01*
X1113148Y45131D01*
X1113083Y45192D01*
X1113015Y45250D01*
X1112945Y45305D01*
X1112872Y45357D01*
X1112797Y45405D01*
X1112720Y45451D01*
X1112642Y45493D01*
X1112561Y45532D01*
X1112479Y45567D01*
X1112396Y45599D01*
X1112311Y45627D01*
X1112225Y45652D01*
X1112138Y45672D01*
X1112051Y45690D01*
X1111962Y45703D01*
X1111873Y45712D01*
X1111784Y45718D01*
X1111695Y45720D01*
X1111606Y45718D01*
X1111517Y45712D01*
X1111428Y45703D01*
X1111339Y45690D01*
X1111252Y45672D01*
X1111165Y45652D01*
X1111079Y45627D01*
X1110994Y45599D01*
X1110911Y45567D01*
X1110829Y45532D01*
X1110748Y45493D01*
X1110670Y45451D01*
X1110593Y45405D01*
X1110518Y45357D01*
X1110445Y45305D01*
X1110375Y45250D01*
X1110307Y45192D01*
X1110242Y45131D01*
X1110179Y45068D01*
X1110119Y45001D01*
X1110062Y44933D01*
X1110007Y44862D01*
X1109956Y44788D01*
X1109909Y44713D01*
X1109864Y44636D01*
X1109823Y44556D01*
X1109785Y44475D01*
X1109751Y44393D01*
X1109720Y44309D01*
X1109634Y44128D01*
X1109553Y43945D01*
X1109476Y43761D01*
X1109404Y43574D01*
X1109336Y43386D01*
X1109273Y43197D01*
X1109214Y43006D01*
X1109160Y42813D01*
X1109110Y42620D01*
X1109066Y42425D01*
X1109025Y42229D01*
X1108990Y42033D01*
X1108959Y41835D01*
X1108933Y41637D01*
X1108911Y41438D01*
X1108894Y41239D01*
X1108883Y41040D01*
X1108875Y40840D01*
X1108873Y40640D01*
X1114517Y40640D02*
X1114515Y40440D01*
X1114507Y40240D01*
X1114496Y40041D01*
X1114479Y39842D01*
X1114457Y39643D01*
X1114431Y39445D01*
X1114400Y39247D01*
X1114365Y39051D01*
X1114324Y38855D01*
X1114280Y38660D01*
X1114230Y38466D01*
X1114176Y38274D01*
X1114117Y38083D01*
X1114054Y37893D01*
X1113986Y37705D01*
X1113914Y37519D01*
X1113837Y37334D01*
X1113756Y37152D01*
X1113670Y36971D01*
X1113639Y36887D01*
X1113605Y36805D01*
X1113567Y36724D01*
X1113526Y36644D01*
X1113481Y36567D01*
X1113434Y36492D01*
X1113382Y36418D01*
X1113328Y36347D01*
X1113271Y36279D01*
X1113211Y36212D01*
X1113148Y36149D01*
X1113083Y36088D01*
X1113015Y36030D01*
X1112945Y35975D01*
X1112872Y35923D01*
X1112797Y35875D01*
X1112720Y35829D01*
X1112642Y35787D01*
X1112561Y35748D01*
X1112479Y35713D01*
X1112396Y35681D01*
X1112311Y35653D01*
X1112225Y35628D01*
X1112138Y35608D01*
X1112051Y35590D01*
X1111962Y35577D01*
X1111873Y35568D01*
X1111784Y35562D01*
X1111695Y35560D01*
X1109719Y36971D02*
X1109633Y37152D01*
X1109552Y37334D01*
X1109475Y37519D01*
X1109403Y37705D01*
X1109335Y37893D01*
X1109272Y38083D01*
X1109213Y38274D01*
X1109159Y38466D01*
X1109109Y38660D01*
X1109065Y38855D01*
X1109024Y39051D01*
X1108989Y39247D01*
X1108958Y39445D01*
X1108932Y39643D01*
X1108910Y39842D01*
X1108893Y40041D01*
X1108882Y40240D01*
X1108874Y40440D01*
X1108872Y40640D01*
X1109720Y36971D02*
X1109751Y36887D01*
X1109785Y36805D01*
X1109823Y36724D01*
X1109864Y36644D01*
X1109909Y36567D01*
X1109956Y36492D01*
X1110008Y36418D01*
X1110062Y36347D01*
X1110119Y36279D01*
X1110179Y36212D01*
X1110242Y36149D01*
X1110307Y36088D01*
X1110375Y36030D01*
X1110445Y35975D01*
X1110518Y35923D01*
X1110593Y35875D01*
X1110670Y35829D01*
X1110748Y35787D01*
X1110829Y35748D01*
X1110911Y35713D01*
X1110994Y35681D01*
X1111079Y35653D01*
X1111165Y35628D01*
X1111252Y35608D01*
X1111339Y35590D01*
X1111428Y35577D01*
X1111517Y35568D01*
X1111606Y35562D01*
X1111695Y35560D01*
X1113952Y37818D02*
X1109437Y43462D01*
X1103087Y43462D02*
X1100265Y45720D01*
X1100265Y35560D01*
X1103087Y35560D02*
X1097442Y35560D01*
D10*
X1196200Y49000D02*
X1196200Y53500D01*
X1196200Y49000D02*
X1242200Y49000D01*
X1242200Y53500D01*
X1242200Y73500D02*
X1242200Y78000D01*
X1196200Y78000D01*
X1196200Y73500D01*
X1250950Y73500D02*
X1250950Y53500D01*
D11*
X1239358Y45720D02*
X1239358Y35560D01*
X1239358Y45720D02*
X1236536Y45720D01*
X1236430Y45718D01*
X1236325Y45712D01*
X1236220Y45702D01*
X1236115Y45688D01*
X1236011Y45671D01*
X1235908Y45649D01*
X1235806Y45624D01*
X1235704Y45595D01*
X1235604Y45562D01*
X1235505Y45525D01*
X1235408Y45485D01*
X1235312Y45441D01*
X1235217Y45393D01*
X1235125Y45342D01*
X1235035Y45287D01*
X1234946Y45230D01*
X1234860Y45169D01*
X1234777Y45104D01*
X1234695Y45037D01*
X1234617Y44967D01*
X1234541Y44893D01*
X1234467Y44817D01*
X1234397Y44739D01*
X1234330Y44657D01*
X1234265Y44574D01*
X1234204Y44488D01*
X1234147Y44399D01*
X1234092Y44309D01*
X1234041Y44217D01*
X1233993Y44122D01*
X1233949Y44026D01*
X1233909Y43929D01*
X1233872Y43830D01*
X1233839Y43730D01*
X1233810Y43628D01*
X1233785Y43526D01*
X1233763Y43423D01*
X1233746Y43319D01*
X1233732Y43214D01*
X1233722Y43109D01*
X1233716Y43004D01*
X1233714Y42898D01*
X1233713Y42898D02*
X1233713Y38382D01*
X1233714Y38382D02*
X1233716Y38276D01*
X1233722Y38171D01*
X1233732Y38066D01*
X1233746Y37961D01*
X1233763Y37857D01*
X1233785Y37754D01*
X1233810Y37652D01*
X1233839Y37550D01*
X1233872Y37450D01*
X1233909Y37351D01*
X1233949Y37254D01*
X1233993Y37158D01*
X1234041Y37063D01*
X1234092Y36971D01*
X1234147Y36881D01*
X1234204Y36792D01*
X1234265Y36706D01*
X1234330Y36623D01*
X1234397Y36541D01*
X1234467Y36463D01*
X1234541Y36387D01*
X1234617Y36313D01*
X1234695Y36243D01*
X1234777Y36176D01*
X1234860Y36111D01*
X1234946Y36050D01*
X1235035Y35993D01*
X1235125Y35938D01*
X1235217Y35887D01*
X1235312Y35839D01*
X1235408Y35795D01*
X1235505Y35755D01*
X1235604Y35718D01*
X1235704Y35685D01*
X1235806Y35656D01*
X1235908Y35631D01*
X1236011Y35609D01*
X1236115Y35592D01*
X1236220Y35578D01*
X1236325Y35568D01*
X1236430Y35562D01*
X1236536Y35560D01*
X1239358Y35560D01*
X1227547Y43462D02*
X1224725Y45720D01*
X1224725Y35560D01*
X1227547Y35560D02*
X1221902Y35560D01*
X1216117Y40640D02*
X1216115Y40840D01*
X1216107Y41040D01*
X1216096Y41239D01*
X1216079Y41438D01*
X1216057Y41637D01*
X1216031Y41835D01*
X1216000Y42033D01*
X1215965Y42229D01*
X1215924Y42425D01*
X1215880Y42620D01*
X1215830Y42814D01*
X1215776Y43006D01*
X1215717Y43197D01*
X1215654Y43387D01*
X1215586Y43575D01*
X1215514Y43761D01*
X1215437Y43946D01*
X1215356Y44128D01*
X1215270Y44309D01*
X1215239Y44393D01*
X1215205Y44475D01*
X1215167Y44556D01*
X1215126Y44636D01*
X1215081Y44713D01*
X1215034Y44788D01*
X1214983Y44862D01*
X1214928Y44933D01*
X1214871Y45001D01*
X1214811Y45068D01*
X1214748Y45131D01*
X1214683Y45192D01*
X1214615Y45250D01*
X1214545Y45305D01*
X1214472Y45357D01*
X1214397Y45405D01*
X1214320Y45451D01*
X1214242Y45493D01*
X1214161Y45532D01*
X1214079Y45567D01*
X1213996Y45599D01*
X1213911Y45627D01*
X1213825Y45652D01*
X1213738Y45672D01*
X1213651Y45690D01*
X1213562Y45703D01*
X1213473Y45712D01*
X1213384Y45718D01*
X1213295Y45720D01*
X1213206Y45718D01*
X1213117Y45712D01*
X1213028Y45703D01*
X1212939Y45690D01*
X1212852Y45672D01*
X1212765Y45652D01*
X1212679Y45627D01*
X1212594Y45599D01*
X1212511Y45567D01*
X1212429Y45532D01*
X1212348Y45493D01*
X1212270Y45451D01*
X1212193Y45405D01*
X1212118Y45357D01*
X1212045Y45305D01*
X1211975Y45250D01*
X1211907Y45192D01*
X1211842Y45131D01*
X1211779Y45068D01*
X1211719Y45001D01*
X1211662Y44933D01*
X1211607Y44862D01*
X1211556Y44788D01*
X1211509Y44713D01*
X1211464Y44636D01*
X1211423Y44556D01*
X1211385Y44475D01*
X1211351Y44393D01*
X1211320Y44309D01*
X1211234Y44128D01*
X1211153Y43945D01*
X1211076Y43761D01*
X1211004Y43574D01*
X1210936Y43386D01*
X1210873Y43197D01*
X1210814Y43006D01*
X1210760Y42813D01*
X1210710Y42620D01*
X1210666Y42425D01*
X1210625Y42229D01*
X1210590Y42033D01*
X1210559Y41835D01*
X1210533Y41637D01*
X1210511Y41438D01*
X1210494Y41239D01*
X1210483Y41040D01*
X1210475Y40840D01*
X1210473Y40640D01*
X1216117Y40640D02*
X1216115Y40440D01*
X1216107Y40240D01*
X1216096Y40041D01*
X1216079Y39842D01*
X1216057Y39643D01*
X1216031Y39445D01*
X1216000Y39247D01*
X1215965Y39051D01*
X1215924Y38855D01*
X1215880Y38660D01*
X1215830Y38466D01*
X1215776Y38274D01*
X1215717Y38083D01*
X1215654Y37893D01*
X1215586Y37705D01*
X1215514Y37519D01*
X1215437Y37334D01*
X1215356Y37152D01*
X1215270Y36971D01*
X1215239Y36887D01*
X1215205Y36805D01*
X1215167Y36724D01*
X1215126Y36644D01*
X1215081Y36567D01*
X1215034Y36492D01*
X1214982Y36418D01*
X1214928Y36347D01*
X1214871Y36279D01*
X1214811Y36212D01*
X1214748Y36149D01*
X1214683Y36088D01*
X1214615Y36030D01*
X1214545Y35975D01*
X1214472Y35923D01*
X1214397Y35875D01*
X1214320Y35829D01*
X1214242Y35787D01*
X1214161Y35748D01*
X1214079Y35713D01*
X1213996Y35681D01*
X1213911Y35653D01*
X1213825Y35628D01*
X1213738Y35608D01*
X1213651Y35590D01*
X1213562Y35577D01*
X1213473Y35568D01*
X1213384Y35562D01*
X1213295Y35560D01*
X1211319Y36971D02*
X1211233Y37152D01*
X1211152Y37334D01*
X1211075Y37519D01*
X1211003Y37705D01*
X1210935Y37893D01*
X1210872Y38083D01*
X1210813Y38274D01*
X1210759Y38466D01*
X1210709Y38660D01*
X1210665Y38855D01*
X1210624Y39051D01*
X1210589Y39247D01*
X1210558Y39445D01*
X1210532Y39643D01*
X1210510Y39842D01*
X1210493Y40041D01*
X1210482Y40240D01*
X1210474Y40440D01*
X1210472Y40640D01*
X1211320Y36971D02*
X1211351Y36887D01*
X1211385Y36805D01*
X1211423Y36724D01*
X1211464Y36644D01*
X1211509Y36567D01*
X1211556Y36492D01*
X1211608Y36418D01*
X1211662Y36347D01*
X1211719Y36279D01*
X1211779Y36212D01*
X1211842Y36149D01*
X1211907Y36088D01*
X1211975Y36030D01*
X1212045Y35975D01*
X1212118Y35923D01*
X1212193Y35875D01*
X1212270Y35829D01*
X1212348Y35787D01*
X1212429Y35748D01*
X1212511Y35713D01*
X1212594Y35681D01*
X1212679Y35653D01*
X1212765Y35628D01*
X1212852Y35608D01*
X1212939Y35590D01*
X1213028Y35577D01*
X1213117Y35568D01*
X1213206Y35562D01*
X1213295Y35560D01*
X1215552Y37818D02*
X1211037Y43462D01*
X1204687Y40640D02*
X1204685Y40840D01*
X1204677Y41040D01*
X1204666Y41239D01*
X1204649Y41438D01*
X1204627Y41637D01*
X1204601Y41835D01*
X1204570Y42033D01*
X1204535Y42229D01*
X1204494Y42425D01*
X1204450Y42620D01*
X1204400Y42814D01*
X1204346Y43006D01*
X1204287Y43197D01*
X1204224Y43387D01*
X1204156Y43575D01*
X1204084Y43761D01*
X1204007Y43946D01*
X1203926Y44128D01*
X1203840Y44309D01*
X1203809Y44393D01*
X1203775Y44475D01*
X1203737Y44556D01*
X1203696Y44636D01*
X1203651Y44713D01*
X1203604Y44788D01*
X1203553Y44862D01*
X1203498Y44933D01*
X1203441Y45001D01*
X1203381Y45068D01*
X1203318Y45131D01*
X1203253Y45192D01*
X1203185Y45250D01*
X1203115Y45305D01*
X1203042Y45357D01*
X1202967Y45405D01*
X1202890Y45451D01*
X1202812Y45493D01*
X1202731Y45532D01*
X1202649Y45567D01*
X1202566Y45599D01*
X1202481Y45627D01*
X1202395Y45652D01*
X1202308Y45672D01*
X1202221Y45690D01*
X1202132Y45703D01*
X1202043Y45712D01*
X1201954Y45718D01*
X1201865Y45720D01*
X1201776Y45718D01*
X1201687Y45712D01*
X1201598Y45703D01*
X1201509Y45690D01*
X1201422Y45672D01*
X1201335Y45652D01*
X1201249Y45627D01*
X1201164Y45599D01*
X1201081Y45567D01*
X1200999Y45532D01*
X1200918Y45493D01*
X1200840Y45451D01*
X1200763Y45405D01*
X1200688Y45357D01*
X1200615Y45305D01*
X1200545Y45250D01*
X1200477Y45192D01*
X1200412Y45131D01*
X1200349Y45068D01*
X1200289Y45001D01*
X1200232Y44933D01*
X1200177Y44862D01*
X1200126Y44788D01*
X1200079Y44713D01*
X1200034Y44636D01*
X1199993Y44556D01*
X1199955Y44475D01*
X1199921Y44393D01*
X1199890Y44309D01*
X1199804Y44128D01*
X1199723Y43945D01*
X1199646Y43761D01*
X1199574Y43574D01*
X1199506Y43386D01*
X1199443Y43197D01*
X1199384Y43006D01*
X1199330Y42813D01*
X1199280Y42620D01*
X1199236Y42425D01*
X1199195Y42229D01*
X1199160Y42033D01*
X1199129Y41835D01*
X1199103Y41637D01*
X1199081Y41438D01*
X1199064Y41239D01*
X1199053Y41040D01*
X1199045Y40840D01*
X1199043Y40640D01*
X1204687Y40640D02*
X1204685Y40440D01*
X1204677Y40240D01*
X1204666Y40041D01*
X1204649Y39842D01*
X1204627Y39643D01*
X1204601Y39445D01*
X1204570Y39247D01*
X1204535Y39051D01*
X1204494Y38855D01*
X1204450Y38660D01*
X1204400Y38466D01*
X1204346Y38274D01*
X1204287Y38083D01*
X1204224Y37893D01*
X1204156Y37705D01*
X1204084Y37519D01*
X1204007Y37334D01*
X1203926Y37152D01*
X1203840Y36971D01*
X1203809Y36887D01*
X1203775Y36805D01*
X1203737Y36724D01*
X1203696Y36644D01*
X1203651Y36567D01*
X1203604Y36492D01*
X1203552Y36418D01*
X1203498Y36347D01*
X1203441Y36279D01*
X1203381Y36212D01*
X1203318Y36149D01*
X1203253Y36088D01*
X1203185Y36030D01*
X1203115Y35975D01*
X1203042Y35923D01*
X1202967Y35875D01*
X1202890Y35829D01*
X1202812Y35787D01*
X1202731Y35748D01*
X1202649Y35713D01*
X1202566Y35681D01*
X1202481Y35653D01*
X1202395Y35628D01*
X1202308Y35608D01*
X1202221Y35590D01*
X1202132Y35577D01*
X1202043Y35568D01*
X1201954Y35562D01*
X1201865Y35560D01*
X1199889Y36971D02*
X1199803Y37152D01*
X1199722Y37334D01*
X1199645Y37519D01*
X1199573Y37705D01*
X1199505Y37893D01*
X1199442Y38083D01*
X1199383Y38274D01*
X1199329Y38466D01*
X1199279Y38660D01*
X1199235Y38855D01*
X1199194Y39051D01*
X1199159Y39247D01*
X1199128Y39445D01*
X1199102Y39643D01*
X1199080Y39842D01*
X1199063Y40041D01*
X1199052Y40240D01*
X1199044Y40440D01*
X1199042Y40640D01*
X1199890Y36971D02*
X1199921Y36887D01*
X1199955Y36805D01*
X1199993Y36724D01*
X1200034Y36644D01*
X1200079Y36567D01*
X1200126Y36492D01*
X1200178Y36418D01*
X1200232Y36347D01*
X1200289Y36279D01*
X1200349Y36212D01*
X1200412Y36149D01*
X1200477Y36088D01*
X1200545Y36030D01*
X1200615Y35975D01*
X1200688Y35923D01*
X1200763Y35875D01*
X1200840Y35829D01*
X1200918Y35787D01*
X1200999Y35748D01*
X1201081Y35713D01*
X1201164Y35681D01*
X1201249Y35653D01*
X1201335Y35628D01*
X1201422Y35608D01*
X1201509Y35590D01*
X1201598Y35577D01*
X1201687Y35568D01*
X1201776Y35562D01*
X1201865Y35560D01*
X1204122Y37818D02*
X1199607Y43462D01*
D10*
X1196200Y925300D02*
X1196200Y929800D01*
X1196200Y925300D02*
X1242200Y925300D01*
X1242200Y929800D01*
X1242200Y949800D02*
X1242200Y954300D01*
X1196200Y954300D01*
X1196200Y949800D01*
X1250950Y949800D02*
X1250950Y929800D01*
D11*
X1239358Y957580D02*
X1239358Y967740D01*
X1236536Y967740D01*
X1236430Y967738D01*
X1236325Y967732D01*
X1236220Y967722D01*
X1236115Y967708D01*
X1236011Y967691D01*
X1235908Y967669D01*
X1235806Y967644D01*
X1235704Y967615D01*
X1235604Y967582D01*
X1235505Y967545D01*
X1235408Y967505D01*
X1235312Y967461D01*
X1235217Y967413D01*
X1235125Y967362D01*
X1235035Y967307D01*
X1234946Y967250D01*
X1234860Y967189D01*
X1234777Y967124D01*
X1234695Y967057D01*
X1234617Y966987D01*
X1234541Y966913D01*
X1234467Y966837D01*
X1234397Y966759D01*
X1234330Y966677D01*
X1234265Y966594D01*
X1234204Y966508D01*
X1234147Y966419D01*
X1234092Y966329D01*
X1234041Y966237D01*
X1233993Y966142D01*
X1233949Y966046D01*
X1233909Y965949D01*
X1233872Y965850D01*
X1233839Y965750D01*
X1233810Y965648D01*
X1233785Y965546D01*
X1233763Y965443D01*
X1233746Y965339D01*
X1233732Y965234D01*
X1233722Y965129D01*
X1233716Y965024D01*
X1233714Y964918D01*
X1233713Y964918D02*
X1233713Y960402D01*
X1233714Y960402D02*
X1233716Y960296D01*
X1233722Y960191D01*
X1233732Y960086D01*
X1233746Y959981D01*
X1233763Y959877D01*
X1233785Y959774D01*
X1233810Y959672D01*
X1233839Y959570D01*
X1233872Y959470D01*
X1233909Y959371D01*
X1233949Y959274D01*
X1233993Y959178D01*
X1234041Y959083D01*
X1234092Y958991D01*
X1234147Y958901D01*
X1234204Y958812D01*
X1234265Y958726D01*
X1234330Y958643D01*
X1234397Y958561D01*
X1234467Y958483D01*
X1234541Y958407D01*
X1234617Y958333D01*
X1234695Y958263D01*
X1234777Y958196D01*
X1234860Y958131D01*
X1234946Y958070D01*
X1235035Y958013D01*
X1235125Y957958D01*
X1235217Y957907D01*
X1235312Y957859D01*
X1235408Y957815D01*
X1235505Y957775D01*
X1235604Y957738D01*
X1235704Y957705D01*
X1235806Y957676D01*
X1235908Y957651D01*
X1236011Y957629D01*
X1236115Y957612D01*
X1236220Y957598D01*
X1236325Y957588D01*
X1236430Y957582D01*
X1236536Y957580D01*
X1239358Y957580D01*
X1227547Y965482D02*
X1224725Y967740D01*
X1224725Y957580D01*
X1227547Y957580D02*
X1221902Y957580D01*
X1216117Y962660D02*
X1216115Y962860D01*
X1216107Y963060D01*
X1216096Y963259D01*
X1216079Y963458D01*
X1216057Y963657D01*
X1216031Y963855D01*
X1216000Y964053D01*
X1215965Y964249D01*
X1215924Y964445D01*
X1215880Y964640D01*
X1215830Y964834D01*
X1215776Y965026D01*
X1215717Y965217D01*
X1215654Y965407D01*
X1215586Y965595D01*
X1215514Y965781D01*
X1215437Y965966D01*
X1215356Y966148D01*
X1215270Y966329D01*
X1215239Y966413D01*
X1215205Y966495D01*
X1215167Y966576D01*
X1215126Y966656D01*
X1215081Y966733D01*
X1215034Y966808D01*
X1214983Y966882D01*
X1214928Y966953D01*
X1214871Y967021D01*
X1214811Y967088D01*
X1214748Y967151D01*
X1214683Y967212D01*
X1214615Y967270D01*
X1214545Y967325D01*
X1214472Y967377D01*
X1214397Y967425D01*
X1214320Y967471D01*
X1214242Y967513D01*
X1214161Y967552D01*
X1214079Y967587D01*
X1213996Y967619D01*
X1213911Y967647D01*
X1213825Y967672D01*
X1213738Y967692D01*
X1213651Y967710D01*
X1213562Y967723D01*
X1213473Y967732D01*
X1213384Y967738D01*
X1213295Y967740D01*
X1213206Y967738D01*
X1213117Y967732D01*
X1213028Y967723D01*
X1212939Y967710D01*
X1212852Y967692D01*
X1212765Y967672D01*
X1212679Y967647D01*
X1212594Y967619D01*
X1212511Y967587D01*
X1212429Y967552D01*
X1212348Y967513D01*
X1212270Y967471D01*
X1212193Y967425D01*
X1212118Y967377D01*
X1212045Y967325D01*
X1211975Y967270D01*
X1211907Y967212D01*
X1211842Y967151D01*
X1211779Y967088D01*
X1211719Y967021D01*
X1211662Y966953D01*
X1211607Y966882D01*
X1211556Y966808D01*
X1211509Y966733D01*
X1211464Y966656D01*
X1211423Y966576D01*
X1211385Y966495D01*
X1211351Y966413D01*
X1211320Y966329D01*
X1211234Y966148D01*
X1211153Y965965D01*
X1211076Y965781D01*
X1211004Y965594D01*
X1210936Y965406D01*
X1210873Y965217D01*
X1210814Y965026D01*
X1210760Y964833D01*
X1210710Y964640D01*
X1210666Y964445D01*
X1210625Y964249D01*
X1210590Y964053D01*
X1210559Y963855D01*
X1210533Y963657D01*
X1210511Y963458D01*
X1210494Y963259D01*
X1210483Y963060D01*
X1210475Y962860D01*
X1210473Y962660D01*
X1216117Y962660D02*
X1216115Y962460D01*
X1216107Y962260D01*
X1216096Y962061D01*
X1216079Y961862D01*
X1216057Y961663D01*
X1216031Y961465D01*
X1216000Y961267D01*
X1215965Y961071D01*
X1215924Y960875D01*
X1215880Y960680D01*
X1215830Y960486D01*
X1215776Y960294D01*
X1215717Y960103D01*
X1215654Y959913D01*
X1215586Y959725D01*
X1215514Y959539D01*
X1215437Y959354D01*
X1215356Y959172D01*
X1215270Y958991D01*
X1215239Y958907D01*
X1215205Y958825D01*
X1215167Y958744D01*
X1215126Y958664D01*
X1215081Y958587D01*
X1215034Y958512D01*
X1214982Y958438D01*
X1214928Y958367D01*
X1214871Y958299D01*
X1214811Y958232D01*
X1214748Y958169D01*
X1214683Y958108D01*
X1214615Y958050D01*
X1214545Y957995D01*
X1214472Y957943D01*
X1214397Y957895D01*
X1214320Y957849D01*
X1214242Y957807D01*
X1214161Y957768D01*
X1214079Y957733D01*
X1213996Y957701D01*
X1213911Y957673D01*
X1213825Y957648D01*
X1213738Y957628D01*
X1213651Y957610D01*
X1213562Y957597D01*
X1213473Y957588D01*
X1213384Y957582D01*
X1213295Y957580D01*
X1211319Y958991D02*
X1211233Y959172D01*
X1211152Y959354D01*
X1211075Y959539D01*
X1211003Y959725D01*
X1210935Y959913D01*
X1210872Y960103D01*
X1210813Y960294D01*
X1210759Y960486D01*
X1210709Y960680D01*
X1210665Y960875D01*
X1210624Y961071D01*
X1210589Y961267D01*
X1210558Y961465D01*
X1210532Y961663D01*
X1210510Y961862D01*
X1210493Y962061D01*
X1210482Y962260D01*
X1210474Y962460D01*
X1210472Y962660D01*
X1211320Y958991D02*
X1211351Y958907D01*
X1211385Y958825D01*
X1211423Y958744D01*
X1211464Y958664D01*
X1211509Y958587D01*
X1211556Y958512D01*
X1211608Y958438D01*
X1211662Y958367D01*
X1211719Y958299D01*
X1211779Y958232D01*
X1211842Y958169D01*
X1211907Y958108D01*
X1211975Y958050D01*
X1212045Y957995D01*
X1212118Y957943D01*
X1212193Y957895D01*
X1212270Y957849D01*
X1212348Y957807D01*
X1212429Y957768D01*
X1212511Y957733D01*
X1212594Y957701D01*
X1212679Y957673D01*
X1212765Y957648D01*
X1212852Y957628D01*
X1212939Y957610D01*
X1213028Y957597D01*
X1213117Y957588D01*
X1213206Y957582D01*
X1213295Y957580D01*
X1215552Y959838D02*
X1211037Y965482D01*
X1204687Y966611D02*
X1204687Y967740D01*
X1199042Y967740D01*
X1201865Y957580D01*
D10*
X1200450Y797650D02*
X1200450Y777050D01*
X1174450Y777050D02*
X1174450Y797650D01*
D15*
X1187448Y780124D03*
D12*
X1204473Y762502D02*
X1216160Y762502D01*
X1216160Y765748D01*
X1216158Y765861D01*
X1216152Y765974D01*
X1216142Y766087D01*
X1216128Y766200D01*
X1216111Y766312D01*
X1216089Y766423D01*
X1216064Y766533D01*
X1216034Y766643D01*
X1216001Y766751D01*
X1215964Y766858D01*
X1215924Y766964D01*
X1215879Y767068D01*
X1215831Y767171D01*
X1215780Y767272D01*
X1215725Y767371D01*
X1215667Y767468D01*
X1215605Y767563D01*
X1215540Y767656D01*
X1215472Y767746D01*
X1215401Y767834D01*
X1215326Y767920D01*
X1215249Y768003D01*
X1215169Y768083D01*
X1215086Y768160D01*
X1215000Y768235D01*
X1214912Y768306D01*
X1214822Y768374D01*
X1214729Y768439D01*
X1214634Y768501D01*
X1214537Y768559D01*
X1214438Y768614D01*
X1214337Y768665D01*
X1214234Y768713D01*
X1214130Y768758D01*
X1214024Y768798D01*
X1213917Y768835D01*
X1213809Y768868D01*
X1213699Y768898D01*
X1213589Y768923D01*
X1213478Y768945D01*
X1213366Y768962D01*
X1213253Y768976D01*
X1213140Y768986D01*
X1213027Y768992D01*
X1212914Y768994D01*
X1207719Y768994D01*
X1207606Y768992D01*
X1207493Y768986D01*
X1207380Y768976D01*
X1207267Y768962D01*
X1207155Y768945D01*
X1207044Y768923D01*
X1206934Y768898D01*
X1206824Y768868D01*
X1206716Y768835D01*
X1206609Y768798D01*
X1206503Y768758D01*
X1206399Y768713D01*
X1206296Y768665D01*
X1206195Y768614D01*
X1206096Y768559D01*
X1205999Y768501D01*
X1205904Y768439D01*
X1205811Y768374D01*
X1205721Y768306D01*
X1205633Y768235D01*
X1205547Y768160D01*
X1205464Y768083D01*
X1205384Y768003D01*
X1205307Y767920D01*
X1205232Y767834D01*
X1205161Y767746D01*
X1205093Y767656D01*
X1205028Y767563D01*
X1204966Y767468D01*
X1204908Y767371D01*
X1204853Y767272D01*
X1204802Y767171D01*
X1204754Y767068D01*
X1204709Y766964D01*
X1204669Y766858D01*
X1204632Y766751D01*
X1204599Y766643D01*
X1204569Y766533D01*
X1204544Y766423D01*
X1204522Y766312D01*
X1204505Y766200D01*
X1204491Y766087D01*
X1204481Y765974D01*
X1204475Y765861D01*
X1204473Y765748D01*
X1204473Y762502D01*
X1207719Y774316D02*
X1212914Y774316D01*
X1213027Y774318D01*
X1213140Y774324D01*
X1213253Y774334D01*
X1213366Y774348D01*
X1213478Y774365D01*
X1213589Y774387D01*
X1213699Y774412D01*
X1213809Y774442D01*
X1213917Y774475D01*
X1214024Y774512D01*
X1214130Y774552D01*
X1214234Y774597D01*
X1214337Y774645D01*
X1214438Y774696D01*
X1214537Y774751D01*
X1214634Y774809D01*
X1214729Y774871D01*
X1214822Y774936D01*
X1214912Y775004D01*
X1215000Y775075D01*
X1215086Y775150D01*
X1215169Y775227D01*
X1215249Y775307D01*
X1215326Y775390D01*
X1215401Y775476D01*
X1215472Y775564D01*
X1215540Y775654D01*
X1215605Y775747D01*
X1215667Y775842D01*
X1215725Y775939D01*
X1215780Y776038D01*
X1215831Y776139D01*
X1215879Y776242D01*
X1215924Y776346D01*
X1215964Y776452D01*
X1216001Y776559D01*
X1216034Y776667D01*
X1216064Y776777D01*
X1216089Y776887D01*
X1216111Y776998D01*
X1216128Y777110D01*
X1216142Y777223D01*
X1216152Y777336D01*
X1216158Y777449D01*
X1216160Y777562D01*
X1216158Y777675D01*
X1216152Y777788D01*
X1216142Y777901D01*
X1216128Y778014D01*
X1216111Y778126D01*
X1216089Y778237D01*
X1216064Y778347D01*
X1216034Y778457D01*
X1216001Y778565D01*
X1215964Y778672D01*
X1215924Y778778D01*
X1215879Y778882D01*
X1215831Y778985D01*
X1215780Y779086D01*
X1215725Y779185D01*
X1215667Y779282D01*
X1215605Y779377D01*
X1215540Y779470D01*
X1215472Y779560D01*
X1215401Y779648D01*
X1215326Y779734D01*
X1215249Y779817D01*
X1215169Y779897D01*
X1215086Y779974D01*
X1215000Y780049D01*
X1214912Y780120D01*
X1214822Y780188D01*
X1214729Y780253D01*
X1214634Y780315D01*
X1214537Y780373D01*
X1214438Y780428D01*
X1214337Y780479D01*
X1214234Y780527D01*
X1214130Y780572D01*
X1214024Y780612D01*
X1213917Y780649D01*
X1213809Y780682D01*
X1213699Y780712D01*
X1213589Y780737D01*
X1213478Y780759D01*
X1213366Y780776D01*
X1213253Y780790D01*
X1213140Y780800D01*
X1213027Y780806D01*
X1212914Y780808D01*
X1207719Y780808D01*
X1207606Y780806D01*
X1207493Y780800D01*
X1207380Y780790D01*
X1207267Y780776D01*
X1207155Y780759D01*
X1207044Y780737D01*
X1206934Y780712D01*
X1206824Y780682D01*
X1206716Y780649D01*
X1206609Y780612D01*
X1206503Y780572D01*
X1206399Y780527D01*
X1206296Y780479D01*
X1206195Y780428D01*
X1206096Y780373D01*
X1205999Y780315D01*
X1205904Y780253D01*
X1205811Y780188D01*
X1205721Y780120D01*
X1205633Y780049D01*
X1205547Y779974D01*
X1205464Y779897D01*
X1205384Y779817D01*
X1205307Y779734D01*
X1205232Y779648D01*
X1205161Y779560D01*
X1205093Y779470D01*
X1205028Y779377D01*
X1204966Y779282D01*
X1204908Y779185D01*
X1204853Y779086D01*
X1204802Y778985D01*
X1204754Y778882D01*
X1204709Y778778D01*
X1204669Y778672D01*
X1204632Y778565D01*
X1204599Y778457D01*
X1204569Y778347D01*
X1204544Y778237D01*
X1204522Y778126D01*
X1204505Y778014D01*
X1204491Y777901D01*
X1204481Y777788D01*
X1204475Y777675D01*
X1204473Y777562D01*
X1204475Y777449D01*
X1204481Y777336D01*
X1204491Y777223D01*
X1204505Y777110D01*
X1204522Y776998D01*
X1204544Y776887D01*
X1204569Y776777D01*
X1204599Y776667D01*
X1204632Y776559D01*
X1204669Y776452D01*
X1204709Y776346D01*
X1204754Y776242D01*
X1204802Y776139D01*
X1204853Y776038D01*
X1204908Y775939D01*
X1204966Y775842D01*
X1205028Y775747D01*
X1205093Y775654D01*
X1205161Y775564D01*
X1205232Y775476D01*
X1205307Y775390D01*
X1205384Y775307D01*
X1205464Y775227D01*
X1205547Y775150D01*
X1205633Y775075D01*
X1205721Y775004D01*
X1205811Y774936D01*
X1205904Y774871D01*
X1205999Y774809D01*
X1206096Y774751D01*
X1206195Y774696D01*
X1206296Y774645D01*
X1206399Y774597D01*
X1206503Y774552D01*
X1206609Y774512D01*
X1206716Y774475D01*
X1206824Y774442D01*
X1206934Y774412D01*
X1207044Y774387D01*
X1207155Y774365D01*
X1207267Y774348D01*
X1207380Y774334D01*
X1207493Y774324D01*
X1207606Y774318D01*
X1207719Y774316D01*
X1216160Y785099D02*
X1204473Y788995D01*
X1216160Y792890D01*
X1213563Y797181D02*
X1216160Y800428D01*
X1204473Y800428D01*
X1204473Y803674D02*
X1204473Y797181D01*
X1210316Y808614D02*
X1210546Y808617D01*
X1210776Y808625D01*
X1211005Y808639D01*
X1211234Y808658D01*
X1211463Y808683D01*
X1211691Y808713D01*
X1211918Y808748D01*
X1212144Y808789D01*
X1212369Y808835D01*
X1212593Y808887D01*
X1212816Y808944D01*
X1213038Y809007D01*
X1213257Y809074D01*
X1213475Y809147D01*
X1213692Y809225D01*
X1213906Y809308D01*
X1214118Y809396D01*
X1214328Y809490D01*
X1214536Y809588D01*
X1214537Y809588D02*
X1214627Y809621D01*
X1214716Y809657D01*
X1214804Y809697D01*
X1214889Y809741D01*
X1214973Y809788D01*
X1215055Y809838D01*
X1215135Y809892D01*
X1215212Y809948D01*
X1215288Y810008D01*
X1215361Y810071D01*
X1215431Y810136D01*
X1215499Y810205D01*
X1215563Y810276D01*
X1215625Y810349D01*
X1215684Y810425D01*
X1215740Y810503D01*
X1215793Y810584D01*
X1215842Y810666D01*
X1215888Y810750D01*
X1215931Y810837D01*
X1215970Y810924D01*
X1216006Y811014D01*
X1216038Y811104D01*
X1216066Y811196D01*
X1216091Y811289D01*
X1216112Y811383D01*
X1216129Y811477D01*
X1216143Y811572D01*
X1216152Y811668D01*
X1216158Y811764D01*
X1216160Y811860D01*
X1216158Y811956D01*
X1216152Y812052D01*
X1216143Y812148D01*
X1216129Y812243D01*
X1216112Y812337D01*
X1216091Y812431D01*
X1216066Y812524D01*
X1216038Y812616D01*
X1216006Y812707D01*
X1215970Y812796D01*
X1215931Y812884D01*
X1215888Y812970D01*
X1215842Y813054D01*
X1215793Y813136D01*
X1215740Y813217D01*
X1215684Y813295D01*
X1215625Y813371D01*
X1215563Y813444D01*
X1215499Y813515D01*
X1215431Y813584D01*
X1215361Y813649D01*
X1215288Y813712D01*
X1215212Y813772D01*
X1215135Y813828D01*
X1215055Y813882D01*
X1214973Y813932D01*
X1214889Y813979D01*
X1214803Y814023D01*
X1214716Y814063D01*
X1214627Y814099D01*
X1214537Y814132D01*
X1214536Y814133D02*
X1214329Y814231D01*
X1214118Y814325D01*
X1213906Y814413D01*
X1213692Y814496D01*
X1213475Y814574D01*
X1213257Y814647D01*
X1213038Y814714D01*
X1212816Y814777D01*
X1212594Y814834D01*
X1212369Y814886D01*
X1212144Y814932D01*
X1211918Y814973D01*
X1211691Y815008D01*
X1211463Y815038D01*
X1211234Y815063D01*
X1211005Y815082D01*
X1210776Y815096D01*
X1210546Y815104D01*
X1210316Y815107D01*
X1210316Y808614D02*
X1210086Y808617D01*
X1209856Y808625D01*
X1209627Y808639D01*
X1209398Y808658D01*
X1209169Y808683D01*
X1208941Y808713D01*
X1208714Y808748D01*
X1208488Y808789D01*
X1208263Y808835D01*
X1208039Y808887D01*
X1207816Y808944D01*
X1207595Y809007D01*
X1207375Y809074D01*
X1207157Y809147D01*
X1206940Y809225D01*
X1206726Y809308D01*
X1206514Y809396D01*
X1206304Y809490D01*
X1206096Y809588D01*
X1206006Y809621D01*
X1205917Y809657D01*
X1205829Y809697D01*
X1205744Y809741D01*
X1205660Y809788D01*
X1205578Y809838D01*
X1205498Y809892D01*
X1205421Y809948D01*
X1205345Y810008D01*
X1205272Y810071D01*
X1205202Y810136D01*
X1205134Y810205D01*
X1205070Y810276D01*
X1205008Y810349D01*
X1204949Y810425D01*
X1204893Y810503D01*
X1204840Y810584D01*
X1204791Y810666D01*
X1204745Y810750D01*
X1204702Y810837D01*
X1204663Y810924D01*
X1204627Y811014D01*
X1204595Y811104D01*
X1204567Y811196D01*
X1204542Y811289D01*
X1204521Y811383D01*
X1204504Y811477D01*
X1204490Y811572D01*
X1204481Y811668D01*
X1204475Y811764D01*
X1204473Y811860D01*
X1206096Y814133D02*
X1206304Y814231D01*
X1206514Y814325D01*
X1206726Y814413D01*
X1206940Y814496D01*
X1207157Y814574D01*
X1207375Y814647D01*
X1207594Y814714D01*
X1207816Y814777D01*
X1208039Y814834D01*
X1208263Y814886D01*
X1208488Y814932D01*
X1208714Y814973D01*
X1208941Y815008D01*
X1209169Y815038D01*
X1209398Y815063D01*
X1209627Y815082D01*
X1209856Y815096D01*
X1210086Y815104D01*
X1210316Y815107D01*
X1206096Y814132D02*
X1206006Y814099D01*
X1205917Y814063D01*
X1205829Y814023D01*
X1205744Y813979D01*
X1205660Y813932D01*
X1205578Y813882D01*
X1205498Y813828D01*
X1205421Y813772D01*
X1205345Y813712D01*
X1205272Y813649D01*
X1205202Y813584D01*
X1205134Y813515D01*
X1205070Y813444D01*
X1205008Y813371D01*
X1204949Y813295D01*
X1204893Y813217D01*
X1204840Y813136D01*
X1204791Y813054D01*
X1204745Y812970D01*
X1204702Y812883D01*
X1204663Y812796D01*
X1204627Y812706D01*
X1204595Y812616D01*
X1204567Y812524D01*
X1204542Y812431D01*
X1204521Y812337D01*
X1204504Y812243D01*
X1204490Y812148D01*
X1204481Y812052D01*
X1204475Y811956D01*
X1204473Y811860D01*
X1207070Y809263D02*
X1213563Y814458D01*
X1213563Y820047D02*
X1216160Y823293D01*
X1204473Y823293D01*
X1204473Y820047D02*
X1204473Y826540D01*
D10*
X1164890Y797650D02*
X1164890Y777050D01*
X1138890Y777050D02*
X1138890Y797650D01*
D15*
X1151888Y780124D03*
D12*
X1136150Y762502D02*
X1124463Y762502D01*
X1136150Y762502D02*
X1136150Y765748D01*
X1136148Y765861D01*
X1136142Y765974D01*
X1136132Y766087D01*
X1136118Y766200D01*
X1136101Y766312D01*
X1136079Y766423D01*
X1136054Y766533D01*
X1136024Y766643D01*
X1135991Y766751D01*
X1135954Y766858D01*
X1135914Y766964D01*
X1135869Y767068D01*
X1135821Y767171D01*
X1135770Y767272D01*
X1135715Y767371D01*
X1135657Y767468D01*
X1135595Y767563D01*
X1135530Y767656D01*
X1135462Y767746D01*
X1135391Y767834D01*
X1135316Y767920D01*
X1135239Y768003D01*
X1135159Y768083D01*
X1135076Y768160D01*
X1134990Y768235D01*
X1134902Y768306D01*
X1134812Y768374D01*
X1134719Y768439D01*
X1134624Y768501D01*
X1134527Y768559D01*
X1134428Y768614D01*
X1134327Y768665D01*
X1134224Y768713D01*
X1134120Y768758D01*
X1134014Y768798D01*
X1133907Y768835D01*
X1133799Y768868D01*
X1133689Y768898D01*
X1133579Y768923D01*
X1133468Y768945D01*
X1133356Y768962D01*
X1133243Y768976D01*
X1133130Y768986D01*
X1133017Y768992D01*
X1132904Y768994D01*
X1127709Y768994D01*
X1127596Y768992D01*
X1127483Y768986D01*
X1127370Y768976D01*
X1127257Y768962D01*
X1127145Y768945D01*
X1127034Y768923D01*
X1126924Y768898D01*
X1126814Y768868D01*
X1126706Y768835D01*
X1126599Y768798D01*
X1126493Y768758D01*
X1126389Y768713D01*
X1126286Y768665D01*
X1126185Y768614D01*
X1126086Y768559D01*
X1125989Y768501D01*
X1125894Y768439D01*
X1125801Y768374D01*
X1125711Y768306D01*
X1125623Y768235D01*
X1125537Y768160D01*
X1125454Y768083D01*
X1125374Y768003D01*
X1125297Y767920D01*
X1125222Y767834D01*
X1125151Y767746D01*
X1125083Y767656D01*
X1125018Y767563D01*
X1124956Y767468D01*
X1124898Y767371D01*
X1124843Y767272D01*
X1124792Y767171D01*
X1124744Y767068D01*
X1124699Y766964D01*
X1124659Y766858D01*
X1124622Y766751D01*
X1124589Y766643D01*
X1124559Y766533D01*
X1124534Y766423D01*
X1124512Y766312D01*
X1124495Y766200D01*
X1124481Y766087D01*
X1124471Y765974D01*
X1124465Y765861D01*
X1124463Y765748D01*
X1124463Y762502D01*
X1127709Y774316D02*
X1132904Y774316D01*
X1133017Y774318D01*
X1133130Y774324D01*
X1133243Y774334D01*
X1133356Y774348D01*
X1133468Y774365D01*
X1133579Y774387D01*
X1133689Y774412D01*
X1133799Y774442D01*
X1133907Y774475D01*
X1134014Y774512D01*
X1134120Y774552D01*
X1134224Y774597D01*
X1134327Y774645D01*
X1134428Y774696D01*
X1134527Y774751D01*
X1134624Y774809D01*
X1134719Y774871D01*
X1134812Y774936D01*
X1134902Y775004D01*
X1134990Y775075D01*
X1135076Y775150D01*
X1135159Y775227D01*
X1135239Y775307D01*
X1135316Y775390D01*
X1135391Y775476D01*
X1135462Y775564D01*
X1135530Y775654D01*
X1135595Y775747D01*
X1135657Y775842D01*
X1135715Y775939D01*
X1135770Y776038D01*
X1135821Y776139D01*
X1135869Y776242D01*
X1135914Y776346D01*
X1135954Y776452D01*
X1135991Y776559D01*
X1136024Y776667D01*
X1136054Y776777D01*
X1136079Y776887D01*
X1136101Y776998D01*
X1136118Y777110D01*
X1136132Y777223D01*
X1136142Y777336D01*
X1136148Y777449D01*
X1136150Y777562D01*
X1136148Y777675D01*
X1136142Y777788D01*
X1136132Y777901D01*
X1136118Y778014D01*
X1136101Y778126D01*
X1136079Y778237D01*
X1136054Y778347D01*
X1136024Y778457D01*
X1135991Y778565D01*
X1135954Y778672D01*
X1135914Y778778D01*
X1135869Y778882D01*
X1135821Y778985D01*
X1135770Y779086D01*
X1135715Y779185D01*
X1135657Y779282D01*
X1135595Y779377D01*
X1135530Y779470D01*
X1135462Y779560D01*
X1135391Y779648D01*
X1135316Y779734D01*
X1135239Y779817D01*
X1135159Y779897D01*
X1135076Y779974D01*
X1134990Y780049D01*
X1134902Y780120D01*
X1134812Y780188D01*
X1134719Y780253D01*
X1134624Y780315D01*
X1134527Y780373D01*
X1134428Y780428D01*
X1134327Y780479D01*
X1134224Y780527D01*
X1134120Y780572D01*
X1134014Y780612D01*
X1133907Y780649D01*
X1133799Y780682D01*
X1133689Y780712D01*
X1133579Y780737D01*
X1133468Y780759D01*
X1133356Y780776D01*
X1133243Y780790D01*
X1133130Y780800D01*
X1133017Y780806D01*
X1132904Y780808D01*
X1127709Y780808D01*
X1127596Y780806D01*
X1127483Y780800D01*
X1127370Y780790D01*
X1127257Y780776D01*
X1127145Y780759D01*
X1127034Y780737D01*
X1126924Y780712D01*
X1126814Y780682D01*
X1126706Y780649D01*
X1126599Y780612D01*
X1126493Y780572D01*
X1126389Y780527D01*
X1126286Y780479D01*
X1126185Y780428D01*
X1126086Y780373D01*
X1125989Y780315D01*
X1125894Y780253D01*
X1125801Y780188D01*
X1125711Y780120D01*
X1125623Y780049D01*
X1125537Y779974D01*
X1125454Y779897D01*
X1125374Y779817D01*
X1125297Y779734D01*
X1125222Y779648D01*
X1125151Y779560D01*
X1125083Y779470D01*
X1125018Y779377D01*
X1124956Y779282D01*
X1124898Y779185D01*
X1124843Y779086D01*
X1124792Y778985D01*
X1124744Y778882D01*
X1124699Y778778D01*
X1124659Y778672D01*
X1124622Y778565D01*
X1124589Y778457D01*
X1124559Y778347D01*
X1124534Y778237D01*
X1124512Y778126D01*
X1124495Y778014D01*
X1124481Y777901D01*
X1124471Y777788D01*
X1124465Y777675D01*
X1124463Y777562D01*
X1124465Y777449D01*
X1124471Y777336D01*
X1124481Y777223D01*
X1124495Y777110D01*
X1124512Y776998D01*
X1124534Y776887D01*
X1124559Y776777D01*
X1124589Y776667D01*
X1124622Y776559D01*
X1124659Y776452D01*
X1124699Y776346D01*
X1124744Y776242D01*
X1124792Y776139D01*
X1124843Y776038D01*
X1124898Y775939D01*
X1124956Y775842D01*
X1125018Y775747D01*
X1125083Y775654D01*
X1125151Y775564D01*
X1125222Y775476D01*
X1125297Y775390D01*
X1125374Y775307D01*
X1125454Y775227D01*
X1125537Y775150D01*
X1125623Y775075D01*
X1125711Y775004D01*
X1125801Y774936D01*
X1125894Y774871D01*
X1125989Y774809D01*
X1126086Y774751D01*
X1126185Y774696D01*
X1126286Y774645D01*
X1126389Y774597D01*
X1126493Y774552D01*
X1126599Y774512D01*
X1126706Y774475D01*
X1126814Y774442D01*
X1126924Y774412D01*
X1127034Y774387D01*
X1127145Y774365D01*
X1127257Y774348D01*
X1127370Y774334D01*
X1127483Y774324D01*
X1127596Y774318D01*
X1127709Y774316D01*
X1136150Y785099D02*
X1124463Y788995D01*
X1136150Y792890D01*
X1133553Y797181D02*
X1136150Y800428D01*
X1124463Y800428D01*
X1124463Y803674D02*
X1124463Y797181D01*
X1130306Y808614D02*
X1130536Y808617D01*
X1130766Y808625D01*
X1130995Y808639D01*
X1131224Y808658D01*
X1131453Y808683D01*
X1131681Y808713D01*
X1131908Y808748D01*
X1132134Y808789D01*
X1132359Y808835D01*
X1132583Y808887D01*
X1132806Y808944D01*
X1133028Y809007D01*
X1133247Y809074D01*
X1133465Y809147D01*
X1133682Y809225D01*
X1133896Y809308D01*
X1134108Y809396D01*
X1134318Y809490D01*
X1134526Y809588D01*
X1134527Y809588D02*
X1134617Y809621D01*
X1134706Y809657D01*
X1134794Y809697D01*
X1134879Y809741D01*
X1134963Y809788D01*
X1135045Y809838D01*
X1135125Y809892D01*
X1135202Y809948D01*
X1135278Y810008D01*
X1135351Y810071D01*
X1135421Y810136D01*
X1135489Y810205D01*
X1135553Y810276D01*
X1135615Y810349D01*
X1135674Y810425D01*
X1135730Y810503D01*
X1135783Y810584D01*
X1135832Y810666D01*
X1135878Y810750D01*
X1135921Y810837D01*
X1135960Y810924D01*
X1135996Y811014D01*
X1136028Y811104D01*
X1136056Y811196D01*
X1136081Y811289D01*
X1136102Y811383D01*
X1136119Y811477D01*
X1136133Y811572D01*
X1136142Y811668D01*
X1136148Y811764D01*
X1136150Y811860D01*
X1136148Y811956D01*
X1136142Y812052D01*
X1136133Y812148D01*
X1136119Y812243D01*
X1136102Y812337D01*
X1136081Y812431D01*
X1136056Y812524D01*
X1136028Y812616D01*
X1135996Y812707D01*
X1135960Y812796D01*
X1135921Y812884D01*
X1135878Y812970D01*
X1135832Y813054D01*
X1135783Y813136D01*
X1135730Y813217D01*
X1135674Y813295D01*
X1135615Y813371D01*
X1135553Y813444D01*
X1135489Y813515D01*
X1135421Y813584D01*
X1135351Y813649D01*
X1135278Y813712D01*
X1135202Y813772D01*
X1135125Y813828D01*
X1135045Y813882D01*
X1134963Y813932D01*
X1134879Y813979D01*
X1134793Y814023D01*
X1134706Y814063D01*
X1134617Y814099D01*
X1134527Y814132D01*
X1134526Y814133D02*
X1134319Y814231D01*
X1134108Y814325D01*
X1133896Y814413D01*
X1133682Y814496D01*
X1133465Y814574D01*
X1133247Y814647D01*
X1133028Y814714D01*
X1132806Y814777D01*
X1132584Y814834D01*
X1132359Y814886D01*
X1132134Y814932D01*
X1131908Y814973D01*
X1131681Y815008D01*
X1131453Y815038D01*
X1131224Y815063D01*
X1130995Y815082D01*
X1130766Y815096D01*
X1130536Y815104D01*
X1130306Y815107D01*
X1130306Y808614D02*
X1130076Y808617D01*
X1129846Y808625D01*
X1129617Y808639D01*
X1129388Y808658D01*
X1129159Y808683D01*
X1128931Y808713D01*
X1128704Y808748D01*
X1128478Y808789D01*
X1128253Y808835D01*
X1128029Y808887D01*
X1127806Y808944D01*
X1127585Y809007D01*
X1127365Y809074D01*
X1127147Y809147D01*
X1126930Y809225D01*
X1126716Y809308D01*
X1126504Y809396D01*
X1126294Y809490D01*
X1126086Y809588D01*
X1125996Y809621D01*
X1125907Y809657D01*
X1125819Y809697D01*
X1125734Y809741D01*
X1125650Y809788D01*
X1125568Y809838D01*
X1125488Y809892D01*
X1125411Y809948D01*
X1125335Y810008D01*
X1125262Y810071D01*
X1125192Y810136D01*
X1125124Y810205D01*
X1125060Y810276D01*
X1124998Y810349D01*
X1124939Y810425D01*
X1124883Y810503D01*
X1124830Y810584D01*
X1124781Y810666D01*
X1124735Y810750D01*
X1124692Y810837D01*
X1124653Y810924D01*
X1124617Y811014D01*
X1124585Y811104D01*
X1124557Y811196D01*
X1124532Y811289D01*
X1124511Y811383D01*
X1124494Y811477D01*
X1124480Y811572D01*
X1124471Y811668D01*
X1124465Y811764D01*
X1124463Y811860D01*
X1126086Y814133D02*
X1126294Y814231D01*
X1126504Y814325D01*
X1126716Y814413D01*
X1126930Y814496D01*
X1127147Y814574D01*
X1127365Y814647D01*
X1127584Y814714D01*
X1127806Y814777D01*
X1128029Y814834D01*
X1128253Y814886D01*
X1128478Y814932D01*
X1128704Y814973D01*
X1128931Y815008D01*
X1129159Y815038D01*
X1129388Y815063D01*
X1129617Y815082D01*
X1129846Y815096D01*
X1130076Y815104D01*
X1130306Y815107D01*
X1126086Y814132D02*
X1125996Y814099D01*
X1125907Y814063D01*
X1125819Y814023D01*
X1125734Y813979D01*
X1125650Y813932D01*
X1125568Y813882D01*
X1125488Y813828D01*
X1125411Y813772D01*
X1125335Y813712D01*
X1125262Y813649D01*
X1125192Y813584D01*
X1125124Y813515D01*
X1125060Y813444D01*
X1124998Y813371D01*
X1124939Y813295D01*
X1124883Y813217D01*
X1124830Y813136D01*
X1124781Y813054D01*
X1124735Y812970D01*
X1124692Y812883D01*
X1124653Y812796D01*
X1124617Y812706D01*
X1124585Y812616D01*
X1124557Y812524D01*
X1124532Y812431D01*
X1124511Y812337D01*
X1124494Y812243D01*
X1124480Y812148D01*
X1124471Y812052D01*
X1124465Y811956D01*
X1124463Y811860D01*
X1127060Y809263D02*
X1133553Y814458D01*
X1136150Y823618D02*
X1136148Y823725D01*
X1136142Y823831D01*
X1136132Y823938D01*
X1136119Y824043D01*
X1136101Y824149D01*
X1136080Y824253D01*
X1136055Y824357D01*
X1136026Y824460D01*
X1135993Y824561D01*
X1135957Y824662D01*
X1135917Y824761D01*
X1135874Y824858D01*
X1135827Y824954D01*
X1135776Y825048D01*
X1135722Y825140D01*
X1135665Y825230D01*
X1135604Y825318D01*
X1135541Y825404D01*
X1135474Y825487D01*
X1135404Y825568D01*
X1135332Y825646D01*
X1135256Y825722D01*
X1135178Y825794D01*
X1135097Y825864D01*
X1135014Y825931D01*
X1134928Y825994D01*
X1134840Y826055D01*
X1134750Y826112D01*
X1134658Y826166D01*
X1134564Y826217D01*
X1134468Y826264D01*
X1134371Y826307D01*
X1134272Y826347D01*
X1134171Y826383D01*
X1134070Y826416D01*
X1133967Y826445D01*
X1133863Y826470D01*
X1133759Y826491D01*
X1133653Y826509D01*
X1133548Y826522D01*
X1133441Y826532D01*
X1133335Y826538D01*
X1133228Y826540D01*
X1136150Y823618D02*
X1136148Y823497D01*
X1136142Y823376D01*
X1136132Y823255D01*
X1136119Y823135D01*
X1136101Y823015D01*
X1136080Y822896D01*
X1136055Y822778D01*
X1136026Y822660D01*
X1135993Y822544D01*
X1135957Y822428D01*
X1135916Y822314D01*
X1135872Y822201D01*
X1135825Y822090D01*
X1135774Y821980D01*
X1135719Y821872D01*
X1135661Y821766D01*
X1135600Y821662D01*
X1135535Y821559D01*
X1135467Y821459D01*
X1135396Y821361D01*
X1135322Y821266D01*
X1135244Y821173D01*
X1135164Y821082D01*
X1135081Y820994D01*
X1134995Y820909D01*
X1134906Y820827D01*
X1134815Y820747D01*
X1134721Y820671D01*
X1134625Y820597D01*
X1134526Y820527D01*
X1134425Y820460D01*
X1134323Y820396D01*
X1134218Y820336D01*
X1134111Y820279D01*
X1134002Y820225D01*
X1133892Y820175D01*
X1133780Y820129D01*
X1133667Y820086D01*
X1133553Y820047D01*
X1130956Y825565D02*
X1131033Y825644D01*
X1131114Y825720D01*
X1131196Y825793D01*
X1131282Y825863D01*
X1131370Y825930D01*
X1131460Y825993D01*
X1131552Y826054D01*
X1131647Y826111D01*
X1131743Y826165D01*
X1131841Y826216D01*
X1131941Y826263D01*
X1132043Y826307D01*
X1132146Y826347D01*
X1132250Y826383D01*
X1132356Y826415D01*
X1132462Y826444D01*
X1132570Y826469D01*
X1132678Y826491D01*
X1132788Y826508D01*
X1132897Y826522D01*
X1133007Y826531D01*
X1133118Y826537D01*
X1133228Y826539D01*
X1130956Y825566D02*
X1124463Y820047D01*
X1124463Y826540D01*
D10*
X1100120Y797650D02*
X1100120Y777050D01*
X1074120Y777050D02*
X1074120Y797650D01*
D15*
X1087118Y780124D03*
D12*
X1106683Y762502D02*
X1118370Y762502D01*
X1118370Y765748D01*
X1118368Y765861D01*
X1118362Y765974D01*
X1118352Y766087D01*
X1118338Y766200D01*
X1118321Y766312D01*
X1118299Y766423D01*
X1118274Y766533D01*
X1118244Y766643D01*
X1118211Y766751D01*
X1118174Y766858D01*
X1118134Y766964D01*
X1118089Y767068D01*
X1118041Y767171D01*
X1117990Y767272D01*
X1117935Y767371D01*
X1117877Y767468D01*
X1117815Y767563D01*
X1117750Y767656D01*
X1117682Y767746D01*
X1117611Y767834D01*
X1117536Y767920D01*
X1117459Y768003D01*
X1117379Y768083D01*
X1117296Y768160D01*
X1117210Y768235D01*
X1117122Y768306D01*
X1117032Y768374D01*
X1116939Y768439D01*
X1116844Y768501D01*
X1116747Y768559D01*
X1116648Y768614D01*
X1116547Y768665D01*
X1116444Y768713D01*
X1116340Y768758D01*
X1116234Y768798D01*
X1116127Y768835D01*
X1116019Y768868D01*
X1115909Y768898D01*
X1115799Y768923D01*
X1115688Y768945D01*
X1115576Y768962D01*
X1115463Y768976D01*
X1115350Y768986D01*
X1115237Y768992D01*
X1115124Y768994D01*
X1109929Y768994D01*
X1109816Y768992D01*
X1109703Y768986D01*
X1109590Y768976D01*
X1109477Y768962D01*
X1109365Y768945D01*
X1109254Y768923D01*
X1109144Y768898D01*
X1109034Y768868D01*
X1108926Y768835D01*
X1108819Y768798D01*
X1108713Y768758D01*
X1108609Y768713D01*
X1108506Y768665D01*
X1108405Y768614D01*
X1108306Y768559D01*
X1108209Y768501D01*
X1108114Y768439D01*
X1108021Y768374D01*
X1107931Y768306D01*
X1107843Y768235D01*
X1107757Y768160D01*
X1107674Y768083D01*
X1107594Y768003D01*
X1107517Y767920D01*
X1107442Y767834D01*
X1107371Y767746D01*
X1107303Y767656D01*
X1107238Y767563D01*
X1107176Y767468D01*
X1107118Y767371D01*
X1107063Y767272D01*
X1107012Y767171D01*
X1106964Y767068D01*
X1106919Y766964D01*
X1106879Y766858D01*
X1106842Y766751D01*
X1106809Y766643D01*
X1106779Y766533D01*
X1106754Y766423D01*
X1106732Y766312D01*
X1106715Y766200D01*
X1106701Y766087D01*
X1106691Y765974D01*
X1106685Y765861D01*
X1106683Y765748D01*
X1106683Y762502D01*
X1109929Y774316D02*
X1115124Y774316D01*
X1115237Y774318D01*
X1115350Y774324D01*
X1115463Y774334D01*
X1115576Y774348D01*
X1115688Y774365D01*
X1115799Y774387D01*
X1115909Y774412D01*
X1116019Y774442D01*
X1116127Y774475D01*
X1116234Y774512D01*
X1116340Y774552D01*
X1116444Y774597D01*
X1116547Y774645D01*
X1116648Y774696D01*
X1116747Y774751D01*
X1116844Y774809D01*
X1116939Y774871D01*
X1117032Y774936D01*
X1117122Y775004D01*
X1117210Y775075D01*
X1117296Y775150D01*
X1117379Y775227D01*
X1117459Y775307D01*
X1117536Y775390D01*
X1117611Y775476D01*
X1117682Y775564D01*
X1117750Y775654D01*
X1117815Y775747D01*
X1117877Y775842D01*
X1117935Y775939D01*
X1117990Y776038D01*
X1118041Y776139D01*
X1118089Y776242D01*
X1118134Y776346D01*
X1118174Y776452D01*
X1118211Y776559D01*
X1118244Y776667D01*
X1118274Y776777D01*
X1118299Y776887D01*
X1118321Y776998D01*
X1118338Y777110D01*
X1118352Y777223D01*
X1118362Y777336D01*
X1118368Y777449D01*
X1118370Y777562D01*
X1118368Y777675D01*
X1118362Y777788D01*
X1118352Y777901D01*
X1118338Y778014D01*
X1118321Y778126D01*
X1118299Y778237D01*
X1118274Y778347D01*
X1118244Y778457D01*
X1118211Y778565D01*
X1118174Y778672D01*
X1118134Y778778D01*
X1118089Y778882D01*
X1118041Y778985D01*
X1117990Y779086D01*
X1117935Y779185D01*
X1117877Y779282D01*
X1117815Y779377D01*
X1117750Y779470D01*
X1117682Y779560D01*
X1117611Y779648D01*
X1117536Y779734D01*
X1117459Y779817D01*
X1117379Y779897D01*
X1117296Y779974D01*
X1117210Y780049D01*
X1117122Y780120D01*
X1117032Y780188D01*
X1116939Y780253D01*
X1116844Y780315D01*
X1116747Y780373D01*
X1116648Y780428D01*
X1116547Y780479D01*
X1116444Y780527D01*
X1116340Y780572D01*
X1116234Y780612D01*
X1116127Y780649D01*
X1116019Y780682D01*
X1115909Y780712D01*
X1115799Y780737D01*
X1115688Y780759D01*
X1115576Y780776D01*
X1115463Y780790D01*
X1115350Y780800D01*
X1115237Y780806D01*
X1115124Y780808D01*
X1109929Y780808D01*
X1109816Y780806D01*
X1109703Y780800D01*
X1109590Y780790D01*
X1109477Y780776D01*
X1109365Y780759D01*
X1109254Y780737D01*
X1109144Y780712D01*
X1109034Y780682D01*
X1108926Y780649D01*
X1108819Y780612D01*
X1108713Y780572D01*
X1108609Y780527D01*
X1108506Y780479D01*
X1108405Y780428D01*
X1108306Y780373D01*
X1108209Y780315D01*
X1108114Y780253D01*
X1108021Y780188D01*
X1107931Y780120D01*
X1107843Y780049D01*
X1107757Y779974D01*
X1107674Y779897D01*
X1107594Y779817D01*
X1107517Y779734D01*
X1107442Y779648D01*
X1107371Y779560D01*
X1107303Y779470D01*
X1107238Y779377D01*
X1107176Y779282D01*
X1107118Y779185D01*
X1107063Y779086D01*
X1107012Y778985D01*
X1106964Y778882D01*
X1106919Y778778D01*
X1106879Y778672D01*
X1106842Y778565D01*
X1106809Y778457D01*
X1106779Y778347D01*
X1106754Y778237D01*
X1106732Y778126D01*
X1106715Y778014D01*
X1106701Y777901D01*
X1106691Y777788D01*
X1106685Y777675D01*
X1106683Y777562D01*
X1106685Y777449D01*
X1106691Y777336D01*
X1106701Y777223D01*
X1106715Y777110D01*
X1106732Y776998D01*
X1106754Y776887D01*
X1106779Y776777D01*
X1106809Y776667D01*
X1106842Y776559D01*
X1106879Y776452D01*
X1106919Y776346D01*
X1106964Y776242D01*
X1107012Y776139D01*
X1107063Y776038D01*
X1107118Y775939D01*
X1107176Y775842D01*
X1107238Y775747D01*
X1107303Y775654D01*
X1107371Y775564D01*
X1107442Y775476D01*
X1107517Y775390D01*
X1107594Y775307D01*
X1107674Y775227D01*
X1107757Y775150D01*
X1107843Y775075D01*
X1107931Y775004D01*
X1108021Y774936D01*
X1108114Y774871D01*
X1108209Y774809D01*
X1108306Y774751D01*
X1108405Y774696D01*
X1108506Y774645D01*
X1108609Y774597D01*
X1108713Y774552D01*
X1108819Y774512D01*
X1108926Y774475D01*
X1109034Y774442D01*
X1109144Y774412D01*
X1109254Y774387D01*
X1109365Y774365D01*
X1109477Y774348D01*
X1109590Y774334D01*
X1109703Y774324D01*
X1109816Y774318D01*
X1109929Y774316D01*
X1118370Y785099D02*
X1106683Y788995D01*
X1118370Y792890D01*
X1115773Y797181D02*
X1118370Y800428D01*
X1106683Y800428D01*
X1106683Y803674D02*
X1106683Y797181D01*
X1112526Y808614D02*
X1112756Y808617D01*
X1112986Y808625D01*
X1113215Y808639D01*
X1113444Y808658D01*
X1113673Y808683D01*
X1113901Y808713D01*
X1114128Y808748D01*
X1114354Y808789D01*
X1114579Y808835D01*
X1114803Y808887D01*
X1115026Y808944D01*
X1115248Y809007D01*
X1115467Y809074D01*
X1115685Y809147D01*
X1115902Y809225D01*
X1116116Y809308D01*
X1116328Y809396D01*
X1116538Y809490D01*
X1116746Y809588D01*
X1116747Y809588D02*
X1116837Y809621D01*
X1116926Y809657D01*
X1117014Y809697D01*
X1117099Y809741D01*
X1117183Y809788D01*
X1117265Y809838D01*
X1117345Y809892D01*
X1117422Y809948D01*
X1117498Y810008D01*
X1117571Y810071D01*
X1117641Y810136D01*
X1117709Y810205D01*
X1117773Y810276D01*
X1117835Y810349D01*
X1117894Y810425D01*
X1117950Y810503D01*
X1118003Y810584D01*
X1118052Y810666D01*
X1118098Y810750D01*
X1118141Y810837D01*
X1118180Y810924D01*
X1118216Y811014D01*
X1118248Y811104D01*
X1118276Y811196D01*
X1118301Y811289D01*
X1118322Y811383D01*
X1118339Y811477D01*
X1118353Y811572D01*
X1118362Y811668D01*
X1118368Y811764D01*
X1118370Y811860D01*
X1118368Y811956D01*
X1118362Y812052D01*
X1118353Y812148D01*
X1118339Y812243D01*
X1118322Y812337D01*
X1118301Y812431D01*
X1118276Y812524D01*
X1118248Y812616D01*
X1118216Y812707D01*
X1118180Y812796D01*
X1118141Y812884D01*
X1118098Y812970D01*
X1118052Y813054D01*
X1118003Y813136D01*
X1117950Y813217D01*
X1117894Y813295D01*
X1117835Y813371D01*
X1117773Y813444D01*
X1117709Y813515D01*
X1117641Y813584D01*
X1117571Y813649D01*
X1117498Y813712D01*
X1117422Y813772D01*
X1117345Y813828D01*
X1117265Y813882D01*
X1117183Y813932D01*
X1117099Y813979D01*
X1117013Y814023D01*
X1116926Y814063D01*
X1116837Y814099D01*
X1116747Y814132D01*
X1116746Y814133D02*
X1116539Y814231D01*
X1116328Y814325D01*
X1116116Y814413D01*
X1115902Y814496D01*
X1115685Y814574D01*
X1115467Y814647D01*
X1115248Y814714D01*
X1115026Y814777D01*
X1114804Y814834D01*
X1114579Y814886D01*
X1114354Y814932D01*
X1114128Y814973D01*
X1113901Y815008D01*
X1113673Y815038D01*
X1113444Y815063D01*
X1113215Y815082D01*
X1112986Y815096D01*
X1112756Y815104D01*
X1112526Y815107D01*
X1112526Y808614D02*
X1112296Y808617D01*
X1112066Y808625D01*
X1111837Y808639D01*
X1111608Y808658D01*
X1111379Y808683D01*
X1111151Y808713D01*
X1110924Y808748D01*
X1110698Y808789D01*
X1110473Y808835D01*
X1110249Y808887D01*
X1110026Y808944D01*
X1109805Y809007D01*
X1109585Y809074D01*
X1109367Y809147D01*
X1109150Y809225D01*
X1108936Y809308D01*
X1108724Y809396D01*
X1108514Y809490D01*
X1108306Y809588D01*
X1108216Y809621D01*
X1108127Y809657D01*
X1108039Y809697D01*
X1107954Y809741D01*
X1107870Y809788D01*
X1107788Y809838D01*
X1107708Y809892D01*
X1107631Y809948D01*
X1107555Y810008D01*
X1107482Y810071D01*
X1107412Y810136D01*
X1107344Y810205D01*
X1107280Y810276D01*
X1107218Y810349D01*
X1107159Y810425D01*
X1107103Y810503D01*
X1107050Y810584D01*
X1107001Y810666D01*
X1106955Y810750D01*
X1106912Y810837D01*
X1106873Y810924D01*
X1106837Y811014D01*
X1106805Y811104D01*
X1106777Y811196D01*
X1106752Y811289D01*
X1106731Y811383D01*
X1106714Y811477D01*
X1106700Y811572D01*
X1106691Y811668D01*
X1106685Y811764D01*
X1106683Y811860D01*
X1108306Y814133D02*
X1108514Y814231D01*
X1108724Y814325D01*
X1108936Y814413D01*
X1109150Y814496D01*
X1109367Y814574D01*
X1109585Y814647D01*
X1109804Y814714D01*
X1110026Y814777D01*
X1110249Y814834D01*
X1110473Y814886D01*
X1110698Y814932D01*
X1110924Y814973D01*
X1111151Y815008D01*
X1111379Y815038D01*
X1111608Y815063D01*
X1111837Y815082D01*
X1112066Y815096D01*
X1112296Y815104D01*
X1112526Y815107D01*
X1108306Y814132D02*
X1108216Y814099D01*
X1108127Y814063D01*
X1108039Y814023D01*
X1107954Y813979D01*
X1107870Y813932D01*
X1107788Y813882D01*
X1107708Y813828D01*
X1107631Y813772D01*
X1107555Y813712D01*
X1107482Y813649D01*
X1107412Y813584D01*
X1107344Y813515D01*
X1107280Y813444D01*
X1107218Y813371D01*
X1107159Y813295D01*
X1107103Y813217D01*
X1107050Y813136D01*
X1107001Y813054D01*
X1106955Y812970D01*
X1106912Y812883D01*
X1106873Y812796D01*
X1106837Y812706D01*
X1106805Y812616D01*
X1106777Y812524D01*
X1106752Y812431D01*
X1106731Y812337D01*
X1106714Y812243D01*
X1106700Y812148D01*
X1106691Y812052D01*
X1106685Y811956D01*
X1106683Y811860D01*
X1109280Y809263D02*
X1115773Y814458D01*
X1106683Y820047D02*
X1106683Y823293D01*
X1106685Y823406D01*
X1106691Y823519D01*
X1106701Y823632D01*
X1106715Y823745D01*
X1106732Y823857D01*
X1106754Y823968D01*
X1106779Y824078D01*
X1106809Y824188D01*
X1106842Y824296D01*
X1106879Y824403D01*
X1106919Y824509D01*
X1106964Y824613D01*
X1107012Y824716D01*
X1107063Y824817D01*
X1107118Y824916D01*
X1107176Y825013D01*
X1107238Y825108D01*
X1107303Y825201D01*
X1107371Y825291D01*
X1107442Y825379D01*
X1107517Y825465D01*
X1107594Y825548D01*
X1107674Y825628D01*
X1107757Y825705D01*
X1107843Y825780D01*
X1107931Y825851D01*
X1108021Y825919D01*
X1108114Y825984D01*
X1108209Y826046D01*
X1108306Y826104D01*
X1108405Y826159D01*
X1108506Y826210D01*
X1108609Y826258D01*
X1108713Y826303D01*
X1108819Y826343D01*
X1108926Y826380D01*
X1109034Y826413D01*
X1109144Y826443D01*
X1109254Y826468D01*
X1109365Y826490D01*
X1109477Y826507D01*
X1109590Y826521D01*
X1109703Y826531D01*
X1109816Y826537D01*
X1109929Y826539D01*
X1110042Y826537D01*
X1110155Y826531D01*
X1110268Y826521D01*
X1110381Y826507D01*
X1110493Y826490D01*
X1110604Y826468D01*
X1110714Y826443D01*
X1110824Y826413D01*
X1110932Y826380D01*
X1111039Y826343D01*
X1111145Y826303D01*
X1111249Y826258D01*
X1111352Y826210D01*
X1111453Y826159D01*
X1111552Y826104D01*
X1111649Y826046D01*
X1111744Y825984D01*
X1111837Y825919D01*
X1111927Y825851D01*
X1112015Y825780D01*
X1112101Y825705D01*
X1112184Y825628D01*
X1112264Y825548D01*
X1112341Y825465D01*
X1112416Y825379D01*
X1112487Y825291D01*
X1112555Y825201D01*
X1112620Y825108D01*
X1112682Y825013D01*
X1112740Y824916D01*
X1112795Y824817D01*
X1112846Y824716D01*
X1112894Y824613D01*
X1112939Y824509D01*
X1112979Y824403D01*
X1113016Y824296D01*
X1113049Y824188D01*
X1113079Y824078D01*
X1113104Y823968D01*
X1113126Y823857D01*
X1113143Y823745D01*
X1113157Y823632D01*
X1113167Y823519D01*
X1113173Y823406D01*
X1113175Y823293D01*
X1118370Y823942D02*
X1118370Y820047D01*
X1118370Y823942D02*
X1118368Y824043D01*
X1118362Y824143D01*
X1118352Y824243D01*
X1118339Y824343D01*
X1118321Y824442D01*
X1118300Y824541D01*
X1118275Y824638D01*
X1118246Y824735D01*
X1118213Y824830D01*
X1118177Y824924D01*
X1118137Y825017D01*
X1118094Y825108D01*
X1118047Y825197D01*
X1117996Y825284D01*
X1117943Y825369D01*
X1117886Y825452D01*
X1117826Y825533D01*
X1117762Y825611D01*
X1117696Y825687D01*
X1117627Y825760D01*
X1117555Y825831D01*
X1117481Y825899D01*
X1117403Y825963D01*
X1117324Y826025D01*
X1117242Y826084D01*
X1117158Y826139D01*
X1117072Y826191D01*
X1116983Y826240D01*
X1116893Y826285D01*
X1116802Y826327D01*
X1116708Y826365D01*
X1116614Y826399D01*
X1116518Y826430D01*
X1116421Y826457D01*
X1116323Y826480D01*
X1116224Y826500D01*
X1116124Y826515D01*
X1116024Y826527D01*
X1115924Y826535D01*
X1115823Y826539D01*
X1115723Y826539D01*
X1115622Y826535D01*
X1115522Y826527D01*
X1115422Y826515D01*
X1115322Y826500D01*
X1115223Y826480D01*
X1115125Y826457D01*
X1115028Y826430D01*
X1114932Y826399D01*
X1114838Y826365D01*
X1114744Y826327D01*
X1114653Y826285D01*
X1114563Y826240D01*
X1114475Y826191D01*
X1114388Y826139D01*
X1114304Y826084D01*
X1114222Y826025D01*
X1114143Y825963D01*
X1114065Y825899D01*
X1113991Y825831D01*
X1113919Y825760D01*
X1113850Y825687D01*
X1113784Y825611D01*
X1113720Y825533D01*
X1113660Y825452D01*
X1113603Y825369D01*
X1113550Y825284D01*
X1113499Y825197D01*
X1113452Y825108D01*
X1113409Y825017D01*
X1113369Y824924D01*
X1113333Y824830D01*
X1113300Y824735D01*
X1113271Y824638D01*
X1113246Y824541D01*
X1113225Y824442D01*
X1113207Y824343D01*
X1113194Y824243D01*
X1113184Y824143D01*
X1113178Y824043D01*
X1113176Y823942D01*
X1113176Y821345D01*
D10*
X1265220Y797650D02*
X1265220Y777050D01*
X1239220Y777050D02*
X1239220Y797650D01*
D15*
X1252218Y780124D03*
D12*
X1237750Y762502D02*
X1226063Y762502D01*
X1237750Y762502D02*
X1237750Y765748D01*
X1237748Y765861D01*
X1237742Y765974D01*
X1237732Y766087D01*
X1237718Y766200D01*
X1237701Y766312D01*
X1237679Y766423D01*
X1237654Y766533D01*
X1237624Y766643D01*
X1237591Y766751D01*
X1237554Y766858D01*
X1237514Y766964D01*
X1237469Y767068D01*
X1237421Y767171D01*
X1237370Y767272D01*
X1237315Y767371D01*
X1237257Y767468D01*
X1237195Y767563D01*
X1237130Y767656D01*
X1237062Y767746D01*
X1236991Y767834D01*
X1236916Y767920D01*
X1236839Y768003D01*
X1236759Y768083D01*
X1236676Y768160D01*
X1236590Y768235D01*
X1236502Y768306D01*
X1236412Y768374D01*
X1236319Y768439D01*
X1236224Y768501D01*
X1236127Y768559D01*
X1236028Y768614D01*
X1235927Y768665D01*
X1235824Y768713D01*
X1235720Y768758D01*
X1235614Y768798D01*
X1235507Y768835D01*
X1235399Y768868D01*
X1235289Y768898D01*
X1235179Y768923D01*
X1235068Y768945D01*
X1234956Y768962D01*
X1234843Y768976D01*
X1234730Y768986D01*
X1234617Y768992D01*
X1234504Y768994D01*
X1229309Y768994D01*
X1229196Y768992D01*
X1229083Y768986D01*
X1228970Y768976D01*
X1228857Y768962D01*
X1228745Y768945D01*
X1228634Y768923D01*
X1228524Y768898D01*
X1228414Y768868D01*
X1228306Y768835D01*
X1228199Y768798D01*
X1228093Y768758D01*
X1227989Y768713D01*
X1227886Y768665D01*
X1227785Y768614D01*
X1227686Y768559D01*
X1227589Y768501D01*
X1227494Y768439D01*
X1227401Y768374D01*
X1227311Y768306D01*
X1227223Y768235D01*
X1227137Y768160D01*
X1227054Y768083D01*
X1226974Y768003D01*
X1226897Y767920D01*
X1226822Y767834D01*
X1226751Y767746D01*
X1226683Y767656D01*
X1226618Y767563D01*
X1226556Y767468D01*
X1226498Y767371D01*
X1226443Y767272D01*
X1226392Y767171D01*
X1226344Y767068D01*
X1226299Y766964D01*
X1226259Y766858D01*
X1226222Y766751D01*
X1226189Y766643D01*
X1226159Y766533D01*
X1226134Y766423D01*
X1226112Y766312D01*
X1226095Y766200D01*
X1226081Y766087D01*
X1226071Y765974D01*
X1226065Y765861D01*
X1226063Y765748D01*
X1226063Y762502D01*
X1229309Y774316D02*
X1234504Y774316D01*
X1234617Y774318D01*
X1234730Y774324D01*
X1234843Y774334D01*
X1234956Y774348D01*
X1235068Y774365D01*
X1235179Y774387D01*
X1235289Y774412D01*
X1235399Y774442D01*
X1235507Y774475D01*
X1235614Y774512D01*
X1235720Y774552D01*
X1235824Y774597D01*
X1235927Y774645D01*
X1236028Y774696D01*
X1236127Y774751D01*
X1236224Y774809D01*
X1236319Y774871D01*
X1236412Y774936D01*
X1236502Y775004D01*
X1236590Y775075D01*
X1236676Y775150D01*
X1236759Y775227D01*
X1236839Y775307D01*
X1236916Y775390D01*
X1236991Y775476D01*
X1237062Y775564D01*
X1237130Y775654D01*
X1237195Y775747D01*
X1237257Y775842D01*
X1237315Y775939D01*
X1237370Y776038D01*
X1237421Y776139D01*
X1237469Y776242D01*
X1237514Y776346D01*
X1237554Y776452D01*
X1237591Y776559D01*
X1237624Y776667D01*
X1237654Y776777D01*
X1237679Y776887D01*
X1237701Y776998D01*
X1237718Y777110D01*
X1237732Y777223D01*
X1237742Y777336D01*
X1237748Y777449D01*
X1237750Y777562D01*
X1237748Y777675D01*
X1237742Y777788D01*
X1237732Y777901D01*
X1237718Y778014D01*
X1237701Y778126D01*
X1237679Y778237D01*
X1237654Y778347D01*
X1237624Y778457D01*
X1237591Y778565D01*
X1237554Y778672D01*
X1237514Y778778D01*
X1237469Y778882D01*
X1237421Y778985D01*
X1237370Y779086D01*
X1237315Y779185D01*
X1237257Y779282D01*
X1237195Y779377D01*
X1237130Y779470D01*
X1237062Y779560D01*
X1236991Y779648D01*
X1236916Y779734D01*
X1236839Y779817D01*
X1236759Y779897D01*
X1236676Y779974D01*
X1236590Y780049D01*
X1236502Y780120D01*
X1236412Y780188D01*
X1236319Y780253D01*
X1236224Y780315D01*
X1236127Y780373D01*
X1236028Y780428D01*
X1235927Y780479D01*
X1235824Y780527D01*
X1235720Y780572D01*
X1235614Y780612D01*
X1235507Y780649D01*
X1235399Y780682D01*
X1235289Y780712D01*
X1235179Y780737D01*
X1235068Y780759D01*
X1234956Y780776D01*
X1234843Y780790D01*
X1234730Y780800D01*
X1234617Y780806D01*
X1234504Y780808D01*
X1229309Y780808D01*
X1229196Y780806D01*
X1229083Y780800D01*
X1228970Y780790D01*
X1228857Y780776D01*
X1228745Y780759D01*
X1228634Y780737D01*
X1228524Y780712D01*
X1228414Y780682D01*
X1228306Y780649D01*
X1228199Y780612D01*
X1228093Y780572D01*
X1227989Y780527D01*
X1227886Y780479D01*
X1227785Y780428D01*
X1227686Y780373D01*
X1227589Y780315D01*
X1227494Y780253D01*
X1227401Y780188D01*
X1227311Y780120D01*
X1227223Y780049D01*
X1227137Y779974D01*
X1227054Y779897D01*
X1226974Y779817D01*
X1226897Y779734D01*
X1226822Y779648D01*
X1226751Y779560D01*
X1226683Y779470D01*
X1226618Y779377D01*
X1226556Y779282D01*
X1226498Y779185D01*
X1226443Y779086D01*
X1226392Y778985D01*
X1226344Y778882D01*
X1226299Y778778D01*
X1226259Y778672D01*
X1226222Y778565D01*
X1226189Y778457D01*
X1226159Y778347D01*
X1226134Y778237D01*
X1226112Y778126D01*
X1226095Y778014D01*
X1226081Y777901D01*
X1226071Y777788D01*
X1226065Y777675D01*
X1226063Y777562D01*
X1226065Y777449D01*
X1226071Y777336D01*
X1226081Y777223D01*
X1226095Y777110D01*
X1226112Y776998D01*
X1226134Y776887D01*
X1226159Y776777D01*
X1226189Y776667D01*
X1226222Y776559D01*
X1226259Y776452D01*
X1226299Y776346D01*
X1226344Y776242D01*
X1226392Y776139D01*
X1226443Y776038D01*
X1226498Y775939D01*
X1226556Y775842D01*
X1226618Y775747D01*
X1226683Y775654D01*
X1226751Y775564D01*
X1226822Y775476D01*
X1226897Y775390D01*
X1226974Y775307D01*
X1227054Y775227D01*
X1227137Y775150D01*
X1227223Y775075D01*
X1227311Y775004D01*
X1227401Y774936D01*
X1227494Y774871D01*
X1227589Y774809D01*
X1227686Y774751D01*
X1227785Y774696D01*
X1227886Y774645D01*
X1227989Y774597D01*
X1228093Y774552D01*
X1228199Y774512D01*
X1228306Y774475D01*
X1228414Y774442D01*
X1228524Y774412D01*
X1228634Y774387D01*
X1228745Y774365D01*
X1228857Y774348D01*
X1228970Y774334D01*
X1229083Y774324D01*
X1229196Y774318D01*
X1229309Y774316D01*
X1237750Y785099D02*
X1226063Y788995D01*
X1237750Y792890D01*
X1235153Y797181D02*
X1237750Y800428D01*
X1226063Y800428D01*
X1226063Y803674D02*
X1226063Y797181D01*
X1231906Y808614D02*
X1232136Y808617D01*
X1232366Y808625D01*
X1232595Y808639D01*
X1232824Y808658D01*
X1233053Y808683D01*
X1233281Y808713D01*
X1233508Y808748D01*
X1233734Y808789D01*
X1233959Y808835D01*
X1234183Y808887D01*
X1234406Y808944D01*
X1234628Y809007D01*
X1234847Y809074D01*
X1235065Y809147D01*
X1235282Y809225D01*
X1235496Y809308D01*
X1235708Y809396D01*
X1235918Y809490D01*
X1236126Y809588D01*
X1236127Y809588D02*
X1236217Y809621D01*
X1236306Y809657D01*
X1236394Y809697D01*
X1236479Y809741D01*
X1236563Y809788D01*
X1236645Y809838D01*
X1236725Y809892D01*
X1236802Y809948D01*
X1236878Y810008D01*
X1236951Y810071D01*
X1237021Y810136D01*
X1237089Y810205D01*
X1237153Y810276D01*
X1237215Y810349D01*
X1237274Y810425D01*
X1237330Y810503D01*
X1237383Y810584D01*
X1237432Y810666D01*
X1237478Y810750D01*
X1237521Y810837D01*
X1237560Y810924D01*
X1237596Y811014D01*
X1237628Y811104D01*
X1237656Y811196D01*
X1237681Y811289D01*
X1237702Y811383D01*
X1237719Y811477D01*
X1237733Y811572D01*
X1237742Y811668D01*
X1237748Y811764D01*
X1237750Y811860D01*
X1237748Y811956D01*
X1237742Y812052D01*
X1237733Y812148D01*
X1237719Y812243D01*
X1237702Y812337D01*
X1237681Y812431D01*
X1237656Y812524D01*
X1237628Y812616D01*
X1237596Y812707D01*
X1237560Y812796D01*
X1237521Y812884D01*
X1237478Y812970D01*
X1237432Y813054D01*
X1237383Y813136D01*
X1237330Y813217D01*
X1237274Y813295D01*
X1237215Y813371D01*
X1237153Y813444D01*
X1237089Y813515D01*
X1237021Y813584D01*
X1236951Y813649D01*
X1236878Y813712D01*
X1236802Y813772D01*
X1236725Y813828D01*
X1236645Y813882D01*
X1236563Y813932D01*
X1236479Y813979D01*
X1236393Y814023D01*
X1236306Y814063D01*
X1236217Y814099D01*
X1236127Y814132D01*
X1236126Y814133D02*
X1235919Y814231D01*
X1235708Y814325D01*
X1235496Y814413D01*
X1235282Y814496D01*
X1235065Y814574D01*
X1234847Y814647D01*
X1234628Y814714D01*
X1234406Y814777D01*
X1234184Y814834D01*
X1233959Y814886D01*
X1233734Y814932D01*
X1233508Y814973D01*
X1233281Y815008D01*
X1233053Y815038D01*
X1232824Y815063D01*
X1232595Y815082D01*
X1232366Y815096D01*
X1232136Y815104D01*
X1231906Y815107D01*
X1231906Y808614D02*
X1231676Y808617D01*
X1231446Y808625D01*
X1231217Y808639D01*
X1230988Y808658D01*
X1230759Y808683D01*
X1230531Y808713D01*
X1230304Y808748D01*
X1230078Y808789D01*
X1229853Y808835D01*
X1229629Y808887D01*
X1229406Y808944D01*
X1229185Y809007D01*
X1228965Y809074D01*
X1228747Y809147D01*
X1228530Y809225D01*
X1228316Y809308D01*
X1228104Y809396D01*
X1227894Y809490D01*
X1227686Y809588D01*
X1227596Y809621D01*
X1227507Y809657D01*
X1227419Y809697D01*
X1227334Y809741D01*
X1227250Y809788D01*
X1227168Y809838D01*
X1227088Y809892D01*
X1227011Y809948D01*
X1226935Y810008D01*
X1226862Y810071D01*
X1226792Y810136D01*
X1226724Y810205D01*
X1226660Y810276D01*
X1226598Y810349D01*
X1226539Y810425D01*
X1226483Y810503D01*
X1226430Y810584D01*
X1226381Y810666D01*
X1226335Y810750D01*
X1226292Y810837D01*
X1226253Y810924D01*
X1226217Y811014D01*
X1226185Y811104D01*
X1226157Y811196D01*
X1226132Y811289D01*
X1226111Y811383D01*
X1226094Y811477D01*
X1226080Y811572D01*
X1226071Y811668D01*
X1226065Y811764D01*
X1226063Y811860D01*
X1227686Y814133D02*
X1227894Y814231D01*
X1228104Y814325D01*
X1228316Y814413D01*
X1228530Y814496D01*
X1228747Y814574D01*
X1228965Y814647D01*
X1229184Y814714D01*
X1229406Y814777D01*
X1229629Y814834D01*
X1229853Y814886D01*
X1230078Y814932D01*
X1230304Y814973D01*
X1230531Y815008D01*
X1230759Y815038D01*
X1230988Y815063D01*
X1231217Y815082D01*
X1231446Y815096D01*
X1231676Y815104D01*
X1231906Y815107D01*
X1227686Y814132D02*
X1227596Y814099D01*
X1227507Y814063D01*
X1227419Y814023D01*
X1227334Y813979D01*
X1227250Y813932D01*
X1227168Y813882D01*
X1227088Y813828D01*
X1227011Y813772D01*
X1226935Y813712D01*
X1226862Y813649D01*
X1226792Y813584D01*
X1226724Y813515D01*
X1226660Y813444D01*
X1226598Y813371D01*
X1226539Y813295D01*
X1226483Y813217D01*
X1226430Y813136D01*
X1226381Y813054D01*
X1226335Y812970D01*
X1226292Y812883D01*
X1226253Y812796D01*
X1226217Y812706D01*
X1226185Y812616D01*
X1226157Y812524D01*
X1226132Y812431D01*
X1226111Y812337D01*
X1226094Y812243D01*
X1226080Y812148D01*
X1226071Y812052D01*
X1226065Y811956D01*
X1226063Y811860D01*
X1228660Y809263D02*
X1235153Y814458D01*
X1231906Y820047D02*
X1232136Y820050D01*
X1232366Y820058D01*
X1232595Y820072D01*
X1232824Y820091D01*
X1233053Y820116D01*
X1233281Y820146D01*
X1233508Y820181D01*
X1233734Y820222D01*
X1233959Y820268D01*
X1234183Y820320D01*
X1234406Y820377D01*
X1234628Y820440D01*
X1234847Y820507D01*
X1235065Y820580D01*
X1235282Y820658D01*
X1235496Y820741D01*
X1235708Y820829D01*
X1235918Y820923D01*
X1236126Y821021D01*
X1236127Y821021D02*
X1236217Y821054D01*
X1236306Y821090D01*
X1236394Y821130D01*
X1236479Y821174D01*
X1236563Y821221D01*
X1236645Y821271D01*
X1236725Y821325D01*
X1236802Y821381D01*
X1236878Y821441D01*
X1236951Y821504D01*
X1237021Y821569D01*
X1237089Y821638D01*
X1237153Y821709D01*
X1237215Y821782D01*
X1237274Y821858D01*
X1237330Y821936D01*
X1237383Y822017D01*
X1237432Y822099D01*
X1237478Y822183D01*
X1237521Y822270D01*
X1237560Y822357D01*
X1237596Y822447D01*
X1237628Y822537D01*
X1237656Y822629D01*
X1237681Y822722D01*
X1237702Y822816D01*
X1237719Y822910D01*
X1237733Y823005D01*
X1237742Y823101D01*
X1237748Y823197D01*
X1237750Y823293D01*
X1237748Y823389D01*
X1237742Y823485D01*
X1237733Y823581D01*
X1237719Y823676D01*
X1237702Y823770D01*
X1237681Y823864D01*
X1237656Y823957D01*
X1237628Y824049D01*
X1237596Y824140D01*
X1237560Y824229D01*
X1237521Y824317D01*
X1237478Y824403D01*
X1237432Y824487D01*
X1237383Y824569D01*
X1237330Y824650D01*
X1237274Y824728D01*
X1237215Y824804D01*
X1237153Y824877D01*
X1237089Y824948D01*
X1237021Y825017D01*
X1236951Y825082D01*
X1236878Y825145D01*
X1236802Y825205D01*
X1236725Y825261D01*
X1236645Y825315D01*
X1236563Y825365D01*
X1236479Y825412D01*
X1236393Y825456D01*
X1236306Y825496D01*
X1236217Y825532D01*
X1236127Y825565D01*
X1236126Y825566D02*
X1235919Y825664D01*
X1235708Y825758D01*
X1235496Y825846D01*
X1235282Y825929D01*
X1235065Y826007D01*
X1234847Y826080D01*
X1234628Y826147D01*
X1234406Y826210D01*
X1234184Y826267D01*
X1233959Y826319D01*
X1233734Y826365D01*
X1233508Y826406D01*
X1233281Y826441D01*
X1233053Y826471D01*
X1232824Y826496D01*
X1232595Y826515D01*
X1232366Y826529D01*
X1232136Y826537D01*
X1231906Y826540D01*
X1231906Y820047D02*
X1231676Y820050D01*
X1231446Y820058D01*
X1231217Y820072D01*
X1230988Y820091D01*
X1230759Y820116D01*
X1230531Y820146D01*
X1230304Y820181D01*
X1230078Y820222D01*
X1229853Y820268D01*
X1229629Y820320D01*
X1229406Y820377D01*
X1229185Y820440D01*
X1228965Y820507D01*
X1228747Y820580D01*
X1228530Y820658D01*
X1228316Y820741D01*
X1228104Y820829D01*
X1227894Y820923D01*
X1227686Y821021D01*
X1227596Y821054D01*
X1227507Y821090D01*
X1227419Y821130D01*
X1227334Y821174D01*
X1227250Y821221D01*
X1227168Y821271D01*
X1227088Y821325D01*
X1227011Y821381D01*
X1226935Y821441D01*
X1226862Y821504D01*
X1226792Y821569D01*
X1226724Y821638D01*
X1226660Y821709D01*
X1226598Y821782D01*
X1226539Y821858D01*
X1226483Y821936D01*
X1226430Y822017D01*
X1226381Y822099D01*
X1226335Y822183D01*
X1226292Y822270D01*
X1226253Y822357D01*
X1226217Y822447D01*
X1226185Y822537D01*
X1226157Y822629D01*
X1226132Y822722D01*
X1226111Y822816D01*
X1226094Y822910D01*
X1226080Y823005D01*
X1226071Y823101D01*
X1226065Y823197D01*
X1226063Y823293D01*
X1227686Y825566D02*
X1227894Y825664D01*
X1228104Y825758D01*
X1228316Y825846D01*
X1228530Y825929D01*
X1228747Y826007D01*
X1228965Y826080D01*
X1229184Y826147D01*
X1229406Y826210D01*
X1229629Y826267D01*
X1229853Y826319D01*
X1230078Y826365D01*
X1230304Y826406D01*
X1230531Y826441D01*
X1230759Y826471D01*
X1230988Y826496D01*
X1231217Y826515D01*
X1231446Y826529D01*
X1231676Y826537D01*
X1231906Y826540D01*
X1227686Y825565D02*
X1227596Y825532D01*
X1227507Y825496D01*
X1227419Y825456D01*
X1227334Y825412D01*
X1227250Y825365D01*
X1227168Y825315D01*
X1227088Y825261D01*
X1227011Y825205D01*
X1226935Y825145D01*
X1226862Y825082D01*
X1226792Y825017D01*
X1226724Y824948D01*
X1226660Y824877D01*
X1226598Y824804D01*
X1226539Y824728D01*
X1226483Y824650D01*
X1226430Y824569D01*
X1226381Y824487D01*
X1226335Y824403D01*
X1226292Y824316D01*
X1226253Y824229D01*
X1226217Y824139D01*
X1226185Y824049D01*
X1226157Y823957D01*
X1226132Y823864D01*
X1226111Y823770D01*
X1226094Y823676D01*
X1226080Y823581D01*
X1226071Y823485D01*
X1226065Y823389D01*
X1226063Y823293D01*
X1228660Y820696D02*
X1235153Y825890D01*
M02*
