G04 EAGLE Gerber RS-274X export*
G75*
%MOMM*%
%FSLAX34Y34*%
%LPD*%
%INSoldermask Top*%
%IPPOS*%
%AMOC8*
5,1,8,0,0,1.08239X$1,22.5*%
G01*
%ADD10R,1.703200X0.838200*%
%ADD11R,0.838200X1.703200*%
%ADD12C,2.153200*%
%ADD13C,2.743200*%
%ADD14P,2.969212X8X292.500000*%
%ADD15R,1.703200X1.503200*%
%ADD16R,2.703200X4.503200*%
%ADD17R,1.503200X1.703200*%
%ADD18R,1.603200X3.203200*%
%ADD19R,1.673200X1.473200*%
%ADD20R,1.600200X1.600200*%
%ADD21C,0.505344*%
%ADD22R,1.473200X1.673200*%
%ADD23R,1.005200X1.175200*%
%ADD24R,1.803200X2.003200*%
%ADD25R,1.303200X1.203200*%
%ADD26R,11.003200X10.613200*%
%ADD27R,1.270000X2.362200*%
%ADD28R,1.403200X0.803200*%
%ADD29R,0.853200X1.853200*%
%ADD30R,1.703200X0.503200*%
%ADD31R,0.503200X1.703200*%
%ADD32R,2.082800X2.082800*%
%ADD33C,2.082800*%
%ADD34C,5.283200*%
%ADD35R,5.603200X3.103200*%
%ADD36R,1.403200X1.403200*%
%ADD37C,3.519200*%
%ADD38C,1.631200*%
%ADD39R,1.003200X1.103200*%
%ADD40R,1.346200X1.219200*%
%ADD41C,2.003200*%
%ADD42R,2.103200X1.503200*%
%ADD43R,1.103200X1.003200*%
%ADD44C,1.879600*%
%ADD45R,0.703200X0.853200*%
%ADD46R,2.503200X1.803200*%
%ADD47R,1.603200X2.203200*%
%ADD48R,1.483200X1.603200*%
%ADD49R,2.153200X1.603200*%
%ADD50R,0.903200X1.603200*%
%ADD51C,1.453200*%
%ADD52R,0.803200X1.403200*%
%ADD53C,0.349006*%
%ADD54C,0.339959*%
%ADD55C,0.393431*%
%ADD56R,1.193800X0.508000*%
%ADD57R,1.625600X0.482600*%
%ADD58R,0.762000X1.473200*%
%ADD59R,0.703200X1.703200*%
%ADD60R,1.703200X0.703200*%
%ADD61R,3.903200X3.903200*%
%ADD62C,2.298700*%
%ADD63P,1.649562X8X292.500000*%
%ADD64R,2.003200X1.803200*%
%ADD65C,1.016000*%
%ADD66C,0.959600*%
%ADD67C,1.117600*%
%ADD68C,1.066800*%
%ADD69C,1.244600*%


D10*
X544900Y88900D03*
X544900Y103900D03*
X544900Y118900D03*
X544900Y133900D03*
X544900Y148900D03*
X544900Y163900D03*
X544900Y178900D03*
X544900Y193900D03*
X544900Y208900D03*
X544900Y223900D03*
X544900Y238900D03*
X544900Y253900D03*
X544900Y268900D03*
D11*
X529900Y287650D03*
X514900Y287650D03*
X499900Y287650D03*
X484900Y287650D03*
X469900Y287650D03*
X454900Y287650D03*
X439900Y287650D03*
X424900Y287650D03*
D10*
X409900Y268900D03*
X409900Y253900D03*
X409900Y238900D03*
X409900Y223900D03*
X409900Y208900D03*
X409900Y193900D03*
X409900Y178900D03*
X409900Y163900D03*
X409900Y148900D03*
X409900Y133900D03*
X409900Y118900D03*
X409900Y103900D03*
X409900Y88900D03*
D12*
X1249900Y431800D03*
X1049900Y431800D03*
D13*
X50800Y762000D03*
D14*
X50800Y711200D03*
D15*
X990600Y485800D03*
X990600Y504800D03*
X1012190Y485800D03*
X1012190Y504800D03*
D16*
X444500Y727300D03*
X444500Y644300D03*
D15*
X520700Y669900D03*
X520700Y650900D03*
D17*
X122530Y704850D03*
X103530Y704850D03*
D18*
X133350Y574170D03*
X133350Y622170D03*
D15*
X190500Y587400D03*
X190500Y606400D03*
X1187450Y777900D03*
X1187450Y796900D03*
X1108710Y777900D03*
X1108710Y796900D03*
D17*
X1190600Y607060D03*
X1171600Y607060D03*
D15*
X645160Y361340D03*
X645160Y380340D03*
X708660Y361340D03*
X708660Y380340D03*
D17*
X658470Y655320D03*
X639470Y655320D03*
D15*
X836930Y547980D03*
X836930Y528980D03*
X858520Y547980D03*
X858520Y528980D03*
D17*
X574700Y203200D03*
X593700Y203200D03*
D15*
X1230630Y777900D03*
X1230630Y796900D03*
X1130300Y777900D03*
X1130300Y796900D03*
X815340Y547980D03*
X815340Y528980D03*
D17*
X579730Y751840D03*
X560730Y751840D03*
X601370Y751840D03*
X620370Y751840D03*
D15*
X543560Y809600D03*
X543560Y790600D03*
D17*
X661010Y751840D03*
X642010Y751840D03*
X581000Y849630D03*
X562000Y849630D03*
D15*
X722630Y769010D03*
X722630Y788010D03*
D17*
X258420Y355600D03*
X239420Y355600D03*
X258420Y334010D03*
X239420Y334010D03*
X258420Y312420D03*
X239420Y312420D03*
D19*
X50800Y847000D03*
X50800Y804000D03*
D20*
X994410Y774700D03*
X961390Y774700D03*
D21*
X243640Y460690D02*
X243640Y453710D01*
X236660Y453710D01*
X236660Y460690D01*
X243640Y460690D01*
X243640Y458510D02*
X236660Y458510D01*
X261180Y460690D02*
X261180Y453710D01*
X254200Y453710D01*
X254200Y460690D01*
X261180Y460690D01*
X261180Y458510D02*
X254200Y458510D01*
X242370Y409890D02*
X242370Y402910D01*
X235390Y402910D01*
X235390Y409890D01*
X242370Y409890D01*
X242370Y407710D02*
X235390Y407710D01*
X259910Y409890D02*
X259910Y402910D01*
X252930Y402910D01*
X252930Y409890D01*
X259910Y409890D01*
X259910Y407710D02*
X252930Y407710D01*
X243640Y428310D02*
X243640Y435290D01*
X243640Y428310D02*
X236660Y428310D01*
X236660Y435290D01*
X243640Y435290D01*
X243640Y433110D02*
X236660Y433110D01*
X261180Y435290D02*
X261180Y428310D01*
X254200Y428310D01*
X254200Y435290D01*
X261180Y435290D01*
X261180Y433110D02*
X254200Y433110D01*
X383740Y218120D02*
X383740Y211140D01*
X383740Y218120D02*
X390720Y218120D01*
X390720Y211140D01*
X383740Y211140D01*
X383740Y215940D02*
X390720Y215940D01*
X366200Y218120D02*
X366200Y211140D01*
X366200Y218120D02*
X373180Y218120D01*
X373180Y211140D01*
X366200Y211140D01*
X366200Y215940D02*
X373180Y215940D01*
D20*
X1045210Y774700D03*
X1012190Y774700D03*
D22*
X118200Y660400D03*
X161200Y660400D03*
D20*
X892810Y774700D03*
X859790Y774700D03*
D23*
X762000Y814230D03*
X752500Y834230D03*
X771500Y834230D03*
D20*
X943610Y774700D03*
X910590Y774700D03*
D24*
X750600Y850900D03*
X722600Y850900D03*
X773400Y850900D03*
X801400Y850900D03*
D25*
X1062600Y657860D03*
X1045600Y657860D03*
X1062600Y673100D03*
X1045600Y673100D03*
D26*
X177800Y787400D03*
D27*
X143764Y704088D03*
X160782Y704088D03*
X177800Y704088D03*
X194818Y704088D03*
X211836Y704088D03*
D28*
X1209100Y679450D03*
X1209100Y692150D03*
X1209100Y704850D03*
X1209100Y717550D03*
X1153100Y717550D03*
X1153100Y704850D03*
X1153100Y692150D03*
X1153100Y679450D03*
D29*
X665480Y188480D03*
X678180Y188480D03*
X690880Y188480D03*
X703580Y188480D03*
X716280Y188480D03*
X728980Y188480D03*
X741680Y188480D03*
X754380Y188480D03*
X754380Y253480D03*
X741680Y253480D03*
X728980Y253480D03*
X716280Y253480D03*
X703580Y253480D03*
X690880Y253480D03*
X678180Y253480D03*
X665480Y253480D03*
D30*
X618500Y606100D03*
X618500Y601100D03*
X618500Y596100D03*
X618500Y591100D03*
X618500Y586100D03*
X618500Y581100D03*
X618500Y576100D03*
X618500Y571100D03*
X618500Y566100D03*
X618500Y561100D03*
X618500Y556100D03*
X618500Y551100D03*
X618500Y546100D03*
X618500Y541100D03*
X618500Y536100D03*
X618500Y531100D03*
X618500Y526100D03*
X618500Y521100D03*
X618500Y516100D03*
X618500Y511100D03*
X618500Y506100D03*
X618500Y501100D03*
X618500Y496100D03*
X618500Y491100D03*
X618500Y486100D03*
D31*
X638500Y466100D03*
X643500Y466100D03*
X648500Y466100D03*
X653500Y466100D03*
X658500Y466100D03*
X663500Y466100D03*
X668500Y466100D03*
X673500Y466100D03*
X678500Y466100D03*
X683500Y466100D03*
X688500Y466100D03*
X693500Y466100D03*
X698500Y466100D03*
X703500Y466100D03*
X708500Y466100D03*
X713500Y466100D03*
X718500Y466100D03*
X723500Y466100D03*
X728500Y466100D03*
X733500Y466100D03*
X738500Y466100D03*
X743500Y466100D03*
X748500Y466100D03*
X753500Y466100D03*
X758500Y466100D03*
D30*
X778500Y486100D03*
X778500Y491100D03*
X778500Y496100D03*
X778500Y501100D03*
X778500Y506100D03*
X778500Y511100D03*
X778500Y516100D03*
X778500Y521100D03*
X778500Y526100D03*
X778500Y531100D03*
X778500Y536100D03*
X778500Y541100D03*
X778500Y546100D03*
X778500Y551100D03*
X778500Y556100D03*
X778500Y561100D03*
X778500Y566100D03*
X778500Y571100D03*
X778500Y576100D03*
X778500Y581100D03*
X778500Y586100D03*
X778500Y591100D03*
X778500Y596100D03*
X778500Y601100D03*
X778500Y606100D03*
D31*
X758500Y626100D03*
X753500Y626100D03*
X748500Y626100D03*
X743500Y626100D03*
X738500Y626100D03*
X733500Y626100D03*
X728500Y626100D03*
X723500Y626100D03*
X718500Y626100D03*
X713500Y626100D03*
X708500Y626100D03*
X703500Y626100D03*
X698500Y626100D03*
X693500Y626100D03*
X688500Y626100D03*
X683500Y626100D03*
X678500Y626100D03*
X673500Y626100D03*
X668500Y626100D03*
X663500Y626100D03*
X658500Y626100D03*
X653500Y626100D03*
X648500Y626100D03*
X643500Y626100D03*
X638500Y626100D03*
D32*
X423390Y882420D03*
D33*
X451090Y882420D03*
X478790Y882420D03*
X506490Y882420D03*
X534190Y882420D03*
X437290Y910820D03*
X464990Y910820D03*
X492590Y910820D03*
X520290Y910820D03*
D34*
X353790Y896620D03*
X603790Y896620D03*
D33*
X584200Y419100D03*
X584200Y393700D03*
X558800Y419100D03*
X558800Y393700D03*
X533400Y419100D03*
X533400Y393700D03*
D35*
X317500Y734300D03*
X317500Y637300D03*
D36*
X241300Y607400D03*
X241300Y586400D03*
D37*
X339600Y114300D03*
X219200Y114300D03*
D38*
X291900Y141400D03*
X266900Y141400D03*
X291900Y161400D03*
X266900Y161400D03*
D39*
X582320Y322740D03*
X601320Y322740D03*
X591820Y343740D03*
D40*
X1158240Y170180D03*
X1137920Y161290D03*
X1137920Y179070D03*
X1262380Y168910D03*
X1242060Y160020D03*
X1242060Y177800D03*
D41*
X1016000Y203200D03*
X990600Y203200D03*
X965200Y203200D03*
D42*
X923800Y438980D03*
X923800Y383980D03*
X955800Y383980D03*
X955800Y438980D03*
D43*
X437990Y791870D03*
X437990Y810870D03*
X416990Y801370D03*
D44*
X702310Y416560D03*
X651510Y416560D03*
D17*
X300330Y457200D03*
X281330Y457200D03*
D15*
X88900Y288900D03*
X88900Y269900D03*
D17*
X300330Y406400D03*
X281330Y406400D03*
X300330Y431800D03*
X281330Y431800D03*
D15*
X482600Y562000D03*
X482600Y581000D03*
X508000Y562000D03*
X508000Y581000D03*
X558800Y581000D03*
X558800Y562000D03*
D17*
X517500Y457200D03*
X498500Y457200D03*
D15*
X722630Y809650D03*
X722630Y828650D03*
X801370Y828650D03*
X801370Y809650D03*
D17*
X936650Y566420D03*
X955650Y566420D03*
X936650Y544830D03*
X955650Y544830D03*
X936600Y838200D03*
X917600Y838200D03*
X885800Y838200D03*
X866800Y838200D03*
X936600Y812800D03*
X917600Y812800D03*
X885800Y812800D03*
X866800Y812800D03*
D15*
X1228090Y640690D03*
X1228090Y621690D03*
X1249680Y640690D03*
X1249680Y621690D03*
D17*
X1038200Y838200D03*
X1019200Y838200D03*
X987400Y838200D03*
X968400Y838200D03*
X987400Y812800D03*
X968400Y812800D03*
X1038200Y812800D03*
X1019200Y812800D03*
D15*
X1140460Y231800D03*
X1140460Y250800D03*
X1245870Y230530D03*
X1245870Y249530D03*
D17*
X389230Y260350D03*
X370230Y260350D03*
X61570Y196850D03*
X42570Y196850D03*
X881990Y165100D03*
X862990Y165100D03*
X258420Y377190D03*
X239420Y377190D03*
D15*
X905510Y231800D03*
X905510Y250800D03*
X754380Y276250D03*
X754380Y295250D03*
X728980Y276250D03*
X728980Y295250D03*
X703580Y276250D03*
X703580Y295250D03*
X678180Y276250D03*
X678180Y295250D03*
X292100Y790600D03*
X292100Y809600D03*
D17*
X389230Y281940D03*
X370230Y281940D03*
X389230Y238760D03*
X370230Y238760D03*
D15*
X317500Y790600D03*
X317500Y809600D03*
X266700Y809600D03*
X266700Y790600D03*
X368300Y790600D03*
X368300Y809600D03*
X132080Y288900D03*
X132080Y269900D03*
D17*
X212700Y673100D03*
X193700Y673100D03*
X1114400Y165100D03*
X1095400Y165100D03*
X601320Y306070D03*
X582320Y306070D03*
X1218540Y163830D03*
X1199540Y163830D03*
X370230Y191770D03*
X389230Y191770D03*
X281330Y377190D03*
X300330Y377190D03*
D15*
X110490Y269900D03*
X110490Y288900D03*
X533400Y562000D03*
X533400Y581000D03*
X1252220Y818540D03*
X1252220Y837540D03*
X1187450Y818540D03*
X1187450Y837540D03*
X1209040Y796900D03*
X1209040Y777900D03*
X1252220Y777900D03*
X1252220Y796900D03*
X1151890Y818540D03*
X1151890Y837540D03*
D17*
X601320Y361950D03*
X582320Y361950D03*
D15*
X1087120Y818540D03*
X1087120Y837540D03*
X1087120Y796900D03*
X1087120Y777900D03*
D17*
X1129640Y838200D03*
X1110640Y838200D03*
X1229970Y838200D03*
X1210970Y838200D03*
D15*
X1151890Y777900D03*
X1151890Y796900D03*
X342900Y790600D03*
X342900Y809600D03*
X393700Y809600D03*
X393700Y790600D03*
D17*
X441300Y411480D03*
X422300Y411480D03*
D15*
X215900Y587400D03*
X215900Y606400D03*
D17*
X686410Y381000D03*
X667410Y381000D03*
X752500Y797560D03*
X771500Y797560D03*
D45*
X721930Y164230D03*
X713930Y164230D03*
X705930Y164230D03*
X697930Y164230D03*
X697930Y150730D03*
X705930Y150730D03*
X713930Y150730D03*
X721930Y150730D03*
D46*
X400300Y326390D03*
X463300Y326390D03*
X400300Y381000D03*
X463300Y381000D03*
D47*
X180600Y60400D03*
X22600Y60400D03*
D48*
X22000Y156400D03*
D49*
X171850Y156400D03*
D50*
X123600Y165100D03*
X112600Y165100D03*
X101600Y165100D03*
X90600Y165100D03*
X79600Y165100D03*
X68600Y165100D03*
X57600Y165100D03*
X46600Y165100D03*
X35600Y165100D03*
D51*
X132600Y56400D03*
X52600Y56400D03*
D52*
X933450Y467300D03*
X946150Y467300D03*
X958850Y467300D03*
X971550Y467300D03*
X971550Y523300D03*
X958850Y523300D03*
X946150Y523300D03*
X933450Y523300D03*
D53*
X1219519Y256491D02*
X1219519Y238649D01*
X1219519Y256491D02*
X1223961Y256491D01*
X1223961Y238649D01*
X1219519Y238649D01*
X1219519Y241964D02*
X1223961Y241964D01*
X1223961Y245279D02*
X1219519Y245279D01*
X1219519Y248594D02*
X1223961Y248594D01*
X1223961Y251909D02*
X1219519Y251909D01*
X1219519Y255224D02*
X1223961Y255224D01*
X1194119Y256491D02*
X1194119Y238649D01*
X1194119Y256491D02*
X1198561Y256491D01*
X1198561Y238649D01*
X1194119Y238649D01*
X1194119Y241964D02*
X1198561Y241964D01*
X1198561Y245279D02*
X1194119Y245279D01*
X1194119Y248594D02*
X1198561Y248594D01*
X1198561Y251909D02*
X1194119Y251909D01*
X1194119Y255224D02*
X1198561Y255224D01*
X1194119Y195691D02*
X1194119Y177849D01*
X1194119Y195691D02*
X1198561Y195691D01*
X1198561Y177849D01*
X1194119Y177849D01*
X1194119Y181164D02*
X1198561Y181164D01*
X1198561Y184479D02*
X1194119Y184479D01*
X1194119Y187794D02*
X1198561Y187794D01*
X1198561Y191109D02*
X1194119Y191109D01*
X1194119Y194424D02*
X1198561Y194424D01*
X1219519Y195691D02*
X1219519Y177849D01*
X1219519Y195691D02*
X1223961Y195691D01*
X1223961Y177849D01*
X1219519Y177849D01*
X1219519Y181164D02*
X1223961Y181164D01*
X1223961Y184479D02*
X1219519Y184479D01*
X1219519Y187794D02*
X1223961Y187794D01*
X1223961Y191109D02*
X1219519Y191109D01*
X1219519Y194424D02*
X1223961Y194424D01*
D54*
X31866Y570284D02*
X23934Y570284D01*
X23934Y582016D01*
X31866Y582016D01*
X31866Y570284D01*
X31866Y573514D02*
X23934Y573514D01*
X23934Y576744D02*
X31866Y576744D01*
X31866Y579974D02*
X23934Y579974D01*
X46834Y570284D02*
X54766Y570284D01*
X46834Y570284D02*
X46834Y582016D01*
X54766Y582016D01*
X54766Y570284D01*
X54766Y573514D02*
X46834Y573514D01*
X46834Y576744D02*
X54766Y576744D01*
X54766Y579974D02*
X46834Y579974D01*
X69734Y570284D02*
X77666Y570284D01*
X69734Y570284D02*
X69734Y582016D01*
X77666Y582016D01*
X77666Y570284D01*
X77666Y573514D02*
X69734Y573514D01*
X69734Y576744D02*
X77666Y576744D01*
X77666Y579974D02*
X69734Y579974D01*
D55*
X66049Y637451D02*
X35551Y637451D01*
X35551Y648649D01*
X66049Y648649D01*
X66049Y637451D01*
X66049Y641188D02*
X35551Y641188D01*
X35551Y644925D02*
X66049Y644925D01*
D56*
X537178Y477250D03*
X537178Y483750D03*
X537178Y490250D03*
X537178Y496750D03*
X537178Y503250D03*
X537178Y509750D03*
X537178Y516250D03*
X537178Y522750D03*
X537178Y529250D03*
X537178Y535750D03*
X478822Y535750D03*
X478822Y529250D03*
X478822Y522750D03*
X478822Y516250D03*
X478822Y509750D03*
X478822Y503250D03*
X478822Y496750D03*
X478822Y490250D03*
X478822Y483750D03*
X478822Y477250D03*
D52*
X744220Y721300D03*
X756920Y721300D03*
X769620Y721300D03*
X782320Y721300D03*
X782320Y777300D03*
X769620Y777300D03*
X756920Y777300D03*
X744220Y777300D03*
D57*
X1202944Y625094D03*
X1202944Y629920D03*
X1202944Y635000D03*
X1202944Y640080D03*
X1202944Y644906D03*
X1159256Y644906D03*
X1159256Y640080D03*
X1159256Y635000D03*
X1159256Y629920D03*
X1159256Y625094D03*
D53*
X1115379Y257761D02*
X1115379Y239919D01*
X1115379Y257761D02*
X1119821Y257761D01*
X1119821Y239919D01*
X1115379Y239919D01*
X1115379Y243234D02*
X1119821Y243234D01*
X1119821Y246549D02*
X1115379Y246549D01*
X1115379Y249864D02*
X1119821Y249864D01*
X1119821Y253179D02*
X1115379Y253179D01*
X1115379Y256494D02*
X1119821Y256494D01*
X1089979Y257761D02*
X1089979Y239919D01*
X1089979Y257761D02*
X1094421Y257761D01*
X1094421Y239919D01*
X1089979Y239919D01*
X1089979Y243234D02*
X1094421Y243234D01*
X1094421Y246549D02*
X1089979Y246549D01*
X1089979Y249864D02*
X1094421Y249864D01*
X1094421Y253179D02*
X1089979Y253179D01*
X1089979Y256494D02*
X1094421Y256494D01*
X1089979Y196961D02*
X1089979Y179119D01*
X1089979Y196961D02*
X1094421Y196961D01*
X1094421Y179119D01*
X1089979Y179119D01*
X1089979Y182434D02*
X1094421Y182434D01*
X1094421Y185749D02*
X1089979Y185749D01*
X1089979Y189064D02*
X1094421Y189064D01*
X1094421Y192379D02*
X1089979Y192379D01*
X1089979Y195694D02*
X1094421Y195694D01*
X1115379Y196961D02*
X1115379Y179119D01*
X1115379Y196961D02*
X1119821Y196961D01*
X1119821Y179119D01*
X1115379Y179119D01*
X1115379Y182434D02*
X1119821Y182434D01*
X1119821Y185749D02*
X1115379Y185749D01*
X1115379Y189064D02*
X1119821Y189064D01*
X1119821Y192379D02*
X1115379Y192379D01*
X1115379Y195694D02*
X1119821Y195694D01*
X881699Y239919D02*
X881699Y257761D01*
X886141Y257761D01*
X886141Y239919D01*
X881699Y239919D01*
X881699Y243234D02*
X886141Y243234D01*
X886141Y246549D02*
X881699Y246549D01*
X881699Y249864D02*
X886141Y249864D01*
X886141Y253179D02*
X881699Y253179D01*
X881699Y256494D02*
X886141Y256494D01*
X856299Y257761D02*
X856299Y239919D01*
X856299Y257761D02*
X860741Y257761D01*
X860741Y239919D01*
X856299Y239919D01*
X856299Y243234D02*
X860741Y243234D01*
X860741Y246549D02*
X856299Y246549D01*
X856299Y249864D02*
X860741Y249864D01*
X860741Y253179D02*
X856299Y253179D01*
X856299Y256494D02*
X860741Y256494D01*
X856299Y196961D02*
X856299Y179119D01*
X856299Y196961D02*
X860741Y196961D01*
X860741Y179119D01*
X856299Y179119D01*
X856299Y182434D02*
X860741Y182434D01*
X860741Y185749D02*
X856299Y185749D01*
X856299Y189064D02*
X860741Y189064D01*
X860741Y192379D02*
X856299Y192379D01*
X856299Y195694D02*
X860741Y195694D01*
X881699Y196961D02*
X881699Y179119D01*
X881699Y196961D02*
X886141Y196961D01*
X886141Y179119D01*
X881699Y179119D01*
X881699Y182434D02*
X886141Y182434D01*
X886141Y185749D02*
X881699Y185749D01*
X881699Y189064D02*
X886141Y189064D01*
X886141Y192379D02*
X881699Y192379D01*
X881699Y195694D02*
X886141Y195694D01*
D52*
X565150Y772100D03*
X577850Y772100D03*
X590550Y772100D03*
X603250Y772100D03*
X615950Y772100D03*
X628650Y772100D03*
X641350Y772100D03*
X654050Y772100D03*
X654050Y828100D03*
X641350Y828100D03*
X628650Y828100D03*
X615950Y828100D03*
X603250Y828100D03*
X590550Y828100D03*
X577850Y828100D03*
X565150Y828100D03*
D58*
X593598Y178054D03*
X584200Y178054D03*
X574802Y178054D03*
X574802Y152146D03*
X593598Y152146D03*
D59*
X189430Y465160D03*
X179270Y465160D03*
X169110Y465160D03*
X158950Y465160D03*
X118310Y465160D03*
X97990Y465160D03*
X87830Y465160D03*
X77670Y465160D03*
X67510Y465160D03*
X87890Y317860D03*
X98050Y317860D03*
X108210Y317860D03*
X118370Y317860D03*
X128530Y317860D03*
X138690Y317860D03*
X148850Y317860D03*
X159010Y317860D03*
X169170Y317860D03*
X179330Y317860D03*
D60*
X216130Y336860D03*
X216330Y367340D03*
X216330Y377500D03*
X216330Y387660D03*
X216330Y397820D03*
X216130Y407980D03*
X216130Y418140D03*
X216130Y428300D03*
X216130Y438460D03*
D61*
X153010Y387040D03*
D62*
X787400Y878523D02*
X787400Y899478D01*
X736600Y899478D02*
X736600Y878523D01*
X1244600Y878523D02*
X1244600Y899478D01*
X1193800Y899478D02*
X1193800Y878523D01*
X1092200Y878523D02*
X1092200Y899478D01*
X1143000Y899478D02*
X1143000Y878523D01*
X1092200Y124778D02*
X1092200Y103823D01*
X1143000Y103823D02*
X1143000Y124778D01*
X1244600Y124778D02*
X1244600Y103823D01*
X1193800Y103823D02*
X1193800Y124778D01*
X635000Y124778D02*
X635000Y103823D01*
X685800Y103823D02*
X685800Y124778D01*
X787400Y124778D02*
X787400Y103823D01*
X736600Y103823D02*
X736600Y124778D01*
X203200Y878523D02*
X203200Y899478D01*
X152400Y899478D02*
X152400Y878523D01*
X50800Y878523D02*
X50800Y899478D01*
X101600Y899478D02*
X101600Y878523D01*
X1016000Y878523D02*
X1016000Y899478D01*
X965200Y899478D02*
X965200Y878523D01*
X863600Y878523D02*
X863600Y899478D01*
X914400Y899478D02*
X914400Y878523D01*
X863600Y124778D02*
X863600Y103823D01*
X914400Y103823D02*
X914400Y124778D01*
X1016000Y124778D02*
X1016000Y103823D01*
X965200Y103823D02*
X965200Y124778D01*
D63*
X463550Y839470D03*
X463550Y763270D03*
D64*
X520700Y697200D03*
X520700Y725200D03*
D65*
X463550Y311150D03*
X384810Y381000D03*
X230308Y438982D03*
X227330Y355600D03*
X565150Y237490D03*
X557530Y278130D03*
X702031Y296799D03*
X708660Y346710D03*
X558800Y622300D03*
X520700Y635000D03*
X250190Y808990D03*
X177800Y800100D03*
X109220Y356870D03*
X153010Y387040D03*
X673100Y495300D03*
X637540Y548640D03*
X650240Y571500D03*
X438150Y480060D03*
X571888Y558800D03*
X408940Y812800D03*
X448310Y810260D03*
X782320Y821690D03*
X762000Y824230D03*
X87630Y803910D03*
X342900Y809600D03*
D66*
X421640Y361950D03*
X407670Y411480D03*
D67*
X858520Y397510D03*
X775970Y237490D03*
D65*
X195580Y688340D03*
X250190Y789940D03*
D68*
X144780Y270510D03*
X177800Y270510D03*
D69*
X241300Y482600D03*
X241300Y546100D03*
X330200Y397510D03*
X457200Y203200D03*
X330200Y228600D03*
X381000Y406400D03*
X330200Y351790D03*
D66*
X292100Y330200D03*
X726670Y496570D03*
X955040Y579120D03*
X716280Y496570D03*
X964720Y546100D03*
X1143000Y622300D03*
X768350Y694690D03*
X744220Y702310D03*
X114300Y190500D03*
X72390Y180340D03*
X638810Y500380D03*
X614680Y321310D03*
X601980Y292100D03*
X304800Y190500D03*
X254000Y190500D03*
X584200Y571500D03*
X342900Y571500D03*
X571500Y444500D03*
X596900Y469900D03*
X596900Y502930D03*
X521970Y502920D03*
X586740Y605790D03*
X41910Y222250D03*
X731520Y643890D03*
X824230Y643890D03*
X698500Y787400D03*
X728980Y525780D03*
X685800Y787400D03*
X722554Y519354D03*
X793750Y556260D03*
X689504Y275590D03*
X815340Y566420D03*
X740304Y276860D03*
X769620Y276860D03*
X825500Y571500D03*
X802640Y563880D03*
X714904Y276860D03*
D65*
X402590Y297180D03*
X402590Y241300D03*
D66*
X749300Y495300D03*
X431800Y215900D03*
X355600Y260350D03*
D65*
X781050Y386080D03*
D66*
X584200Y535940D03*
X584200Y189230D03*
X584200Y546100D03*
X495300Y190500D03*
X586740Y594360D03*
X599440Y588010D03*
X731520Y656590D03*
X824230Y656590D03*
X731520Y669290D03*
X824230Y669290D03*
X732790Y681990D03*
X824230Y683260D03*
X650240Y535940D03*
X769620Y436880D03*
X203200Y495300D03*
D65*
X134620Y419100D03*
D66*
X177800Y482600D03*
X168910Y336550D03*
X152400Y215900D03*
X80010Y194310D03*
X177800Y508000D03*
X110490Y303530D03*
X165580Y482600D03*
X148590Y336550D03*
X203200Y482600D03*
X135890Y199390D03*
X601980Y377190D03*
D65*
X1126490Y683260D03*
X1187450Y749300D03*
X1243330Y749300D03*
X1130300Y751840D03*
X1093470Y749300D03*
D66*
X914400Y176530D03*
X762000Y39370D03*
X715018Y39560D03*
X705930Y39560D03*
X660400Y38100D03*
X1220470Y704850D03*
X1220470Y811530D03*
D65*
X1187450Y800100D03*
D66*
X1231900Y698500D03*
D65*
X1252220Y800100D03*
D66*
X1153160Y728980D03*
X1118870Y811530D03*
D65*
X1087120Y800100D03*
X1151890Y800100D03*
D66*
X1226820Y939800D03*
X1125220Y939800D03*
M02*
