G04 EAGLE Gerber RS-274X export*
G75*
%MOMM*%
%FSLAX34Y34*%
%LPD*%
%INSolderpaste Bottom*%
%IPPOS*%
%AMOC8*
5,1,8,0,0,1.08239X$1,22.5*%
G01*
%ADD10R,1.270000X1.470000*%
%ADD11R,1.470000X1.270000*%
%ADD12R,1.780000X2.160000*%
%ADD13C,0.229500*%
%ADD14R,2.400000X1.800000*%


D10*
X1096100Y939800D03*
X1139100Y939800D03*
D11*
X787400Y85000D03*
X787400Y42000D03*
X736600Y85000D03*
X736600Y42000D03*
X685800Y85000D03*
X685800Y42000D03*
X635000Y85000D03*
X635000Y42000D03*
D12*
X147300Y939800D03*
X106600Y939800D03*
D13*
X960197Y56997D02*
X980003Y56997D01*
X960197Y56997D02*
X960197Y70003D01*
X980003Y70003D01*
X980003Y56997D01*
X980003Y59177D02*
X960197Y59177D01*
X960197Y61357D02*
X980003Y61357D01*
X980003Y63537D02*
X960197Y63537D01*
X960197Y65717D02*
X980003Y65717D01*
X980003Y67897D02*
X960197Y67897D01*
X1001197Y56997D02*
X1021003Y56997D01*
X1001197Y56997D02*
X1001197Y70003D01*
X1021003Y70003D01*
X1021003Y56997D01*
X1021003Y59177D02*
X1001197Y59177D01*
X1001197Y61357D02*
X1021003Y61357D01*
X1021003Y63537D02*
X1001197Y63537D01*
X1001197Y65717D02*
X1021003Y65717D01*
X1021003Y67897D02*
X1001197Y67897D01*
D10*
X1096100Y63500D03*
X1139100Y63500D03*
X1197700Y63500D03*
X1240700Y63500D03*
X1197700Y939800D03*
X1240700Y939800D03*
D14*
X1187450Y767150D03*
X1187450Y807650D03*
X1151890Y767150D03*
X1151890Y807650D03*
X1087120Y767150D03*
X1087120Y807650D03*
X1252220Y767150D03*
X1252220Y807650D03*
M02*
